<svg width="12" height="16" viewBox="0 0 12 16" fill="none" xmlns="http://www.w3.org/2000/svg">
<path d="M5.97366 10.4031C8.41838 10.4031 10.4002 8.40997 10.4002 5.95133C10.4002 3.49269 8.41838 1.49957 5.97366 1.49957C3.52895 1.49957 1.54712 3.49269 1.54712 5.95133C1.54712 8.40997 3.52895 10.4031 5.97366 10.4031Z" fill="#242E2E"/>
<path d="M5.96808 0.00554129C8.68149 0.0113078 11.0076 1.77606 11.7163 4.40351C12.2136 6.24721 11.889 7.96285 10.7817 9.52597C9.33976 11.5617 7.9026 13.6009 6.47019 15.6436C6.1398 16.1128 5.79587 16.1214 5.46498 15.6535C4.00845 13.5915 2.5539 11.5279 1.10132 9.46284C0.45418 8.54089 0.033631 7.52409 0.00278676 6.386C-0.0399206 4.81423 0.407417 3.38671 1.40185 2.16053C2.43908 0.881755 3.79485 0.179929 5.42297 0.00882272C5.6045 -0.00171949 5.78644 -0.00281508 5.96808 0.00554129V0.00554129ZM5.96452 10.2643C8.30127 10.289 10.2319 8.37346 10.2605 6.00183C10.2716 5.43314 10.1709 4.86784 9.96435 4.33834C9.75776 3.80884 9.44928 3.32556 9.05659 2.9162C8.66391 2.50684 8.19474 2.17947 7.67599 1.95283C7.15724 1.7262 6.59912 1.60478 6.03361 1.59552C5.46811 1.58627 4.90634 1.68936 4.38054 1.89889C3.85473 2.10842 3.37522 2.42027 2.96949 2.81656C2.56377 3.21284 2.23981 3.68577 2.0162 4.20823C1.79259 4.73068 1.67372 5.29239 1.6664 5.86115C1.61321 8.20743 3.51873 10.2777 5.96452 10.2643Z" fill="white"/>
<path d="M3.29175 3.44279H4.27688L4.29942 3.91713C4.55646 3.72037 4.78334 3.54817 5.00884 3.37478C5.22524 3.20825 5.4373 3.03585 5.65736 2.87439C5.8875 2.70537 6.05794 2.69542 6.28176 2.86713C7.37692 3.70778 8.46873 4.55287 9.55718 5.40241C9.71259 5.52331 9.80353 5.67234 9.67294 5.87487C9.61742 5.96262 9.53212 6.02711 9.43287 6.05637C9.33363 6.08563 9.2272 6.07766 9.13336 6.03394C9.03141 5.98447 8.93628 5.92191 8.85033 5.84782C7.97905 5.17619 7.10855 4.50359 6.23885 3.83004C5.99773 3.64372 5.95572 3.64968 5.70758 3.84167C4.80743 4.53763 3.90616 5.23236 3.00376 5.92587C2.84114 6.05124 2.6713 6.14102 2.45855 6.0582C2.17809 5.94884 2.10533 5.6619 2.32816 5.46216C2.57066 5.24473 2.83333 5.04926 3.09422 4.85369C3.16024 4.80943 3.21348 4.74843 3.24858 4.67686C3.28367 4.6053 3.29938 4.52568 3.29412 4.44606C3.28591 4.11926 3.29175 3.79236 3.29175 3.44279Z" fill="white"/>
<path d="M4.69604 8.15831V7.20256H5.63956V8.15831H4.69604Z" fill="#00FCF1"/>
<path d="M6.2876 8.15831V7.20256H7.23112V8.15831H6.2876Z" fill="#00FCF1"/>
<path d="M6.2876 6.61388V5.65813H7.23112V6.61388H6.2876Z" fill="#00FCF1"/>
<path d="M4.69604 6.61388V5.65813H5.63956V6.61388H4.69604Z" fill="#00FCF1"/>
</svg>
