<svg width="500" height="20" viewBox="0 0 500 20" fill="none" xmlns="http://www.w3.org/2000/svg">
<line x1="0.5" y1="9.5" x2="217.5" y2="9.5" stroke="#718096" stroke-linecap="round"/>
<path d="M251.824 9.90909C251.824 10.983 251.63 11.911 251.242 12.6932C250.854 13.4754 250.322 14.0786 249.646 14.5028C248.97 14.9271 248.198 15.1392 247.33 15.1392C246.461 15.1392 245.689 14.9271 245.013 14.5028C244.337 14.0786 243.805 13.4754 243.417 12.6932C243.029 11.911 242.835 10.983 242.835 9.90909C242.835 8.83523 243.029 7.9072 243.417 7.125C243.805 6.3428 244.337 5.73958 245.013 5.31534C245.689 4.8911 246.461 4.67898 247.33 4.67898C248.198 4.67898 248.97 4.8911 249.646 5.31534C250.322 5.73958 250.854 6.3428 251.242 7.125C251.63 7.9072 251.824 8.83523 251.824 9.90909ZM250.631 9.90909C250.631 9.02746 250.483 8.28338 250.188 7.67685C249.897 7.07031 249.5 6.61127 249 6.29972C248.503 5.98816 247.946 5.83239 247.33 5.83239C246.713 5.83239 246.155 5.98816 245.654 6.29972C245.157 6.61127 244.761 7.07031 244.466 7.67685C244.174 8.28338 244.028 9.02746 244.028 9.90909C244.028 10.7907 244.174 11.5348 244.466 12.1413C244.761 12.7479 245.157 13.2069 245.654 13.5185C246.155 13.83 246.713 13.9858 247.33 13.9858C247.946 13.9858 248.503 13.83 249 13.5185C249.5 13.2069 249.897 12.7479 250.188 12.1413C250.483 11.5348 250.631 10.7907 250.631 9.90909ZM253.738 15V7.36364H254.871V8.51705H254.951C255.09 8.1392 255.342 7.83262 255.707 7.5973C256.071 7.36198 256.482 7.24432 256.94 7.24432C257.026 7.24432 257.134 7.24597 257.263 7.24929C257.392 7.2526 257.49 7.25758 257.556 7.2642V8.45739C257.516 8.44744 257.425 8.43253 257.283 8.41264C257.143 8.38944 256.996 8.37784 256.84 8.37784C256.469 8.37784 256.138 8.45573 255.846 8.61151C255.558 8.76397 255.329 8.97609 255.16 9.24787C254.994 9.51634 254.911 9.82292 254.911 10.1676V15H253.738Z" fill="#718096"/>
<line x1="282.5" y1="9.5" x2="499.5" y2="9.5" stroke="#718096" stroke-linecap="round"/>
</svg>
