<svg width="310" height="235" viewBox="0 0 310 235" fill="none" xmlns="http://www.w3.org/2000/svg">
<path d="M170.07 234.502C180.085 234.502 188.205 226.371 188.205 216.342C188.205 206.312 180.085 198.182 170.07 198.182C160.054 198.182 151.935 206.312 151.935 216.342C151.935 226.371 160.054 234.502 170.07 234.502Z" fill="#285E61"/>
<path d="M168.127 26.8467C139.785 27.0472 116.579 50.1113 116.176 78.491C116.172 78.753 116.171 80.5953 116.171 83.005C116.171 86.5381 117.573 89.9265 120.067 92.4249C122.562 94.9232 125.946 96.327 129.474 96.3274H129.474C131.223 96.327 132.955 95.9815 134.57 95.3107C136.186 94.6398 137.654 93.6568 138.89 92.4177C140.126 91.1786 141.106 89.7077 141.774 88.0891C142.442 86.4705 142.785 84.736 142.784 82.9846C142.782 81.3454 142.782 80.2109 142.782 80.1412C142.781 75.7552 143.92 71.4445 146.087 67.6331C148.255 63.8217 151.376 60.6409 155.143 58.4037C158.91 56.1665 163.194 54.9498 167.573 54.8735C171.953 54.7971 176.276 55.8636 180.119 57.9681C183.962 60.0726 187.191 63.1426 189.49 66.8761C191.789 70.6096 193.077 74.878 193.229 79.2615C193.38 83.6449 192.39 87.9923 190.355 91.8761C188.32 95.7599 185.31 99.0463 181.622 101.412L181.626 101.418C181.626 101.418 162.692 113.624 156.919 130.369L156.924 130.37C155.909 133.801 155.395 137.36 155.397 140.938C155.397 142.409 155.483 155.277 155.65 165.722C155.709 169.325 157.18 172.762 159.745 175.289C162.311 177.817 165.767 179.233 169.366 179.232H169.366C171.174 179.232 172.965 178.874 174.635 178.178C176.305 177.482 177.82 176.463 179.095 175.178C180.37 173.894 181.379 172.37 182.063 170.693C182.747 169.017 183.094 167.221 183.083 165.41C183.025 155.845 182.993 144.707 182.993 143.899C182.993 133.617 192.899 123.372 201.035 116.691C210.404 108.998 217.147 98.5144 219.855 86.6882C220.454 84.2533 220.784 81.76 220.84 79.253C220.84 72.3389 219.474 65.4931 216.82 59.11C214.166 52.727 210.277 46.9329 205.378 42.0616C200.478 37.1902 194.664 33.338 188.271 30.7267C181.878 28.1154 175.032 26.7968 168.127 26.8467Z" fill="#234E52"/>
<path d="M247.756 107.775C254.288 107.775 259.583 102.472 259.583 95.931C259.583 89.39 254.288 84.0875 247.756 84.0875C241.224 84.0875 235.929 89.39 235.929 95.931C235.929 102.472 241.224 107.775 247.756 107.775Z" fill="#234E52"/>
<path d="M225.901 229.815H221.068L218.769 211.147H225.902L225.901 229.815Z" fill="#FED7D7"/>
<path d="M217.616 228.432H226.937V234.309H211.747C211.747 233.538 211.899 232.773 212.193 232.06C212.488 231.347 212.921 230.699 213.466 230.154C214.011 229.608 214.658 229.175 215.37 228.88C216.082 228.584 216.845 228.432 217.616 228.432Z" fill="#234E52"/>
<path d="M263.353 229.815H258.52L256.221 211.147H263.354L263.353 229.815Z" fill="#FED7D7"/>
<path d="M255.068 228.432H264.389V234.309H249.199C249.199 233.538 249.351 232.773 249.646 232.06C249.941 231.347 250.373 230.699 250.918 230.154C251.463 229.608 252.11 229.175 252.822 228.88C253.534 228.584 254.297 228.432 255.068 228.432Z" fill="#234E52"/>
<path d="M245.959 107.844C251.306 107.844 255.642 103.503 255.642 98.1474C255.642 92.7923 251.306 88.4511 245.959 88.4511C240.611 88.4511 236.276 92.7923 236.276 98.1474C236.276 103.503 240.611 107.844 245.959 107.844Z" fill="#FED7D7"/>
<path d="M251.73 139.124L256.063 129.156C257.115 126.818 257.416 124.21 256.926 121.692C256.435 119.175 255.176 116.872 253.323 115.102C252.942 114.725 252.538 114.373 252.112 114.048C249.975 112.373 247.34 111.46 244.626 111.454C242.801 111.461 240.999 111.862 239.343 112.63C239.201 112.694 239.063 112.761 238.921 112.828C238.649 112.958 238.381 113.1 238.121 113.246C236.424 114.222 234.979 115.584 233.904 117.221C232.829 118.859 232.153 120.727 231.931 122.674L230.019 138.718C229.539 139.977 212.381 185.456 218.382 220.178C218.446 220.548 218.626 220.889 218.897 221.15C219.168 221.41 219.515 221.577 219.888 221.626L225.971 222.455C226.415 222.516 226.866 222.406 227.232 222.148C227.599 221.889 227.854 221.501 227.946 221.062L238.153 172.342C238.216 172.039 238.379 171.766 238.616 171.567C238.852 171.368 239.149 171.254 239.457 171.244C239.766 171.234 240.069 171.327 240.319 171.51C240.568 171.692 240.749 171.953 240.833 172.251L255.254 223.486C255.357 223.858 255.579 224.186 255.886 224.42C256.193 224.654 256.568 224.781 256.954 224.781C257.069 224.78 257.183 224.769 257.297 224.749L264.728 223.316C265.16 223.235 265.546 222.996 265.811 222.644C266.076 222.293 266.2 221.855 266.159 221.417C265.067 209.222 259.264 148.137 251.73 139.124Z" fill="#4A5568"/>
<path d="M208.329 106.217C208.262 106.793 208.322 107.377 208.504 107.928C208.687 108.479 208.988 108.983 209.386 109.405C209.784 109.826 210.27 110.155 210.809 110.369C211.348 110.582 211.927 110.675 212.506 110.64L217.918 123.664L222.012 117.587L216.245 106.15C216.122 105.181 215.648 104.29 214.913 103.648C214.178 103.005 213.233 102.654 212.257 102.663C211.282 102.671 210.343 103.037 209.619 103.692C208.895 104.347 208.436 105.245 208.329 106.217L208.329 106.217Z" fill="#FED7D7"/>
<path d="M245.422 152.239C245.997 152.17 246.551 151.976 247.043 151.67C247.535 151.364 247.955 150.953 248.271 150.467C248.588 149.981 248.795 149.431 248.876 148.857C248.958 148.282 248.913 147.697 248.744 147.141L260.131 138.836L253.276 136.265L243.513 144.546C242.6 144.892 241.846 145.561 241.393 146.426C240.94 147.292 240.82 148.294 241.055 149.242C241.29 150.19 241.865 151.019 242.67 151.571C243.475 152.124 244.454 152.362 245.422 152.239Z" fill="#FED7D7"/>
<path d="M226.858 132.348C226.421 132.348 225.986 132.305 225.558 132.22C224.522 132.022 223.551 131.573 222.729 130.911C221.908 130.249 221.262 129.394 220.848 128.423L213.265 119.164C213.104 118.969 212.988 118.741 212.923 118.496C212.857 118.252 212.845 117.996 212.886 117.746C212.928 117.496 213.022 117.258 213.163 117.048C213.304 116.838 213.488 116.66 213.703 116.527L219.098 113.183C219.297 113.059 219.518 112.977 219.75 112.939C219.981 112.902 220.217 112.911 220.445 112.966C220.673 113.02 220.888 113.12 221.077 113.258C221.266 113.396 221.426 113.571 221.548 113.771L226.892 122.588L237.127 115.014C237.942 114.586 238.884 114.466 239.779 114.676C240.675 114.885 241.466 115.411 242.007 116.156C242.548 116.902 242.803 117.817 242.726 118.735C242.648 119.653 242.244 120.513 241.586 121.157L231.371 130.489C230.17 131.68 228.548 132.348 226.858 132.348Z" fill="#4A5568"/>
<path d="M254.514 146.273C254.5 146.273 254.486 146.273 254.472 146.273C254.223 146.267 253.978 146.208 253.754 146.101C253.529 145.995 253.329 145.842 253.167 145.653L248.37 140.049C248.207 139.858 248.086 139.635 248.015 139.394C247.944 139.153 247.926 138.899 247.96 138.65C247.994 138.401 248.081 138.163 248.214 137.95C248.347 137.737 248.524 137.554 248.733 137.415L257.715 131.419L249.578 121.624C249.105 120.833 248.931 119.899 249.089 118.991C249.247 118.084 249.725 117.263 250.438 116.679C251.15 116.096 252.048 115.788 252.967 115.813C253.887 115.838 254.767 116.193 255.447 116.814L265.336 126.491C266.114 127.203 266.708 128.094 267.067 129.086C267.426 130.079 267.539 131.144 267.397 132.19C267.254 133.236 266.861 134.231 266.249 135.091C265.638 135.951 264.827 136.65 263.887 137.127L255.805 145.715C255.639 145.891 255.439 146.031 255.217 146.127C254.995 146.223 254.755 146.273 254.514 146.273Z" fill="#4A5568"/>
<path d="M243.497 125.626C243.42 125.626 243.343 125.621 243.267 125.611C242.933 125.571 242.617 125.435 242.358 125.22C242.099 125.006 241.906 124.721 241.804 124.4L238.2 113.334C238.109 113.055 238.123 112.752 238.239 112.481C238.354 112.211 238.563 111.992 238.828 111.864L238.945 111.809C239.051 111.758 239.156 111.708 239.263 111.66C240.944 110.88 242.773 110.473 244.626 110.467C247.031 110.471 249.382 111.179 251.392 112.503C251.661 112.682 251.849 112.961 251.916 113.278C251.982 113.595 251.921 113.925 251.747 114.198L244.986 124.805C244.827 125.057 244.607 125.264 244.347 125.408C244.087 125.552 243.794 125.627 243.497 125.626Z" fill="#EDF2F7"/>
<path d="M257.081 90.6437C259.218 90.6437 260.951 88.9085 260.951 86.7682C260.951 84.6278 259.218 82.8927 257.081 82.8927C254.943 82.8927 253.211 84.6278 253.211 86.7682C253.211 88.9085 254.943 90.6437 257.081 90.6437Z" fill="#234E52"/>
<path d="M243.814 82.5083C241.095 82.5083 238.488 83.5898 236.566 85.5147C234.644 87.4396 233.564 90.0504 233.564 92.7727V97.1154H238.897L241.448 92.7727L242.214 97.1154H258.4L254.064 92.7727C254.064 90.0504 252.984 87.4396 251.062 85.5147C249.139 83.5898 246.532 82.5083 243.814 82.5083Z" fill="#234E52"/>
<path d="M259.07 84.1135C259.498 82.7735 260.384 81.6274 261.572 80.8768C262.76 80.1261 264.175 79.8191 265.567 80.0095C268.033 80.4224 269.983 82.4077 271.145 84.625C272.307 86.8423 272.844 89.3239 273.625 91.7027C274.406 94.0814 275.514 96.4731 277.485 98.0129C279.457 99.5527 282.483 99.9704 284.42 98.3864C284.199 100.037 283.465 101.577 282.322 102.787C281.179 103.997 279.685 104.817 278.052 105.13C276.418 105.444 274.728 105.235 273.219 104.534C271.71 103.832 270.46 102.673 269.645 101.221C268.623 99.4008 268.359 97.2669 268.056 95.2006C267.753 93.1342 267.36 90.9962 266.14 89.3023C264.92 87.6084 262.636 86.5021 260.698 87.2737L259.07 84.1135Z" fill="#234E52"/>
<path d="M133.23 90.026C129.702 90.0256 126.318 88.6218 123.824 86.1235C121.329 83.6251 119.927 80.2367 119.927 76.7036C119.927 74.2939 119.929 72.4516 119.932 72.1896C120.044 63.936 122.12 55.8281 125.987 48.5385C119.634 57.2486 116.14 67.7207 115.99 78.5061C115.986 78.7681 115.984 80.6105 115.985 83.0202C115.985 86.5533 117.386 89.9417 119.881 92.44C122.376 94.9384 125.76 96.3422 129.288 96.3426C132.187 96.3415 135.007 95.3927 137.318 93.6406C139.63 91.8884 141.307 89.4285 142.096 86.6346C139.66 88.822 136.502 90.03 133.23 90.026Z" fill="#319795"/>
<path d="M169.029 54.9182C173.108 55.1132 177.078 56.2967 180.6 58.367C184.121 60.4372 187.089 63.3324 189.246 66.8039C191.404 70.2754 192.689 74.2196 192.989 78.2976C193.29 82.3757 192.598 86.4659 190.972 90.217C193.323 87.4514 195.052 84.2106 196.039 80.7154C197.027 77.2202 197.25 73.5529 196.694 69.9636C196.137 66.3742 194.815 62.9471 192.816 59.9159C190.817 56.8848 188.19 54.3209 185.112 52.3989C182.034 50.477 178.578 49.2423 174.98 48.779C171.383 48.3156 167.728 48.6346 164.264 49.714C160.801 50.7935 157.611 52.6081 154.911 55.0342C152.211 57.4602 150.066 60.4407 148.621 63.7723C151.118 60.8301 154.257 58.5017 157.796 56.9665C161.334 55.4314 165.177 54.7306 169.029 54.9182Z" fill="#319795"/>
<path d="M173.122 172.931C169.523 172.932 166.067 171.515 163.502 168.988C160.936 166.46 159.465 163.024 159.406 159.42C159.24 148.976 159.153 136.107 159.153 134.637C159.151 131.059 159.665 127.499 160.68 124.069L160.675 124.068C161.275 122.346 161.999 120.67 162.841 119.054C160.255 122.506 158.196 126.325 156.733 130.384L156.738 130.386C155.723 133.816 155.209 137.375 155.211 140.953C155.211 142.424 155.297 155.292 155.464 165.737C155.523 169.341 156.993 172.777 159.559 175.304C162.125 177.832 165.58 179.248 169.18 179.247C172.147 179.247 175.035 178.283 177.409 176.5C179.783 174.717 181.516 172.211 182.348 169.359C179.826 171.661 176.535 172.936 173.122 172.931Z" fill="#319795"/>
<path d="M49.8868 229.995L54.7197 229.995L57.0193 211.327L49.8856 211.327L49.8868 229.995Z" fill="#FED7D7"/>
<path d="M64.0413 234.489L48.8511 234.49L48.8509 228.613L58.1721 228.612C59.7286 228.612 61.2214 229.231 62.3221 230.333C63.4228 231.436 64.0412 232.93 64.0413 234.489L64.0413 234.489Z" fill="#234E52"/>
<path d="M32.5405 229.995L37.3734 229.995L39.673 211.327L32.5393 211.327L32.5405 229.995Z" fill="#FED7D7"/>
<path d="M46.6949 234.489L31.5048 234.49L31.5046 228.613L40.8258 228.612C42.3823 228.612 43.8751 229.231 44.9758 230.333C46.0765 231.436 46.6949 232.93 46.6949 234.489L46.6949 234.489Z" fill="#234E52"/>
<path d="M36.764 224.254L32.0431 224.005C31.7997 223.992 31.5612 223.931 31.3415 223.826C31.1218 223.72 30.9252 223.571 30.7632 223.389C30.6012 223.207 30.4769 222.994 30.3976 222.763C30.3183 222.532 30.2855 222.288 30.3012 222.044L35.9437 159.484L61.9281 166.506L64.4316 165.822L56.6027 221.204C56.536 221.621 56.3294 222.002 56.0171 222.285C55.7047 222.569 55.3052 222.737 54.8846 222.762L49.7955 222.999C49.541 223.013 49.2864 222.974 49.0477 222.885C48.809 222.795 48.5914 222.657 48.4087 222.479C48.2259 222.302 48.0821 222.088 47.9861 221.851C47.8902 221.615 47.8443 221.361 47.8513 221.106L48.7734 187.866C48.7777 187.713 48.7244 187.563 48.6239 187.447C48.5235 187.33 48.3832 187.256 48.2306 187.238C48.0781 187.22 47.9245 187.26 47.8 187.35C47.6754 187.44 47.5891 187.574 47.5579 187.724L38.6652 222.786C38.5813 223.202 38.3558 223.576 38.0274 223.844C37.6989 224.112 37.2877 224.258 36.8639 224.257C36.8308 224.257 36.7975 224.256 36.764 224.254Z" fill="#4A5568"/>
<path d="M50.7546 108.297C56.1022 108.297 60.4374 103.956 60.4374 98.6009C60.4374 93.2458 56.1022 88.9046 50.7546 88.9046C45.4069 88.9046 41.0718 93.2458 41.0718 98.6009C41.0718 103.956 45.4069 108.297 50.7546 108.297Z" fill="#FED7D7"/>
<path d="M34.6333 127.088L35.698 150.091L36.0828 158.46C36.0982 158.824 36.2217 159.176 36.4376 159.469C36.6535 159.763 36.952 159.986 37.2948 160.108L62.2641 169.166C62.4658 169.241 62.6795 169.279 62.8946 169.277C63.1406 169.278 63.3842 169.23 63.6111 169.134C63.8379 169.039 64.0433 168.899 64.2149 168.723C64.3865 168.546 64.5208 168.337 64.6099 168.107C64.6989 167.878 64.7409 167.633 64.7332 167.387L63.7096 126.026C63.6423 122.633 62.3949 119.369 60.1824 116.798C57.9699 114.227 54.9309 112.509 51.5893 111.941C51.3478 111.904 51.1021 111.868 50.8564 111.835C48.7843 111.577 46.6811 111.777 44.6947 112.421C42.7082 113.065 40.8868 114.137 39.3585 115.562C37.7761 117.019 36.5327 118.807 35.7161 120.799C34.8996 122.791 34.53 124.938 34.6333 127.088L34.6333 127.088Z" fill="#B2F5EA"/>
<path d="M74.1918 164.576C73.6013 164.393 73.0617 164.073 72.6162 163.644C72.1707 163.215 71.8317 162.687 71.626 162.103C71.4204 161.519 71.354 160.895 71.432 160.281C71.51 159.666 71.7303 159.079 72.0753 158.565L63.6079 147.29L70.9147 146.837L77.8353 157.613C78.5762 158.187 79.0917 159.004 79.2915 159.92C79.4913 160.836 79.3626 161.793 78.9279 162.624C78.4932 163.455 77.7804 164.106 76.9144 164.463C76.0484 164.819 75.0845 164.86 74.1918 164.576H74.1918Z" fill="#FED7D7"/>
<path d="M68.2385 156.525C68.0141 156.433 67.8101 156.299 67.6381 156.128C67.4662 155.957 67.3297 155.754 67.2367 155.53L54.4799 125.095C54.2296 124.499 54.0991 123.859 54.0956 123.213C54.0922 122.566 54.2161 121.926 54.4601 121.327C54.7041 120.729 55.0635 120.184 55.5178 119.725C55.972 119.265 56.5122 118.9 57.1075 118.65C57.7028 118.4 58.3414 118.269 58.987 118.267C59.6326 118.264 60.2724 118.388 60.8699 118.633C61.4674 118.878 62.0108 119.238 62.4692 119.693C62.9275 120.149 63.2918 120.69 63.5412 121.286L76.2979 151.722C76.4864 152.173 76.4885 152.681 76.3037 153.134C76.1189 153.587 75.7623 153.948 75.3121 154.138L69.6488 156.518C69.4258 156.612 69.1864 156.661 68.9443 156.663C68.7022 156.664 68.4623 156.617 68.2384 156.525L68.2385 156.525Z" fill="#B2F5EA"/>
<path d="M47.6414 155.451L59.8939 131.958C60.1302 131.506 60.5358 131.166 61.0218 131.014C61.5077 130.861 62.0343 130.908 62.486 131.143L80.2705 140.444C80.7217 140.681 81.0607 141.087 81.2132 141.574C81.3657 142.06 81.3193 142.588 81.084 143.04L68.8315 166.533C68.5952 166.985 68.1896 167.325 67.7037 167.477C67.2177 167.63 66.6911 167.583 66.2394 167.348L48.4549 158.047C48.0037 157.81 47.6647 157.404 47.5122 156.917C47.3597 156.431 47.4062 155.903 47.6414 155.451Z" fill="#2D3748"/>
<path d="M55.8584 144.718C55.6406 144.138 55.2905 143.617 54.8361 143.198C54.3818 142.778 53.8356 142.47 53.2413 142.299C52.6471 142.128 52.0211 142.098 51.4133 142.212C50.8056 142.327 50.233 142.581 49.7411 142.957L38.0014 135.158L37.9814 142.489L49.1327 148.771C49.7483 149.478 50.5927 149.945 51.5178 150.09C52.4429 150.236 53.3897 150.051 54.1921 149.567C54.9945 149.084 55.6013 148.333 55.906 147.446C56.2107 146.559 56.1938 145.593 55.8584 144.718Z" fill="#FED7D7"/>
<path d="M41.0155 146.366L31.4211 138.756C30.3832 138.407 29.4453 137.811 28.6881 137.019C27.9308 136.227 27.3767 135.263 27.0734 134.209C26.7701 133.156 26.7266 132.044 26.9467 130.97C27.1667 129.896 27.6438 128.892 28.3369 128.043L37.0483 116.61C37.6537 115.869 38.5051 115.372 39.4468 115.208C40.3886 115.044 41.3578 115.225 42.1773 115.717C42.9969 116.21 43.612 116.982 43.9102 117.891C44.2084 118.801 44.1697 119.787 43.8014 120.67L36.9087 131.961L47.0381 136.772C47.2737 136.884 47.4828 137.045 47.6518 137.244C47.8207 137.443 47.9456 137.675 48.0182 137.926C48.0908 138.176 48.1095 138.44 48.0729 138.698C48.0363 138.957 47.9454 139.205 47.8061 139.425L43.7172 145.905C43.579 146.124 43.3965 146.311 43.1814 146.455C42.9664 146.598 42.7236 146.695 42.4688 146.739C42.4587 146.74 42.4485 146.742 42.4383 146.744C42.188 146.781 41.9326 146.767 41.6879 146.703C41.4431 146.638 41.2143 146.523 41.0155 146.366Z" fill="#B2F5EA"/>
<path d="M43.4379 105.094C43.3964 104.972 43.3832 104.842 43.3994 104.715C43.4156 104.587 43.4608 104.465 43.5314 104.358C43.6021 104.25 43.6963 104.16 43.807 104.095C43.9176 104.03 44.0417 103.991 44.1698 103.981C44.432 103.995 44.6887 104.062 44.9242 104.179C45.1598 104.295 45.3693 104.458 45.5402 104.658C45.8906 105.062 46.2986 105.413 46.7509 105.699C47.2193 105.935 47.8546 105.902 48.1216 105.451C48.3724 105.028 48.2006 104.461 48.0488 103.969C47.6625 102.718 47.4464 101.421 47.4062 100.112C47.3625 98.6512 47.5683 97.1266 48.3759 95.9873C49.4182 94.5168 51.282 93.9585 53.0458 93.999C54.8096 94.0395 56.5448 94.5847 58.2919 94.9294C58.8951 95.0484 59.604 95.1092 60.0074 94.6411C60.4364 94.1434 60.2789 93.3378 60.0964 92.6657C59.6229 90.9218 59.1207 89.1187 58.0207 87.7103C56.8313 86.2468 55.1323 85.2889 53.2659 85.0296C51.474 84.8073 49.655 85.0141 47.9585 85.633C45.1945 86.5054 42.7624 88.2021 40.9873 90.4962C39.1576 92.9359 38.3669 96.0018 38.7883 99.0236C39.1999 101.655 40.5926 104.033 42.6856 105.678L43.4379 105.094Z" fill="#234E52"/>
<path d="M166.074 230.072C163.498 228.949 161.218 227.241 159.414 225.084C157.61 222.927 156.331 220.379 155.678 217.642C155.026 214.906 155.017 212.054 155.653 209.314C156.29 206.573 157.553 204.018 159.345 201.85C157.268 203.368 155.537 205.312 154.268 207.551C152.998 209.791 152.219 212.275 151.982 214.839C151.744 217.403 152.054 219.989 152.891 222.424C153.727 224.859 155.072 227.088 156.834 228.963C158.597 230.838 160.738 232.316 163.114 233.299C165.491 234.282 168.049 234.748 170.62 234.665C173.19 234.583 175.713 233.953 178.022 232.82C180.331 231.686 182.373 230.073 184.011 228.089C181.455 229.96 178.454 231.127 175.307 231.475C172.16 231.823 168.977 231.34 166.074 230.072Z" fill="#319795"/>
</svg>
