<svg width="24" height="24" viewBox="0 0 24 24" fill="none" xmlns="http://www.w3.org/2000/svg">
<path d="M19.3202 10.1474C19.0387 9.98789 18.6811 10.0868 18.5216 10.3684C18.3621 10.65 18.4611 11.0075 18.7426 11.167C20.0876 11.9289 20.8283 12.849 20.8283 13.7578C20.8283 15.8353 17.4466 17.1159 15.3995 17.5302C15.0823 17.5945 14.8773 17.9036 14.9414 18.2208C15.0057 18.5381 15.3151 18.7431 15.632 18.6788C18.3681 18.1251 22.0002 16.5448 22.0002 13.7578C22.0002 12.4086 21.0484 11.1264 19.3202 10.1474Z" fill="#2D3748"/>
<path d="M9.07031 18.8051V20.7891C9.07031 21.0052 9.18926 21.2038 9.37977 21.3057C9.56984 21.4074 9.80102 21.3968 9.98125 21.2767L13.4969 18.9329C13.6599 18.8242 13.7578 18.6413 13.7578 18.4454C13.7578 18.2495 13.6599 18.0665 13.4969 17.9578L9.98125 15.6141C9.80145 15.4942 9.57027 15.483 9.37977 15.585C9.18926 15.687 9.07031 15.8855 9.07031 16.1016V17.6176C6.88316 17.2442 3.17188 15.9645 3.17188 13.7579C3.17188 12.8491 3.91258 11.9291 5.25758 11.1671C5.53914 11.0076 5.63809 10.6501 5.47859 10.3685C5.3191 10.0869 4.96152 9.98803 4.67996 10.1475C2.95176 11.1265 2 12.4087 2 13.7579C2 16.757 6.12137 18.336 9.07031 18.8051ZM10.2422 17.1965L12.1155 18.4454L10.2422 19.6943V17.1965Z" fill="#2D3748"/>
<path d="M6.72656 11.4141C6.72656 11.636 6.85195 11.8389 7.05047 11.9382L11.738 14.2819C11.8189 14.3227 11.9132 14.3437 11.9998 14.3438H12.0002C12.0873 14.3437 12.177 14.324 12.262 14.2819L16.9495 11.9382C17.148 11.8389 17.2734 11.636 17.2734 11.4141V5.5547C17.2734 5.33294 17.1461 5.12767 16.9495 5.0306L12.262 2.68685C12.0971 2.60438 11.9029 2.60438 11.738 2.68685L7.05047 5.0306C6.85145 5.13013 6.72656 5.33493 6.72656 5.5547V11.4141ZM7.89844 6.50278L11.4141 8.2606V12.8098L7.89844 11.052V6.50278ZM16.1016 11.0519L12.5859 12.8097V8.2606L16.1016 6.50278V11.0519ZM12 3.86606L15.3773 5.5547L12 7.24333L8.6227 5.5547L12 3.86606Z" fill="#2D3748"/>
</svg>
