<svg width="24" height="24" viewBox="0 0 24 24" fill="none" xmlns="http://www.w3.org/2000/svg">
<g clip-path="url(#clip0)">
<path d="M19.4803 4.36853H4.51973C3.13031 4.36853 2 5.49888 2 6.88826V12.5576C2 13.947 3.13031 15.0774 4.51973 15.0774H19.4803C20.8697 15.0774 22 13.947 22 12.5576V6.88826C22 5.49888 20.8697 4.36853 19.4803 4.36853ZM17.5511 13.8962H6.44887V13.7189C6.44887 12.9917 7.04043 12.4001 7.76766 12.4001H16.2323C16.9595 12.4001 17.5511 12.9918 17.5511 13.7189V13.8962H17.5511ZM20.8189 12.5576C20.8189 13.2958 20.2184 13.8962 19.4803 13.8962H18.7322V13.7189C18.7322 12.3405 17.6108 11.219 16.2323 11.219H7.76766C6.38918 11.219 5.26773 12.3405 5.26773 13.7189V13.8962H4.51969C3.78156 13.8962 3.18109 13.2958 3.18109 12.5576V6.88826C3.18109 6.15013 3.78156 5.54966 4.51969 5.54966H19.4803C20.2184 5.54966 20.8189 6.15013 20.8189 6.88826V12.5576Z" fill="black"/>
<path d="M18.7714 6.61279H18.0183C17.6921 6.61279 17.4277 6.87721 17.4277 7.20334C17.4277 7.52948 17.6921 7.79389 18.0183 7.79389H18.7714C19.0976 7.79389 19.362 7.52948 19.362 7.20334C19.362 6.87721 19.0976 6.61279 18.7714 6.61279Z" fill="black"/>
<path d="M15.937 6.61279H15.1838C14.8577 6.61279 14.5933 6.87721 14.5933 7.20334C14.5933 7.52948 14.8577 7.79389 15.1838 7.79389H15.937C16.2631 7.79389 16.5275 7.52948 16.5275 7.20334C16.5275 6.87721 16.2631 6.61279 15.937 6.61279Z" fill="black"/>
<path d="M12.0002 15.6738C11.6741 15.6738 11.4097 15.9382 11.4097 16.2644V19.0409C11.4097 19.367 11.6741 19.6314 12.0002 19.6314C12.3263 19.6314 12.5907 19.367 12.5907 19.0409V16.2644C12.5907 15.9382 12.3263 15.6738 12.0002 15.6738Z" fill="black"/>
<path d="M15.4248 18.4503C14.8766 18.4503 14.4306 18.0043 14.4306 17.4561V16.2644C14.4306 15.9382 14.1662 15.6738 13.8401 15.6738C13.5139 15.6738 13.2495 15.9382 13.2495 16.2644V17.4561C13.2495 18.6556 14.2254 19.6314 15.4249 19.6314C15.751 19.6314 16.0154 19.367 16.0154 19.0409C16.0154 18.7147 15.751 18.4503 15.4248 18.4503Z" fill="black"/>
<path d="M10.1597 15.6738C9.83355 15.6738 9.56914 15.9382 9.56914 16.2644V17.4561C9.56914 18.0043 9.12316 18.4503 8.57492 18.4503C8.24879 18.4503 7.98438 18.7147 7.98438 19.0409C7.98438 19.367 8.24879 19.6314 8.57492 19.6314C9.77441 19.6314 10.7503 18.6555 10.7503 17.4561V16.2643C10.7503 15.9382 10.4859 15.6738 10.1597 15.6738Z" fill="black"/>
</g>
<defs>
<clipPath id="clip0">
<rect width="20" height="20" fill="white" transform="translate(2 2)"/>
</clipPath>
</defs>
</svg>
