<svg width="20" height="20" viewBox="0 0 20 20" fill="none" xmlns="http://www.w3.org/2000/svg">
<g clip-path="url(#clip0_501:8675)">
<path d="M10.7812 9.96875H9.21875C9.1713 9.96875 9.13281 9.93026 9.13281 9.88281C9.13281 9.83536 9.1713 9.79688 9.21875 9.79688H10.7812C10.8287 9.79688 10.8672 9.83536 10.8672 9.88281C10.8672 9.93026 10.8287 9.96875 10.7812 9.96875Z" fill="black" stroke="black"/>
<path d="M9.21875 15.3125H10.7812C11.1048 15.3125 11.3672 15.0502 11.3672 14.7266C11.3672 14.403 11.1048 14.1406 10.7812 14.1406H9.21875C8.89516 14.1406 8.63281 14.403 8.63281 14.7266C8.63281 15.0502 8.89516 15.3125 9.21875 15.3125Z" fill="black"/>
<path d="M4.53125 10.4688H6.09375C6.41734 10.4688 6.67969 10.2064 6.67969 9.88281C6.67969 9.55922 6.41734 9.29688 6.09375 9.29688H4.53125C4.20766 9.29688 3.94531 9.55922 3.94531 9.88281C3.94531 10.2064 4.20766 10.4688 4.53125 10.4688Z" fill="black"/>
<path d="M4.53125 15.3125H6.09375C6.41734 15.3125 6.67969 15.0502 6.67969 14.7266C6.67969 14.403 6.41734 14.1406 6.09375 14.1406H4.53125C4.20766 14.1406 3.94531 14.403 3.94531 14.7266C3.94531 15.0502 4.20766 15.3125 4.53125 15.3125Z" fill="black"/>
<path d="M13.9062 10.4688H15.4688C15.7923 10.4688 16.0547 10.2064 16.0547 9.88281C16.0547 9.55922 15.7923 9.29688 15.4688 9.29688H13.9062C13.5827 9.29688 13.3203 9.55922 13.3203 9.88281C13.3203 10.2064 13.5827 10.4688 13.9062 10.4688Z" fill="black"/>
<path d="M13.9062 15.3125H15.4688C15.7923 15.3125 16.0547 15.0502 16.0547 14.7266C16.0547 14.403 15.7923 14.1406 15.4688 14.1406H13.9062C13.5827 14.1406 13.3203 14.403 13.3203 14.7266C13.3203 15.0502 13.5827 15.3125 13.9062 15.3125Z" fill="black"/>
<path d="M9.21875 5.9375H10.7812C11.1048 5.9375 11.3672 5.67516 11.3672 5.35156C11.3672 5.02797 11.1048 4.76562 10.7812 4.76562H9.21875C8.89516 4.76562 8.63281 5.02797 8.63281 5.35156C8.63281 5.67516 8.89516 5.9375 9.21875 5.9375Z" fill="black"/>
<path d="M4.53125 5.9375H6.09375C6.41734 5.9375 6.67969 5.67516 6.67969 5.35156C6.67969 5.02797 6.41734 4.76562 6.09375 4.76562H4.53125C4.20766 4.76562 3.94531 5.02797 3.94531 5.35156C3.94531 5.67516 4.20766 5.9375 4.53125 5.9375Z" fill="black"/>
<path d="M13.9062 5.9375H15.4688C15.7923 5.9375 16.0547 5.67516 16.0547 5.35156C16.0547 5.02797 15.7923 4.76562 15.4688 4.76562H13.9062C13.5827 4.76562 13.3203 5.02797 13.3203 5.35156C13.3203 5.67516 13.5827 5.9375 13.9062 5.9375Z" fill="black"/>
<path d="M20 0C20 0 0.909542 0 0.585948 0C0.262355 0 1.08654e-05 2.00669e-05 1.08654e-05 2.00669e-05C1.08654e-05 2.00669e-05 1.08654e-05 2.60609 1.08654e-05 2.92969C1.08654e-05 3.25328 0 3.51562 0 3.51562H1.21095L1.25 20C1.25 20 1.47329 20 1.79689 20H18.7891C18.7891 20 18.7891 19.7377 18.7891 19.4141V3.51562H20C20 3.51562 20 3.25328 20 2.92969V0.585938C20 0.262344 20 0 20 0ZM5.89845 18.8281H4.72657V17.6562H5.89845V18.8281ZM10.5859 18.8281H9.41407V17.6562H10.5859V18.8281ZM15.2734 18.8281H14.1016V17.6562H15.2734V18.8281ZM17.6172 18.8281H16.4453V17.0703C16.4453 16.7467 16.4453 16.4844 16.4453 16.4844H12.9297C12.9297 16.4844 12.9297 16.7467 12.9297 17.0703V18.8281H11.7578V17.0703C11.7578 16.7467 11.7578 16.4844 11.7578 16.4844H8.2422C8.2422 16.4844 8.2422 16.7467 8.2422 17.0703V18.8281H7.07032V17.0703C7.07032 16.7467 7.07032 16.4844 7.07032 16.4844H3.5547C3.5547 16.4844 3.5547 16.7467 3.5547 17.0703C3.5547 17.3939 3.5547 18.8281 3.5547 18.8281H2.38282V3.51562H17.6172V18.8281ZM18.8281 2.34375H1.17189V1.17188H18.8281V2.34375Z" fill="black"/>
</g>
<defs>
<clipPath id="clip0_501:8675">
<rect width="20" height="20" fill="white"/>
</clipPath>
</defs>
</svg>
