<svg width="24" height="24" viewBox="0 0 24 24" fill="none" xmlns="http://www.w3.org/2000/svg">
<path d="M12.65 3.66675H11.55C11.246 3.66675 11 3.9284 11 4.25175C11 4.5751 11.246 4.83675 11.55 4.83675H12.65C12.954 4.83675 13.2 4.5751 13.2 4.25175C13.1999 3.9284 12.954 3.66675 12.65 3.66675Z" fill="black"/>
<path d="M10.515 20.47H13.605C13.8897 20.47 14.12 20.2084 14.12 19.885C14.12 19.5617 13.8897 19.3 13.605 19.3H10.515C10.2303 19.3 10 19.5617 10 19.8851C10 20.2084 10.2303 20.47 10.515 20.47Z" fill="black"/>
<path d="M16.355 4.83663C16.6781 4.83663 16.94 4.57471 16.94 4.25163C16.94 3.92854 16.6781 3.66663 16.355 3.66663C16.0319 3.66663 15.77 3.92854 15.77 4.25163C15.77 4.57471 16.0319 4.83663 16.355 4.83663Z" fill="black"/>
<path d="M17.0002 2.30005H7.00018C6.08139 2.30005 5.3335 3.02882 5.3335 3.92506V20.1751C5.3335 21.0713 6.08139 21.8 7.00018 21.8H17.0002C17.919 21.8 18.6669 21.0713 18.6669 20.175V3.92506C18.6669 3.02882 17.919 2.30005 17.0002 2.30005ZM17.8335 20.175C17.8335 20.6229 17.4599 20.9875 17.0002 20.9875H7.00018C6.54037 20.9875 6.16686 20.6229 6.16686 20.175V18.55H17.8335V20.175H17.8335ZM17.8335 17.7375H6.16686V3.92506C6.16686 3.47717 6.54041 3.11257 7.00018 3.11257H17.0002C17.46 3.11257 17.8335 3.47717 17.8335 3.92506V17.7375Z" fill="black" stroke="black" stroke-width="0.2"/>
<path d="M10.7502 7H8.25018C8.01986 7 7.8335 7.18637 7.8335 7.41668V9.91668C7.8335 10.147 8.01986 10.3334 8.25018 10.3334H10.7502C10.9805 10.3334 11.1669 10.147 11.1669 9.91668V7.41668C11.1669 7.18637 10.9805 7 10.7502 7ZM10.3335 9.5H8.66682V7.83332H10.3335V9.5Z" fill="black"/>
<path d="M15.7502 7H13.2502C13.0199 7 12.8335 7.18637 12.8335 7.41668V9.91668C12.8335 10.147 13.0199 10.3334 13.2502 10.3334H15.7502C15.9805 10.3334 16.1669 10.147 16.1669 9.91668V7.41668C16.1669 7.18637 15.9805 7 15.7502 7ZM15.3335 9.5H13.6668V7.83332H15.3335V9.5Z" fill="black"/>
<path d="M10.7502 12H8.25018C8.01986 12 7.8335 12.1864 7.8335 12.4167V14.9167C7.8335 15.147 8.01986 15.3334 8.25018 15.3334H10.7502C10.9805 15.3334 11.1669 15.147 11.1669 14.9167V12.4167C11.1669 12.1864 10.9805 12 10.7502 12ZM10.3335 14.5H8.66682V12.8333H10.3335V14.5Z" fill="black"/>
<path d="M15.7502 12H13.2502C13.0199 12 12.8335 12.1864 12.8335 12.4167V14.9167C12.8335 15.147 13.0199 15.3334 13.2502 15.3334H15.7502C15.9805 15.3334 16.1669 15.147 16.1669 14.9167V12.4167C16.1669 12.1864 15.9805 12 15.7502 12ZM15.3335 14.5H13.6668V12.8333H15.3335V14.5Z" fill="black"/>
</svg>
