<svg width="24" height="24" viewBox="0 0 24 24" fill="none" xmlns="http://www.w3.org/2000/svg">
<path d="M19.9989 8.59062V5.83363C19.9989 3.89902 18.4249 2.32507 16.4903 2.32507H7.50969C5.57508 2.32507 4.00113 3.89902 4.00113 5.83363V8.59062C2.85559 8.86019 2 9.89011 2 11.1167V14.6766C2 17.3137 3.99363 19.4936 6.55281 19.7893V21.0804C6.55281 21.4087 6.81898 21.6749 7.14727 21.6749C7.47559 21.6749 7.74172 21.4087 7.74172 21.0804V19.8238H16.2583V21.0804C16.2583 21.4087 16.5245 21.6749 16.8528 21.6749C17.1811 21.6749 17.4472 21.4087 17.4472 21.0804V19.7893C20.0064 19.4936 22 17.3137 22 14.6766V11.1167C22 9.89011 21.1444 8.86019 19.9989 8.59062ZM5.19008 5.83363C5.19008 4.5546 6.23066 3.51402 7.50969 3.51402H16.4903C17.7693 3.51402 18.8099 4.5546 18.8099 5.83363V8.59062C17.6643 8.86019 16.8088 9.89007 16.8088 11.1167V14.6327H7.19121V11.1167C7.19121 9.89011 6.33563 8.86019 5.19008 8.59062V5.83363ZM20.8111 14.6766C20.8111 16.8592 19.0354 18.6349 16.8528 18.6349H7.14727C4.96465 18.6349 3.18891 16.8592 3.18891 14.6766V11.1167C3.18891 10.341 3.81996 9.71003 4.59559 9.71003C5.37125 9.71003 6.00227 10.3411 6.00227 11.1167V14.6766C6.00227 15.308 6.51586 15.8216 7.14723 15.8216H16.8527C17.4841 15.8216 17.9977 15.308 17.9977 14.6766V11.1167C17.9977 10.341 18.6287 9.71003 19.4043 9.71003C20.18 9.71003 20.811 10.3411 20.811 11.1167V14.6766H20.8111Z" fill="black"/>
<path d="M10.2961 7.06458C9.98519 7.06458 9.6873 7.33797 9.70167 7.65903C9.71609 7.9811 9.96288 8.25348 10.2961 8.25348C10.6071 8.25348 10.905 7.98008 10.8906 7.65903C10.8761 7.33696 10.6294 7.06458 10.2961 7.06458Z" fill="black"/>
<path d="M10.2961 10.1194C9.98519 10.1194 9.6873 10.3928 9.70167 10.7138C9.71609 11.0359 9.96288 11.3083 10.2961 11.3083C10.6071 11.3083 10.905 11.0349 10.8906 10.7138C10.8761 10.3918 10.6294 10.1194 10.2961 10.1194Z" fill="black"/>
<path d="M13.7043 7.06458C13.3934 7.06458 13.0955 7.33797 13.1099 7.65903C13.1243 7.9811 13.3711 8.25348 13.7043 8.25348C14.0153 8.25348 14.3132 7.98008 14.2988 7.65903C14.2844 7.33696 14.0376 7.06458 13.7043 7.06458Z" fill="black"/>
<path d="M13.7043 10.1194C13.3934 10.1194 13.0955 10.3928 13.1099 10.7138C13.1243 11.0359 13.3711 11.3083 13.7043 11.3083C14.0153 11.3083 14.3132 11.0349 14.2988 10.7138C14.2844 10.3918 14.0376 10.1194 13.7043 10.1194Z" fill="black"/>
</svg>
