<svg width="24" height="24" viewBox="0 0 24 24" fill="none" xmlns="http://www.w3.org/2000/svg">
<path d="M9.5 13C10.875 13 12 11.875 12 10.5C12 9.125 10.875 8 9.5 8C8.125 8 7 9.125 7 10.5C7 11.875 8.125 13 9.5 13ZM9.5 9.66667C9.95 9.66667 10.3333 10.05 10.3333 10.5C10.3333 10.95 9.95 11.3333 9.5 11.3333C9.05 11.3333 8.66667 10.95 8.66667 10.5C8.66667 10.05 9.05 9.66667 9.5 9.66667Z" fill="#2D3748"/>
<path d="M20.3333 4H3.66667C2.75 4 2 4.75 2 5.66667V17.3333C2 18.25 2.75 19 3.66667 19H20.3333C21.25 19 21.9917 18.25 21.9917 17.3333L22 5.66667C22 4.75 21.25 4 20.3333 4ZM5.78333 17.3333C6.7 16.3167 8.025 15.6667 9.5 15.6667C10.975 15.6667 12.3 16.3167 13.2167 17.3333H5.78333ZM20.3333 17.3333H15.2667C14.1167 15.3417 11.9667 14 9.5 14C7.03333 14 4.88333 15.3417 3.73333 17.3333H3.66667V5.66667H20.3333V17.3333Z" fill="#2D3748"/>
<path d="M15.5303 10.4333L16.5103 9.86667V11H17.5103V9.86667L18.4903 10.4333L18.9903 9.56667L18.0103 9L18.9903 8.43333L18.4903 7.56667L17.5103 8.13333V7H16.5103V8.13333L15.5303 7.56667L15.0303 8.43333L16.0103 9L15.0303 9.56667L15.5303 10.4333Z" fill="#2D3748"/>
</svg>
