<svg width="24" height="24" viewBox="0 0 24 24" fill="none" xmlns="http://www.w3.org/2000/svg">
<g clip-path="url(#clip0)">
<path d="M8.82111 12.0502V10.8064H8.23518L7.84424 11.4283L8.23518 12.0502H8.82111Z" fill="#A0AEC0"/>
<path d="M8.82111 14.5377V13.2939H8.23518L7.84424 13.9158L8.23518 14.5377H8.82111Z" fill="#A0AEC0"/>
<path d="M8.82111 17.025V15.7813H8.23518L7.84424 16.4032L8.23518 17.025H8.82111Z" fill="#A0AEC0"/>
<path d="M8.82111 19.5125V18.2688H8.23518L7.84424 18.8906L8.23518 19.5125H8.82111Z" fill="#A0AEC0"/>
<path d="M8.82111 21.9999V20.7562H8.23518L7.84424 21.3781L8.23518 21.9999H8.82111Z" fill="#A0AEC0"/>
<path d="M8.23549 2L7.45361 7.82219L9.47822 7.04031V4.48547H19.5147V22H22.0001V2H8.23549Z" fill="#319795"/>
<path d="M8.23542 2H6.99268V7.04031L8.23542 7.82219V2Z" fill="#319795"/>
<path d="M3.84619 10.8067H2.67432V12.0504H3.84619V10.8067Z" fill="#A0AEC0"/>
<path d="M6.3335 10.8067H5.16162V12.0504H6.3335V10.8067Z" fill="#A0AEC0"/>
<path d="M11.3086 10.8067H10.1367V12.0504H11.3086V10.8067Z" fill="#A0AEC0"/>
<path d="M13.7964 10.8067H12.6245V12.0504H13.7964V10.8067Z" fill="#A0AEC0"/>
<path d="M3.84619 13.2937H2.67432V14.5375H3.84619V13.2937Z" fill="#A0AEC0"/>
<path d="M6.3335 13.2937H5.16162V14.5375H6.3335V13.2937Z" fill="#A0AEC0"/>
<path d="M11.3086 13.2937H10.1367V14.5375H11.3086V13.2937Z" fill="#A0AEC0"/>
<path d="M13.7964 13.2937H12.6245V14.5375H13.7964V13.2937Z" fill="#A0AEC0"/>
<path d="M3.84619 15.7812H2.67432V17.0249H3.84619V15.7812Z" fill="#A0AEC0"/>
<path d="M6.3335 15.7812H5.16162V17.0249H6.3335V15.7812Z" fill="#A0AEC0"/>
<path d="M11.3086 15.7812H10.1367V17.0249H11.3086V15.7812Z" fill="#A0AEC0"/>
<path d="M13.7964 15.7812H12.6245V17.0249H13.7964V15.7812Z" fill="#A0AEC0"/>
<path d="M3.84619 18.2688H2.67432V19.5125H3.84619V18.2688Z" fill="#A0AEC0"/>
<path d="M6.3335 18.2688H5.16162V19.5125H6.3335V18.2688Z" fill="#A0AEC0"/>
<path d="M11.3086 18.2688H10.1367V19.5125H11.3086V18.2688Z" fill="#A0AEC0"/>
<path d="M13.7964 18.2688H12.6245V19.5125H13.7964V18.2688Z" fill="#A0AEC0"/>
<path d="M3.84619 20.7562H2.67432V21.9999H3.84619V20.7562Z" fill="#A0AEC0"/>
<path d="M6.3335 20.7562H5.16162V21.9999H6.3335V20.7562Z" fill="#A0AEC0"/>
<path d="M11.3086 20.7562H10.1367V21.9999H11.3086V20.7562Z" fill="#A0AEC0"/>
<path d="M13.7964 20.7562H12.6245V21.9999H13.7964V20.7562Z" fill="#A0AEC0"/>
<path d="M8.23486 13.2937H7.64893V14.5375H8.23486V13.2937Z" fill="#A0AEC0"/>
<path d="M8.23486 15.7812H7.64893V17.0249H8.23486V15.7812Z" fill="#A0AEC0"/>
<path d="M8.23486 18.2688H7.64893V19.5125H8.23486V18.2688Z" fill="#A0AEC0"/>
<path d="M8.23486 20.7562H7.64893V21.9999H8.23486V20.7562Z" fill="#A0AEC0"/>
<path d="M8.23549 9.52779H14.4709V7.04033H8.23549L7.45361 8.28408L8.23549 9.52779Z" fill="#319795"/>
<path d="M8.23516 7.04021H2V9.52771H8.23516V7.04021Z" fill="#319795"/>
<path d="M8.23486 10.8067H7.64893V12.0504H8.23486V10.8067Z" fill="#A0AEC0"/>
</g>
<defs>
<clipPath id="clip0">
<rect width="20" height="20" fill="white" transform="translate(2 2)"/>
</clipPath>
</defs>
</svg>
