<svg width="24" height="24" viewBox="0 0 24 24" fill="none" xmlns="http://www.w3.org/2000/svg">
<path d="M21.7493 13.6377C21.7493 13.308 21.482 13.0406 21.1522 13.0406H19.9573V4.90001C19.9573 3.30094 18.6563 2 17.0572 2C15.4582 2 14.1572 3.30094 14.1572 4.90001V5.98845C14.1572 6.31817 14.4246 6.58552 14.7543 6.58552C15.084 6.58552 15.3514 6.31817 15.3514 5.98845V4.90001C15.3514 3.95938 16.1166 3.19414 17.0572 3.19414C17.9979 3.19414 18.7631 3.95938 18.7631 4.90001V13.0406H2.84756C2.51783 13.0406 2.25049 13.308 2.25049 13.6377C2.25049 16.3324 3.95483 18.6362 6.34206 19.5286C5.88284 20.0114 5.59882 20.6733 5.59882 21.4029C5.59882 21.7327 5.86616 22 6.19589 22C6.52561 22 6.79296 21.7327 6.79296 21.4029C6.79296 20.5877 7.41503 19.9244 8.17972 19.9244C8.20781 19.9244 15.792 19.9244 15.8201 19.9244C16.5848 19.9244 17.2069 20.5877 17.2069 21.4029C17.2069 21.7327 17.4743 22 17.804 22C18.1337 22 18.4011 21.7327 18.4011 21.4029C18.4011 20.6734 18.117 20.0114 17.6578 19.5286C20.045 18.6362 21.7493 16.3324 21.7493 13.6377ZM15.4626 18.7303H8.53722C5.93104 18.7303 3.77588 16.7626 3.47944 14.2348H20.5204C20.224 16.7626 18.0687 18.7303 15.4626 18.7303Z" fill="black"/>
<path d="M14.7543 7.62146C14.4246 7.62146 14.1572 7.8888 14.1572 8.21853V8.73599C14.1572 9.06572 14.4246 9.33306 14.7543 9.33306C15.084 9.33306 15.3514 9.06572 15.3514 8.73599V8.21853C15.3513 7.88877 15.084 7.62146 14.7543 7.62146Z" fill="black"/>
<path d="M14.7543 10.4875C14.4246 10.4875 14.1572 10.7549 14.1572 11.0846V11.6021C14.1572 11.9318 14.4246 12.1992 14.7543 12.1992C15.084 12.1992 15.3514 11.9318 15.3514 11.6021V11.0846C15.3513 10.7549 15.084 10.4875 14.7543 10.4875Z" fill="black"/>
</svg>
