<svg width="24" height="24" viewBox="0 0 24 24" fill="none" xmlns="http://www.w3.org/2000/svg">
<g clip-path="url(#clip0)">
<path d="M20.7543 5.25208H12.0001L11.2183 13.9241L20.7543 12.3014V5.25208Z" fill="#ED8936"/>
<path d="M4.41748 15.0109H3.24561V18.748H4.41748V15.0109Z" fill="#319795"/>
<path d="M20.7544 15.0109H19.5825V18.748H20.7544V15.0109Z" fill="#319795"/>
<path d="M3.24561 5.25208V12.3014L11.9998 13.9241V5.25208H3.24561Z" fill="#ED8936"/>
<path d="M15.5756 7.7437H14.2963C13.2639 7.7437 12.3782 8.37159 12.0001 9.26632L11.2183 11.0172L18.0673 10.2353C18.0672 8.85921 16.9517 7.7437 15.5756 7.7437Z" fill="white"/>
<path d="M9.70355 7.7437H8.42421C7.04812 7.7437 5.93262 8.85924 5.93262 10.2353L11.9997 11.0172V9.26628C11.6216 8.37159 10.7359 7.7437 9.70355 7.7437Z" fill="white"/>
<path d="M20.7543 12.3014C20.7543 11.1603 19.8293 10.2353 18.6883 10.2353H12.0001L11.2183 13.924L20.7543 13.1422V12.3014Z" fill="#ED8936"/>
<path d="M5.31166 10.2353C4.17061 10.2353 3.24561 11.1603 3.24561 12.3014V13.1422L11.9998 13.924V10.2353H5.31166Z" fill="#ED8936"/>
<path d="M22.0001 13.1422H12.0001L11.2183 15.0109L12.0001 16.8796H22.0001V13.1422Z" fill="#ED8936"/>
<path d="M12 13.1421H2V16.8796H12V13.1421Z" fill="#ED8936"/>
</g>
<defs>
<clipPath id="clip0">
<rect width="20" height="20" fill="white" transform="translate(2 2)"/>
</clipPath>
</defs>
</svg>
