<svg width="20" height="20" viewBox="0 0 20 20" fill="none" xmlns="http://www.w3.org/2000/svg">
<g clip-path="url(#clip0_7961_613)">
<mask id="path-1-inside-1_7961_613" fill="white">
<path d="M14.5627 1.6665H6.74067C6.46531 1.6665 6.2421 1.88975 6.2421 2.16507V5.47172C6.2421 5.74708 6.46531 5.97029 6.74067 5.97029H8.31658V7.73966C8.31658 8.01502 8.53982 8.23823 8.81515 8.23823C9.09048 8.23823 9.31372 8.01499 9.31372 7.73966V5.97029H13.1303V14.2199H11.2546C11.9019 13.5862 12.3043 12.7032 12.3043 11.7279C12.3043 11.4526 12.081 11.2294 11.8057 11.2294H5.82458C5.54922 11.2294 5.32601 11.4526 5.32601 11.7279C5.32601 12.7032 5.72839 13.5862 6.37566 14.2199H3.06449C2.78913 14.2199 2.56592 14.4432 2.56592 14.7185V17.8346C2.56592 18.1099 2.78913 18.3331 3.06449 18.3331H16.9355C17.2109 18.3331 17.4341 18.1099 17.4341 17.8346V4.53786C17.4341 2.95459 16.146 1.6665 14.5627 1.6665ZM6.37328 12.2266H11.257C11.0255 13.3626 10.0186 14.22 8.81518 14.22C7.61176 14.22 6.60483 13.3626 6.37328 12.2266ZM16.4369 17.3361H3.56306V15.2171H13.6289C13.9042 15.2171 14.1274 14.9939 14.1274 14.7186V5.47172C14.1274 5.19636 13.9042 4.97315 13.6289 4.97315H7.23923V2.66364H14.5627C15.5962 2.66364 16.4369 3.5044 16.4369 4.53786V17.3361Z"/>
</mask>
<path d="M14.5627 1.6665H6.74067C6.46531 1.6665 6.2421 1.88975 6.2421 2.16507V5.47172C6.2421 5.74708 6.46531 5.97029 6.74067 5.97029H8.31658V7.73966C8.31658 8.01502 8.53982 8.23823 8.81515 8.23823C9.09048 8.23823 9.31372 8.01499 9.31372 7.73966V5.97029H13.1303V14.2199H11.2546C11.9019 13.5862 12.3043 12.7032 12.3043 11.7279C12.3043 11.4526 12.081 11.2294 11.8057 11.2294H5.82458C5.54922 11.2294 5.32601 11.4526 5.32601 11.7279C5.32601 12.7032 5.72839 13.5862 6.37566 14.2199H3.06449C2.78913 14.2199 2.56592 14.4432 2.56592 14.7185V17.8346C2.56592 18.1099 2.78913 18.3331 3.06449 18.3331H16.9355C17.2109 18.3331 17.4341 18.1099 17.4341 17.8346V4.53786C17.4341 2.95459 16.146 1.6665 14.5627 1.6665ZM6.37328 12.2266H11.257C11.0255 13.3626 10.0186 14.22 8.81518 14.22C7.61176 14.22 6.60483 13.3626 6.37328 12.2266ZM16.4369 17.3361H3.56306V15.2171H13.6289C13.9042 15.2171 14.1274 14.9939 14.1274 14.7186V5.47172C14.1274 5.19636 13.9042 4.97315 13.6289 4.97315H7.23923V2.66364H14.5627C15.5962 2.66364 16.4369 3.5044 16.4369 4.53786V17.3361Z" fill="#718096"/>
<path d="M8.31658 5.97029H9.31658V4.97029H8.31658V5.97029ZM9.31372 5.97029V4.97029H8.31372V5.97029H9.31372ZM13.1303 5.97029H14.1303V4.97029H13.1303V5.97029ZM13.1303 14.2199V15.2199H14.1303V14.2199H13.1303ZM11.2546 14.2199L10.555 13.5054L8.80396 15.2199H11.2546V14.2199ZM6.37566 14.2199V15.2199H8.82625L7.07529 13.5054L6.37566 14.2199ZM17.4341 4.53786H18.4341V4.53784L17.4341 4.53786ZM6.37328 12.2266V11.2266H5.14891L5.39343 12.4263L6.37328 12.2266ZM11.257 12.2266L12.2369 12.4263L12.4815 11.2266H11.257V12.2266ZM8.81518 14.22L8.81516 15.22H8.81518V14.22ZM16.4369 17.3361V18.3361H17.4369V17.3361H16.4369ZM3.56306 17.3361H2.56306V18.3361H3.56306V17.3361ZM3.56306 15.2171V14.2171H2.56306V15.2171H3.56306ZM7.23923 4.97315H6.23923V5.97315H7.23923V4.97315ZM7.23923 2.66364V1.66364H6.23923V2.66364H7.23923ZM14.5627 0.666504H6.74067V2.6665H14.5627V0.666504ZM6.74067 0.666504C5.91298 0.666504 5.2421 1.3375 5.2421 2.16507H7.2421C7.2421 2.44199 7.01763 2.6665 6.74067 2.6665V0.666504ZM5.2421 2.16507V5.47172H7.2421V2.16507H5.2421ZM5.2421 5.47172C5.2421 6.29936 5.91302 6.97029 6.74067 6.97029V4.97029C7.01759 4.97029 7.2421 5.19479 7.2421 5.47172H5.2421ZM6.74067 6.97029H8.31658V4.97029H6.74067V6.97029ZM7.31658 5.97029V7.73966H9.31658V5.97029H7.31658ZM7.31658 7.73966C7.31658 8.56735 7.98758 9.23823 8.81515 9.23823V7.23823C9.09207 7.23823 9.31658 7.46269 9.31658 7.73966H7.31658ZM8.81515 9.23823C9.64276 9.23823 10.3137 8.56727 10.3137 7.73966H8.31372C8.31372 7.4627 8.53819 7.23823 8.81515 7.23823V9.23823ZM10.3137 7.73966V5.97029H8.31372V7.73966H10.3137ZM9.31372 6.97029H13.1303V4.97029H9.31372V6.97029ZM12.1303 5.97029V14.2199H14.1303V5.97029H12.1303ZM13.1303 13.2199H11.2546V15.2199H13.1303V13.2199ZM11.9543 14.9345C12.7849 14.1211 13.3043 12.984 13.3043 11.7279H11.3043C11.3043 12.4224 11.0189 13.0513 10.555 13.5054L11.9543 14.9345ZM13.3043 11.7279C13.3043 10.9003 12.6333 10.2294 11.8057 10.2294V12.2294C11.5288 12.2294 11.3043 12.0049 11.3043 11.7279H13.3043ZM11.8057 10.2294H5.82458V12.2294H11.8057V10.2294ZM5.82458 10.2294C4.9969 10.2294 4.32601 10.9004 4.32601 11.7279H6.32601C6.32601 12.0049 6.10155 12.2294 5.82458 12.2294V10.2294ZM4.32601 11.7279C4.32601 12.9841 4.84536 14.1211 5.67603 14.9345L7.07529 13.5054C6.61142 13.0512 6.32601 12.4224 6.32601 11.7279H4.32601ZM6.37566 13.2199H3.06449V15.2199H6.37566V13.2199ZM3.06449 13.2199C2.23684 13.2199 1.56592 13.8909 1.56592 14.7185H3.56592C3.56592 14.9954 3.34141 15.2199 3.06449 15.2199V13.2199ZM1.56592 14.7185V17.8346H3.56592V14.7185H1.56592ZM1.56592 17.8346C1.56592 18.6622 2.23685 19.3331 3.06449 19.3331V17.3331C3.34141 17.3331 3.56592 17.5576 3.56592 17.8346H1.56592ZM3.06449 19.3331H16.9355V17.3331H3.06449V19.3331ZM16.9355 19.3331C17.7632 19.3331 18.4341 18.6621 18.4341 17.8346H16.4341C16.4341 17.5576 16.6586 17.3331 16.9355 17.3331V19.3331ZM18.4341 17.8346V4.53786H16.4341V17.8346H18.4341ZM18.4341 4.53784C18.4341 2.40231 16.6983 0.666504 14.5627 0.666504V2.6665C15.5937 2.6665 16.4341 3.50688 16.4341 4.53788L18.4341 4.53784ZM6.37328 13.2266H11.257V11.2266H6.37328V13.2266ZM10.2772 12.0268C10.1385 12.7072 9.53316 13.22 8.81518 13.22V15.22C10.504 15.22 11.9124 14.0181 12.2369 12.4263L10.2772 12.0268ZM8.81521 13.22C8.09715 13.22 7.49178 12.7071 7.35314 12.0269L5.39343 12.4263C5.71787 14.0181 7.12638 15.22 8.81516 15.22L8.81521 13.22ZM16.4369 16.3361H3.56306V18.3361H16.4369V16.3361ZM4.56306 17.3361V15.2171H2.56306V17.3361H4.56306ZM3.56306 16.2171H13.6289V14.2171H3.56306V16.2171ZM13.6289 16.2171C14.4565 16.2171 15.1274 15.5462 15.1274 14.7186H13.1274C13.1274 14.4417 13.3519 14.2171 13.6289 14.2171V16.2171ZM15.1274 14.7186V5.47172H13.1274V14.7186H15.1274ZM15.1274 5.47172C15.1274 4.64408 14.4565 3.97315 13.6289 3.97315V5.97315C13.3519 5.97315 13.1274 5.74865 13.1274 5.47172H15.1274ZM13.6289 3.97315H7.23923V5.97315H13.6289V3.97315ZM8.23923 4.97315V2.66364H6.23923V4.97315H8.23923ZM7.23923 3.66364H14.5627V1.66364H7.23923V3.66364ZM14.5627 3.66364C15.0439 3.66364 15.4369 4.05669 15.4369 4.53786H17.4369C17.4369 2.9521 16.1484 1.66364 14.5627 1.66364V3.66364ZM15.4369 4.53786V17.3361H17.4369V4.53786H15.4369Z" fill="#718096" mask="url(#path-1-inside-1_7961_613)"/>
<path d="M13.6293 3.09375C13.6291 3.09375 13.6288 3.09375 13.6286 3.09375C13.3536 3.09375 13.1305 3.31647 13.13 3.5916L13.1294 4.03373C13.129 4.30912 13.3519 4.53266 13.6272 4.53305C13.6275 4.53305 13.6277 4.53305 13.628 4.53305C13.903 4.53305 14.1261 4.31032 14.1265 4.03519L14.1272 3.59307C14.1275 3.31768 13.9047 3.09411 13.6293 3.09375Z" fill="#718096"/>
<path d="M12.3041 3.0918C12.3039 3.0918 12.3036 3.0918 12.3034 3.0918C12.0284 3.0918 11.8053 3.31452 11.8049 3.58965L11.8042 4.03177C11.8038 4.30717 12.0267 4.5307 12.3021 4.53109C12.3023 4.53109 12.3025 4.53109 12.3028 4.53109C12.5778 4.53109 12.8009 4.30837 12.8013 4.03324L12.802 3.59112C12.8024 3.31569 12.5795 3.09219 12.3041 3.0918Z" fill="#718096"/>
</g>
<defs>
<clipPath id="clip0_7961_613">
<rect width="16.6667" height="16.6667" fill="white" transform="translate(1.6665 1.6665)"/>
</clipPath>
</defs>
</svg>
