<svg width="106" height="19" viewBox="0 0 106 19" fill="none" xmlns="http://www.w3.org/2000/svg">
<path d="M0.68 1.392C2.536 1.264 4.176 1.2 5.6 1.2C9.552 1.2 11.528 2.52 11.528 5.16C11.528 6.152 11.24 7.008 10.664 7.728C10.088 8.432 9.168 8.912 7.904 9.168C9.12 9.312 10.08 9.68 10.784 10.272C11.488 10.864 11.84 11.896 11.84 13.368C11.84 16.456 9.864 18 5.912 18H0.68V1.392ZM2.672 17.76H5.912C7.336 17.76 8.344 17.392 8.936 16.656C9.544 15.904 9.848 14.76 9.848 13.224C9.848 11.688 9.544 10.664 8.936 10.152C8.328 9.64 7.424 9.368 6.224 9.336H2.672V17.76ZM5.6 1.44C4.672 1.44 3.696 1.496 2.672 1.608V9.096H6.224C8.48 9 9.608 7.704 9.608 5.208C9.608 3.992 9.272 3.064 8.6 2.424C7.928 1.768 6.928 1.44 5.6 1.44ZM19.3355 18.096C17.6555 18.096 16.2875 17.616 15.2315 16.656C14.1755 15.696 13.6475 14.216 13.6475 12.216C13.6475 10.216 14.1915 8.664 15.2795 7.56C16.3835 6.456 17.7755 5.904 19.4555 5.904C21.1515 5.904 22.5275 6.384 23.5835 7.344C24.6395 8.304 25.1675 9.784 25.1675 11.784C25.1675 13.784 24.6155 15.336 23.5115 16.44C22.4235 17.544 21.0315 18.096 19.3355 18.096ZM19.5035 6.096C18.2875 6.096 17.2795 6.64 16.4795 7.728C15.6795 8.8 15.2795 10.304 15.2795 12.24C15.2795 14.16 15.6475 15.584 16.3835 16.512C17.1195 17.44 18.0955 17.904 19.3115 17.904C20.5275 17.904 21.5355 17.368 22.3355 16.296C23.1355 15.208 23.5355 13.704 23.5355 11.784C23.5355 9.848 23.1675 8.416 22.4315 7.488C21.6955 6.56 20.7195 6.096 19.5035 6.096ZM32.7652 18.096C31.0852 18.096 29.7172 17.616 28.6612 16.656C27.6052 15.696 27.0772 14.216 27.0772 12.216C27.0772 10.216 27.6212 8.664 28.7092 7.56C29.8132 6.456 31.2052 5.904 32.8852 5.904C34.5812 5.904 35.9572 6.384 37.0132 7.344C38.0692 8.304 38.5972 9.784 38.5972 11.784C38.5972 13.784 38.0452 15.336 36.9412 16.44C35.8532 17.544 34.4612 18.096 32.7652 18.096ZM32.9332 6.096C31.7172 6.096 30.7092 6.64 29.9092 7.728C29.1092 8.8 28.7092 10.304 28.7092 12.24C28.7092 14.16 29.0772 15.584 29.8132 16.512C30.5492 17.44 31.5252 17.904 32.7412 17.904C33.9572 17.904 34.9652 17.368 35.7652 16.296C36.5652 15.208 36.9652 13.704 36.9652 11.784C36.9652 9.848 36.5972 8.416 35.8612 7.488C35.1252 6.56 34.1492 6.096 32.9332 6.096ZM41.9581 -1.43051e-06V11.952L47.2381 6H47.4781L43.5661 10.416L48.7261 18H47.0461L42.6061 11.472L41.9581 12.216V18H40.2781V-1.43051e-06H41.9581ZM60.0907 2.208C58.6347 1.648 57.2587 1.368 55.9627 1.368C54.6827 1.368 53.6827 1.64 52.9627 2.184C52.2427 2.728 51.8827 3.48 51.8827 4.44C51.8827 5.608 52.4907 6.512 53.7067 7.152C54.2507 7.424 54.8427 7.68 55.4827 7.92C56.1387 8.144 56.7947 8.4 57.4507 8.688C58.1067 8.976 58.7067 9.304 59.2507 9.672C59.7947 10.04 60.2347 10.552 60.5707 11.208C60.9067 11.848 61.0747 12.672 61.0747 13.68C61.0747 14.672 60.7947 15.52 60.2347 16.224C59.6747 16.928 58.9947 17.408 58.1947 17.664C57.4107 17.904 56.4907 18.024 55.4347 18.024C53.4667 18.024 51.7867 17.536 50.3947 16.56L50.5147 16.368C51.0427 16.784 51.7227 17.128 52.5547 17.4C53.4027 17.656 54.2667 17.784 55.1467 17.784C56.4427 17.784 57.5467 17.488 58.4587 16.896C59.3867 16.288 59.8507 15.4 59.8507 14.232C59.8507 12.952 59.2427 11.952 58.0267 11.232C57.4827 10.912 56.8827 10.616 56.2267 10.344C55.5867 10.072 54.9387 9.792 54.2827 9.504C53.6267 9.2 53.0267 8.864 52.4827 8.496C51.2667 7.696 50.6587 6.56 50.6587 5.088C50.6587 3.92 51.0507 2.976 51.8347 2.256C52.6187 1.52 53.7947 1.152 55.3627 1.152C56.9467 1.152 58.5547 1.424 60.1867 1.968L60.0907 2.208ZM72.9463 18C72.2903 18 71.7863 17.856 71.4343 17.568C71.0983 17.28 70.9223 16.992 70.9063 16.704L70.8823 16.296V8.76C70.8823 7.496 70.5463 6.688 69.8743 6.336C69.5543 6.176 69.1463 6.096 68.6503 6.096C67.6583 6.096 66.7623 6.504 65.9623 7.32C65.1783 8.12 64.7863 8.84 64.7863 9.48V18H63.1063V0.0239997H64.7863V8.736C65.0423 8.048 65.5303 7.408 66.2503 6.816C66.9703 6.208 67.7783 5.904 68.6743 5.904C70.2263 5.904 71.2583 6.176 71.7703 6.72C72.2983 7.248 72.5623 7.936 72.5623 8.784V16.296C72.5623 16.76 72.6503 17.12 72.8263 17.376C73.0183 17.616 73.2023 17.744 73.3783 17.76L73.6663 17.808H74.4103V18H72.9463ZM85.6454 18C84.5574 18 83.8134 17.792 83.4134 17.376C83.0454 17.024 82.8614 16.72 82.8614 16.464V15.96C82.0774 17.384 80.8214 18.096 79.0934 18.096C77.0774 18.096 75.9334 17.184 75.6614 15.36C75.6294 15.168 75.6134 14.976 75.6134 14.784C75.6134 14.576 75.6454 14.352 75.7094 14.112C75.7734 13.872 75.9574 13.608 76.2614 13.32C76.8694 12.744 78.2054 12.392 80.2694 12.264C80.7814 12.216 81.2534 12.192 81.6854 12.192C82.1174 12.192 82.5094 12.208 82.8614 12.24V8.256C82.8294 8.24 82.8294 8.168 82.8614 8.04C82.8934 7.896 82.8614 7.72 82.7654 7.512C82.6854 7.288 82.5734 7.072 82.4294 6.864C82.2854 6.656 82.0294 6.48 81.6614 6.336C81.2934 6.176 80.8134 6.096 80.2214 6.096C79.6294 6.096 78.9334 6.208 78.1334 6.432C77.3494 6.64 76.7734 6.848 76.4054 7.056L76.3094 6.888C77.7334 6.232 79.1814 5.904 80.6534 5.904C82.3014 5.904 83.3894 6.2 83.9174 6.792C84.3334 7.256 84.5414 7.744 84.5414 8.256V16.296C84.5414 16.76 84.6294 17.12 84.8054 17.376C84.9974 17.616 85.1894 17.744 85.3814 17.76L85.6454 17.808H86.3894V18H85.6454ZM79.4774 17.904C80.3254 17.904 81.0854 17.616 81.7574 17.04C82.4454 16.448 82.8134 15.88 82.8614 15.336V12.432C82.4294 12.4 81.9894 12.384 81.5414 12.384C81.1094 12.384 80.6774 12.408 80.2454 12.456C79.0294 12.6 78.2374 12.872 77.8694 13.272C77.5014 13.672 77.3174 14.224 77.3174 14.928C77.3174 15.056 77.3254 15.2 77.3414 15.36C77.4854 17.056 78.1974 17.904 79.4774 17.904ZM92.294 7.032V6.528C91.574 6.816 90.918 7.4 90.326 8.28C89.734 9.144 89.422 9.96 89.39 10.728V18H87.71V6H89.39V9.816C89.646 8.888 90.134 8.016 90.854 7.2C91.574 6.368 92.39 5.936 93.302 5.904H93.398C93.718 5.904 93.982 6.016 94.19 6.24C94.414 6.448 94.526 6.712 94.526 7.032C94.526 7.352 94.414 7.616 94.19 7.824C93.982 8.032 93.718 8.136 93.398 8.136C93.078 8.136 92.814 8.032 92.606 7.824C92.398 7.616 92.294 7.352 92.294 7.032ZM97.2404 12.144C97.2404 14.128 97.5844 15.584 98.2724 16.512C98.9764 17.44 99.8964 17.904 101.032 17.904C102.632 17.904 104.056 17.664 105.304 17.184L105.376 17.352C104.096 17.848 102.648 18.096 101.032 18.096C99.4324 18.096 98.1284 17.616 97.1204 16.656C96.1124 15.696 95.6084 14.216 95.6084 12.216C95.6084 10.216 96.1364 8.664 97.1924 7.56C98.2484 6.456 99.5924 5.904 101.224 5.904C102.536 5.904 103.64 6.296 104.536 7.08C105.432 7.864 105.88 9.024 105.88 10.56C105.88 10.64 105.88 10.72 105.88 10.8H97.3124C97.2644 11.232 97.2404 11.68 97.2404 12.144ZM104.248 10.608C104.232 9.072 103.936 7.936 103.36 7.2C102.784 6.464 102.04 6.096 101.128 6.096C100.216 6.096 99.4004 6.496 98.6804 7.296C97.9764 8.096 97.5284 9.2 97.3364 10.608H104.248Z" fill="#1D4044"/>
</svg>
