<svg width="20" height="20" viewBox="0 0 20 20" fill="none" xmlns="http://www.w3.org/2000/svg">
<g clip-path="url(#clip0_1822_1850)">
<path d="M8.32566 19.2582L7.92598 18.8586L6.1871 17.1197L5.85003 16.7826L6.17064 16.4298L8.30851 14.0776C8.34434 14.0381 8.34144 13.9772 8.30207 13.9413L8.32566 19.2582ZM8.32566 19.2582L8.67358 18.8128M8.32566 19.2582L8.67358 18.8128M8.67358 18.8128L13.0811 13.1696L13.3534 12.821L13.0406 12.5083L7.4957 6.96335L7.18295 6.6506L6.83438 6.92284L1.19116 11.3304L0.745692 11.6783L1.14538 12.078L2.88425 13.8168L3.22132 14.1539L3.57409 13.8333L5.92636 11.6954C5.96574 11.6596 6.02666 11.6624 6.06263 11.7019C6.09842 11.7413 6.09554 11.8023 6.05613 11.8381C6.05612 11.8382 6.05611 11.8382 6.0561 11.8382L3.74597 13.9377L3.35786 14.2904L3.7287 14.6613L5.34265 16.2752L5.71349 16.6461L6.06622 16.258L8.16579 13.9478L8.16583 13.9478M8.67358 18.8128L8.16583 13.9478M8.16583 13.9478C8.20154 13.9085 8.26249 13.9054 8.30201 13.9413L8.16583 13.9478ZM13.841 12.1965C14.4959 11.358 14.4225 10.1595 13.6702 9.40718C13.6702 9.40717 13.6702 9.40717 13.6702 9.40717L13.1257 8.86276L11.1334 6.87042L10.5966 6.33366C9.8445 5.58152 8.64611 5.50797 7.80772 6.16261L13.841 12.1965ZM13.841 12.1965L13.8211 12.2221L13.4732 12.6682L13.0732 12.2682L7.73574 6.93064L7.33575 6.53066L7.78183 6.18281L7.8074 6.16287L13.841 12.1965ZM10.8481 6.31229L11.2016 6.66584L11.5552 6.31229L16.9276 0.939934L16.5745 0.586776L16.9276 0.939931C17.5142 0.353378 18.4697 0.353337 19.0563 0.939923L19.4095 0.586698L19.0563 0.939932C19.6429 1.52651 19.6429 2.48208 19.0563 3.06865L19.4099 3.4222L19.0563 3.06865L13.684 8.44113L13.3304 8.79468L13.684 9.14823L13.8066 9.27088C14.6271 10.0914 14.7073 11.4008 13.9931 12.3153L8.41055 19.463C8.41054 19.463 8.41052 19.463 8.41051 19.463C8.39354 19.4847 8.36799 19.4982 8.34034 19.4999L8.33449 19.5001C8.30915 19.5001 8.28454 19.49 8.26636 19.4718L0.53213 11.7376C0.512648 11.7181 0.502395 11.6911 0.504088 11.6634C0.505774 11.6359 0.51921 11.6104 0.540939 11.5934L0.540952 11.5934L7.68866 6.01083L7.68868 6.01082C8.60318 5.29649 9.91251 5.37671 10.7331 6.19725L10.8481 6.31229ZM18.9199 2.93224L18.92 2.93222C19.4319 2.4202 19.4319 1.58832 18.9199 1.0763C18.408 0.564391 17.576 0.564252 17.064 1.0763L11.6916 6.44866L11.338 6.80221L11.6916 7.15576L12.8404 8.30463L13.194 8.65819L13.5475 8.30463L18.9199 2.93224Z" fill="#white" stroke="#2D3748"/>
</g>
<defs>
<clipPath id="clip0_1822_1850">
<rect width="20" height="20" fill="white"/>
</clipPath>
</defs>
</svg>
