<svg width="16" height="16" viewBox="0 0 16 16" fill="none" xmlns="http://www.w3.org/2000/svg">
<path d="M6.66666 2H9.33333C10.7478 2 12.1044 2.5619 13.1046 3.5621C14.1048 4.56229 14.6667 5.91885 14.6667 7.33333C14.6667 8.74782 14.1048 10.1044 13.1046 11.1046C12.1044 12.1048 10.7478 12.6667 9.33333 12.6667V15C6 13.6667 1.33333 11.6667 1.33333 7.33333C1.33333 5.91885 1.89523 4.56229 2.89543 3.5621C3.89562 2.5619 5.25217 2 6.66666 2ZM8 11.3333H9.33333C9.85862 11.3333 10.3788 11.2299 10.8641 11.0289C11.3494 10.8278 11.7903 10.5332 12.1618 10.1618C12.5332 9.79033 12.8278 9.34937 13.0288 8.86407C13.2299 8.37877 13.3333 7.85862 13.3333 7.33333C13.3333 6.80805 13.2299 6.2879 13.0288 5.8026C12.8278 5.3173 12.5332 4.87634 12.1618 4.50491C11.7903 4.13347 11.3494 3.83883 10.8641 3.63782C10.3788 3.4368 9.85862 3.33333 9.33333 3.33333H6.66666C5.6058 3.33333 4.58838 3.75476 3.83823 4.50491C3.08809 5.25505 2.66666 6.27247 2.66666 7.33333C2.66666 9.74 4.30799 11.3107 8 12.9867V11.3333Z" fill="white"/>
</svg>
