<svg width="14" height="14" viewBox="0 0 14 14" fill="none" xmlns="http://www.w3.org/2000/svg">
<path d="M5.83329 1.75H8.16663C9.4043 1.75 10.5913 2.24167 11.4665 3.11683C12.3416 3.992 12.8333 5.17899 12.8333 6.41667C12.8333 7.65434 12.3416 8.84133 11.4665 9.7165C10.5913 10.5917 9.4043 11.0833 8.16663 11.0833V13.125C5.24996 11.9583 1.16663 10.2083 1.16663 6.41667C1.16663 5.17899 1.65829 3.992 2.53346 3.11683C3.40863 2.24167 4.59562 1.75 5.83329 1.75ZM6.99996 9.91667H8.16663C8.62625 9.91667 9.08138 9.82614 9.50602 9.65025C9.93066 9.47435 10.3165 9.21655 10.6415 8.89154C10.9665 8.56653 11.2243 8.1807 11.4002 7.75606C11.5761 7.33142 11.6666 6.87629 11.6666 6.41667C11.6666 5.95704 11.5761 5.50191 11.4002 5.07727C11.2243 4.65263 10.9665 4.2668 10.6415 3.94179C10.3165 3.61679 9.93066 3.35898 9.50602 3.18309C9.08138 3.0072 8.62625 2.91667 8.16663 2.91667H5.83329C4.90504 2.91667 4.0148 3.28542 3.35842 3.94179C2.70204 4.59817 2.33329 5.48841 2.33329 6.41667C2.33329 8.5225 3.76946 9.89683 6.99996 11.3633V9.91667Z" fill="#319795"/>
</svg>
