<svg width="24" height="24" viewBox="0 0 24 24" fill="none" xmlns="http://www.w3.org/2000/svg">
<g clip-path="url(#clip0)">
<path d="M21.4099 2.58638C20.628 1.8045 19.3559 1.80458 18.5741 2.58638L13.2016 7.95873L13.0866 7.84369C12.0875 6.84459 10.4945 6.74697 9.38089 7.61678L2.23319 13.1993C2.09854 13.3045 2.01545 13.4624 2.00502 13.6329C1.99459 13.8035 2.05776 13.9703 2.17858 14.0911L9.91281 21.8254C10.025 21.9375 10.1769 22.0001 10.3345 22.0001C10.3466 22.0001 10.3588 21.9997 10.371 21.999C10.5415 21.9885 10.6994 21.9054 10.8046 21.7708L16.3871 14.6231C17.2568 13.5096 17.1592 11.9164 16.1602 10.9173L16.0375 10.7947L21.4099 5.4222C22.1917 4.64037 22.1917 3.36822 21.4099 2.58638ZM10.2795 20.505L8.54066 18.7661L10.6786 16.4138C10.9001 16.17 10.8821 15.7929 10.6383 15.5713C10.3945 15.3498 10.0173 15.3677 9.79578 15.6115L7.6962 17.9217L6.08226 16.3077L8.39242 14.2082C8.63617 13.9866 8.65417 13.6094 8.43265 13.3656C8.21105 13.1219 7.83394 13.1038 7.59011 13.3254L5.2378 15.4633L3.49893 13.7244L9.14214 9.3169L14.6871 14.8618L10.2795 20.505ZM15.447 13.8887L15.4268 13.9146L10.0893 8.57709L10.1152 8.5569C10.7545 8.05748 11.6694 8.11354 12.2431 8.68721L12.7798 9.22397L14.7722 11.2163L15.3166 11.7607C15.8904 12.3344 15.9464 13.2493 15.447 13.8887ZM20.5664 4.57869L15.194 9.95108L14.0451 8.80221L19.4175 3.42986C19.7343 3.1131 20.2497 3.11318 20.5663 3.42986C20.8831 3.74661 20.8831 4.26193 20.5664 4.57869Z" fill="black"/>
</g>
<defs>
<clipPath id="clip0">
<rect width="20" height="20" fill="white" transform="translate(2 2)"/>
</clipPath>
</defs>
</svg>
