<svg width="24" height="24" viewBox="0 0 24 24" fill="none" xmlns="http://www.w3.org/2000/svg">
<g clip-path="url(#clip0_1303_5408)">
<path d="M23.5969 10.729L21.5694 8.88162V2.75586C21.5694 2.36609 21.2534 2.05006 20.8636 2.05006H15.9832C15.5935 2.05006 15.2774 2.36604 15.2774 2.75586V3.14839L12.8289 0.917277C12.3562 0.486543 11.6435 0.48659 11.1711 0.91723L0.403024 10.7291C0.0244616 11.0741 -0.100648 11.6056 0.084321 12.0832C0.269337 12.5608 0.719805 12.8694 1.23201 12.8694H2.95181V22.7001C2.95181 23.0899 3.26779 23.4059 3.6576 23.4059H9.55977C9.94954 23.4059 10.2656 23.0899 10.2656 22.7001V16.7312H13.7344V22.7001C13.7344 23.0899 14.0504 23.4059 14.4402 23.4059H20.3421C20.7319 23.4059 21.0479 23.0899 21.0479 22.7001V12.8695H22.768C23.2802 12.8695 23.7307 12.5608 23.9157 12.0833C24.1006 11.6056 23.9756 11.0741 23.5969 10.729ZM20.3421 11.4579C19.9523 11.4579 19.6363 11.7739 19.6363 12.1637V21.9943H15.146V16.0254C15.146 15.6357 14.83 15.3196 14.4402 15.3196H9.55977C9.17001 15.3196 8.85398 15.6356 8.85398 16.0254V21.9943H4.36335V12.1637C4.36335 11.7739 4.04737 11.4579 3.65756 11.4579H1.69898L12 2.07162L15.508 5.26807C15.7146 5.45632 16.0129 5.50484 16.2685 5.39201C16.5241 5.27904 16.6891 5.02582 16.6891 4.74636V3.46165H20.1579V9.19334C20.1579 9.39195 20.2416 9.58128 20.3884 9.71506L22.301 11.4579H20.3421Z" fill="black"/>
</g>
<defs>
<clipPath id="clip0_1303_5408">
<rect width="24" height="24" fill="white"/>
</clipPath>
</defs>
</svg>
