<svg width="20" height="20" viewBox="0 0 20 20" fill="none" xmlns="http://www.w3.org/2000/svg">
<path d="M15.9762 2.38318H14.2185V1.79725C14.2185 1.47367 13.9561 1.21133 13.6325 1.21133H11.777C11.6924 0.965434 11.5545 0.738056 11.3692 0.544193C10.6756 -0.181339 9.55856 -0.181456 8.86487 0.544193C8.67956 0.738017 8.54159 0.965395 8.45699 1.21133H6.60148C6.27789 1.21133 6.01555 1.47367 6.01555 1.79725V2.38318H4.25778C3.28854 2.38318 2.5 3.17172 2.5 4.14095V18.2422C2.5 19.2115 3.28854 20 4.25778 20H15.9763C16.9455 20 17.7341 19.2115 17.7341 18.2422V4.14095C17.734 3.17172 16.9455 2.38318 15.9762 2.38318V2.38318ZM7.18736 2.38318H8.94514C9.26873 2.38318 9.53107 2.12084 9.53107 1.79725C9.53107 1.46433 9.80489 1.17227 10.117 1.17227C10.4291 1.17227 10.7029 1.46433 10.7029 1.79725C10.7029 2.12084 10.9653 2.38318 11.2888 2.38318H13.0466V3.55503H7.18736V2.38318ZM16.5622 18.2422C16.5622 18.5653 16.2993 18.8282 15.9762 18.8282H4.25774C3.93466 18.8282 3.67181 18.5653 3.67181 18.2422V4.14095C3.67181 3.81788 3.93466 3.55503 4.25774 3.55503H6.01551V4.14095C6.01551 4.46454 6.27785 4.72688 6.60144 4.72688H13.6325C13.9561 4.72688 14.2185 4.46454 14.2185 4.14095V3.55503H15.9762C16.2993 3.55503 16.5622 3.81788 16.5622 4.14095V18.2422Z" fill="black"/>
<path d="M7.77321 12.9299H12.4606C12.7842 12.9299 13.0465 12.6675 13.0465 12.3439V10.7815C13.0465 9.79223 12.4775 8.93393 11.6499 8.51507C12.3062 7.34771 11.4568 5.89876 10.1169 5.89876C8.77757 5.89876 7.92723 7.34709 8.5839 8.51507C7.7563 8.93393 7.18729 9.79223 7.18729 10.7815V12.3439C7.18729 12.6675 7.44962 12.9299 7.77321 12.9299ZM10.1169 7.07061C10.44 7.07061 10.7028 7.33345 10.7028 7.65653C10.7028 7.97961 10.44 8.24246 10.1169 8.24246C9.79383 8.24246 9.53099 7.97961 9.53099 7.65653C9.53099 7.33345 9.79383 7.07061 10.1169 7.07061ZM8.35914 10.7815C8.35914 10.0276 8.97244 9.41431 9.7263 9.41431H10.5075C11.2614 9.41431 11.8747 10.0276 11.8747 10.7815V11.758H8.35914V10.7815Z" fill="black"/>
<path d="M13.6324 14.1017H6.60134C6.27775 14.1017 6.01541 14.364 6.01541 14.6876C6.01541 15.0112 6.27775 15.2735 6.60134 15.2735H13.6324C13.956 15.2735 14.2184 15.0112 14.2184 14.6876C14.2184 14.364 13.956 14.1017 13.6324 14.1017Z" fill="black"/>
<path d="M13.6324 16.4454H6.60134C6.27775 16.4454 6.01541 16.7078 6.01541 17.0313C6.01541 17.3549 6.27775 17.6173 6.60134 17.6173H13.6324C13.956 17.6173 14.2184 17.3549 14.2184 17.0313C14.2184 16.7078 13.956 16.4454 13.6324 16.4454Z" fill="black"/>
</svg>
