<svg width="24" height="24" viewBox="0 0 24 24" fill="none" xmlns="http://www.w3.org/2000/svg">
<g clip-path="url(#clip0_1303_5442)">
<path d="M23.4238 10.8526L22.5395 10.0979L23.4958 8.97544C24.2559 8.08322 24.1439 6.74512 23.246 5.99175C22.3616 5.24967 21.0331 5.36086 20.2845 6.23967L16.8747 10.2424V1.40625C16.8747 0.630844 16.2438 0 15.4685 0H1.4062C0.630844 0 0 0.630844 0 1.40625V22.5938C0 23.3692 0.630844 24 1.4062 24H15.4684C16.2438 24 16.8746 23.3692 16.8746 22.5938V16.7478L21.6276 11.1684L22.511 11.9223C22.6086 12.0056 22.6208 12.1533 22.5382 12.2514L19.4849 15.8835C19.235 16.1807 19.2734 16.6242 19.5706 16.8741C19.8677 17.124 20.3114 17.0857 20.5612 16.7884L23.6146 13.1564C24.1924 12.4689 24.1068 11.4355 23.4238 10.8526V10.8526ZM21.355 7.15162C21.6045 6.85861 22.0474 6.82167 22.3421 7.06894C22.6414 7.32019 22.6787 7.76606 22.4253 8.06348L21.4698 9.18506L20.4002 8.27227L21.355 7.15162ZM1.4062 22.5938V1.40625H15.4684V11.8932L13.1648 14.5972C11.8974 16.0851 10.9627 17.8513 10.4413 19.7344H6.32798C5.93967 19.7344 5.62486 20.0492 5.62486 20.4375C5.62486 20.8259 5.93967 21.1407 6.32798 21.1407C6.39084 21.1407 10.9179 21.1409 10.9774 21.1402C11.1439 21.1424 11.2374 21.0954 11.3554 21.0451C12.8785 20.3971 14.2806 19.4604 15.4684 18.306V22.5938H1.4062ZM15.254 16.4816C14.3711 17.5181 13.3074 18.4029 12.1291 19.0875C12.6185 17.7856 13.3328 16.5685 14.2352 15.5092L19.4883 9.3428L20.5579 10.2555L15.254 16.4816Z" fill="black"/>
<path d="M10.3318 4.26562H13.4255C13.8138 4.26562 14.1286 3.95081 14.1286 3.5625C14.1286 3.17419 13.8138 2.85938 13.4255 2.85938H10.3318C9.94347 2.85938 9.62866 3.17419 9.62866 3.5625C9.62866 3.95081 9.94347 4.26562 10.3318 4.26562V4.26562Z" fill="black"/>
<path d="M3.58179 7.07812H13.3784C13.7667 7.07812 14.0816 6.76331 14.0816 6.375C14.0816 5.98669 13.7667 5.67188 13.3784 5.67188H3.58179C3.19347 5.67188 2.87866 5.98669 2.87866 6.375C2.87866 6.76331 3.19347 7.07812 3.58179 7.07812V7.07812Z" fill="black"/>
<path d="M3.58179 9.89062H13.4059C13.7942 9.89062 14.109 9.57581 14.109 9.1875C14.109 8.79919 13.7942 8.48438 13.4059 8.48438H3.58179C3.19347 8.48438 2.87866 8.79919 2.87866 9.1875C2.87866 9.57581 3.19347 9.89062 3.58179 9.89062Z" fill="black"/>
<path d="M3.58179 12.7031H11.2966C11.6849 12.7031 11.9997 12.3883 11.9997 12C11.9997 11.6117 11.6849 11.2969 11.2966 11.2969H3.58179C3.19347 11.2969 2.87866 11.6117 2.87866 12C2.87866 12.3883 3.19347 12.7031 3.58179 12.7031Z" fill="black"/>
<path d="M9.90977 14.8125C9.90977 14.4242 9.59496 14.1094 9.20665 14.1094H3.58179C3.19347 14.1094 2.87866 14.4242 2.87866 14.8125C2.87866 15.2008 3.19347 15.5156 3.58179 15.5156H9.20669C9.59501 15.5156 9.90977 15.2008 9.90977 14.8125Z" fill="black"/>
</g>
<defs>
<clipPath id="clip0_1303_5442">
<rect width="24" height="24" fill="white"/>
</clipPath>
</defs>
</svg>
