<svg width="24" height="24" viewBox="0 0 24 24" fill="none" xmlns="http://www.w3.org/2000/svg">
<g clip-path="url(#clip0_2508_5220)">
<path d="M23.534 13.4249C22.7989 12.4797 21.4727 12.3008 20.5173 12.9635L18.0024 14.646C17.6376 13.9946 16.9408 13.553 16.1424 13.553H13.871C12.9491 12.6931 11.7211 12.2051 10.4547 12.2051C8.27129 12.2051 6.88995 13.2313 6.07122 14.2037C5.91761 13.8906 5.55216 13.7327 5.21344 13.8485L0.475887 15.4679C0.108662 15.5934 -0.0876543 15.9933 0.0379729 16.3607L2.48709 23.5241C2.61277 23.8917 3.01253 24.0875 3.37984 23.962L8.11735 22.3427C8.48457 22.2172 8.68089 21.8173 8.55526 21.4499L8.51579 21.3345L14.2064 21.1585C15.8086 21.1562 17.3452 20.6641 18.6505 19.7352L23.0681 16.5929C24.0973 15.8606 24.3091 14.4224 23.534 13.4249ZM3.59032 22.4039L1.59613 16.5711L5.00292 15.4067L6.99711 21.2395L3.59032 22.4039ZM22.2528 15.4471L17.8352 18.5894C16.7662 19.3502 15.5075 19.7523 14.1952 19.7523C14.1879 19.7523 14.1807 19.7524 14.1735 19.7526C7.77651 19.9505 8.22666 19.9169 8.05538 19.9878L6.63739 15.8404C7.16061 14.91 8.28043 13.6114 10.4546 13.6114C11.4076 13.6114 12.315 13.9611 13.0788 14.7465C13.2159 14.8872 13.4007 14.9593 13.5822 14.9593H16.1424C16.5418 14.9593 16.8666 15.284 16.8666 15.683C16.8666 16.0788 16.5464 16.4067 16.1424 16.4067H12.3672C11.9788 16.4067 11.664 16.7216 11.664 17.1099C11.664 17.4982 11.9788 17.813 12.3672 17.813H16.1424C17.1581 17.813 17.9844 17.1095 18.2101 16.199L21.3046 14.1288C21.3085 14.1261 21.3125 14.1235 21.3164 14.1208C21.6671 13.8756 22.1543 13.9417 22.4237 14.2881C22.7071 14.6527 22.6296 15.179 22.2528 15.4471V15.4471Z" fill="black"/>
<path d="M3.82765 18.2356C4.21598 18.2356 4.53079 17.9208 4.53079 17.5325C4.53079 17.1442 4.21598 16.8293 3.82765 16.8293C3.43932 16.8293 3.12451 17.1442 3.12451 17.5325C3.12451 17.9208 3.43932 18.2356 3.82765 18.2356Z" fill="black"/>
<path d="M8.62369 5.16913L9.04374 4.9062V10.1279C9.04374 10.5163 9.35856 10.8311 9.74688 10.8311H19.122C19.5104 10.8311 19.8252 10.5163 19.8252 10.1279V4.9062L20.2452 5.16913C20.5744 5.37524 21.0083 5.2753 21.2143 4.94619C21.4203 4.61702 21.3205 4.18314 20.9914 3.97712C20.9239 3.93489 14.844 0.129039 14.7965 0.100444C14.5642 -0.0391518 14.2788 -0.029636 14.0614 0.106585L7.87752 3.97712C7.54836 4.18319 7.44856 4.61702 7.65458 4.94619C7.86078 5.27554 8.29476 5.37505 8.62369 5.16913ZM13.7313 9.42475V6.17504H15.1376V9.42475H13.7313ZM18.4189 9.42475H16.5439V5.4719C16.5439 5.08358 16.2291 4.76876 15.8407 4.76876H13.0282C12.6399 4.76876 12.3251 5.08358 12.3251 5.4719V9.42475H10.45V4.02597L14.4345 1.53208L18.4189 4.02597V9.42475Z" fill="black"/>
</g>
<defs>
<clipPath id="clip0_2508_5220">
<rect width="24" height="24" fill="white"/>
</clipPath>
</defs>
</svg>
