<svg width="20" height="20" viewBox="0 0 20 20" fill="none" xmlns="http://www.w3.org/2000/svg">
<g clip-path="url(#clip0_501:8123)">
<path d="M6.76636 16.3984H9.89136C9.93881 16.3984 9.9773 16.4369 9.9773 16.4844C9.9773 16.5318 9.93881 16.5703 9.89136 16.5703H6.76636C6.71889 16.5703 6.68042 16.5318 6.68042 16.4844C6.68042 16.4369 6.71889 16.3984 6.76636 16.3984Z" fill="black" stroke="black"/>
<path d="M9.89136 13.5547H6.76636C6.44272 13.5547 6.18042 13.817 6.18042 14.1406C6.18042 14.4642 6.44272 14.7266 6.76636 14.7266H9.89136C10.215 14.7266 10.4773 14.4642 10.4773 14.1406C10.4773 13.817 10.215 13.5547 9.89136 13.5547Z" fill="black"/>
<path d="M19.1167 11.5363L17.1833 9.60273C16.9546 9.37406 16.5834 9.37395 16.3546 9.60273L15.946 10.0113V2.34375C15.946 2.02016 15.6837 1.75781 15.3601 1.75781H11.8445V0.585938C11.8445 0.262344 11.5821 0 11.2585 0H5.39917C5.07554 0 4.81323 0.262344 4.81323 0.585938V1.75781H1.29761C0.973975 1.75781 0.71167 2.02016 0.71167 2.34375V19.4141C0.71167 19.7377 0.973975 20 1.29761 20H15.3601C15.6837 20 15.946 19.7377 15.946 19.4141V15.5355L19.1167 12.3648C19.3455 12.1361 19.3455 11.765 19.1167 11.5363ZM10.6726 1.17188V3.51562H5.98511V1.17188H10.6726ZM14.7742 18.8281H1.88355V2.92969H4.81323V4.10156C4.81323 4.42516 5.07554 4.6875 5.39917 4.6875H11.2585C11.5821 4.6875 11.8445 4.42516 11.8445 4.10156V2.92969H14.7742V11.1832L11.8208 14.1366C11.7108 14.2464 11.6492 14.3955 11.6492 14.5509V16.4844C11.6492 16.808 11.9115 17.0703 12.2351 17.0703H14.1686C14.3241 17.0703 14.4731 17.0086 14.5829 16.8987L14.7742 16.7074V18.8281ZM13.9259 15.8984H12.821V14.7936L16.7689 10.8457L17.8737 11.9505L13.9259 15.8984Z" fill="black"/>
<path d="M11.978 8.46517C12.1228 8.17572 12.0055 7.82376 11.716 7.67904L8.59101 6.11653C8.42605 6.03407 8.23191 6.03407 8.06695 6.11653L4.94195 7.67904C4.65249 7.82376 4.53519 8.17572 4.67991 8.46517C4.81366 8.73271 5.12441 8.85271 5.39929 8.75509V11.5235C5.39929 11.8471 5.66159 12.1094 5.98523 12.1094H10.6727C10.9963 12.1094 11.2587 11.8471 11.2587 11.5235V8.75545C11.5361 8.85392 11.8453 8.73068 11.978 8.46517ZM8.91491 10.9375V10.3516C8.91491 10.028 8.65257 9.76564 8.32898 9.76564C8.00534 9.76564 7.74304 10.028 7.74304 10.3516V10.9375H6.57116V8.17462L8.32898 7.29572L10.0868 8.17462V10.9375H8.91491Z" fill="black"/>
</g>
<defs>
<clipPath id="clip0_501:8123">
<rect width="20" height="20" fill="white"/>
</clipPath>
</defs>
</svg>
