<svg width="24" height="24" viewBox="0 0 24 24" fill="none" xmlns="http://www.w3.org/2000/svg">
<path d="M20.7424 14.8128C21.0772 14.4393 21.2813 13.9464 21.2813 13.4066C21.2813 12.2435 20.335 11.2972 19.1719 11.2972H17.7656V11.1173C17.7656 10.4873 18.0477 9.89231 18.5396 9.48491C19.8351 8.41185 20.5781 6.8324 20.5781 5.15165C20.5781 2.93113 19.286 0.981365 17.3641 0.0686615C16.8983 -0.152542 16.3594 0.187677 16.3594 0.703771V3.56305H13.5469V0.703818C13.5469 0.188052 13.0082 -0.152682 12.5421 0.0687084C10.62 0.981506 9.32813 2.93151 9.32813 5.15169C9.32813 6.36782 9.71738 7.53074 10.4232 8.48732C8.85652 8.53856 7.51153 9.61771 7.12903 11.1478L7.09163 11.2973H3.70313C3.31481 11.2973 3 11.6121 3 12.0004C3 12.3887 3.31481 12.7035 3.70313 12.7035H7.64063C7.96327 12.7035 8.24452 12.484 8.32275 12.1709L8.49328 11.4889C8.7285 10.5481 9.57 9.89113 10.5397 9.89113H11.745C12 10.247 12.1406 10.6733 12.1406 11.1174V11.2973H11.1563C10.7679 11.2973 10.4531 11.6122 10.4531 12.0005C10.4531 12.3888 10.7679 12.7036 11.1563 12.7036H19.1719C19.5596 12.7036 19.875 13.019 19.875 13.4067C19.875 13.7945 19.5596 14.1098 19.1719 14.1098H16.3594C15.9711 14.1098 15.6563 14.4247 15.6563 14.813C15.6563 15.2013 15.9711 15.5161 16.3594 15.5161H19.1719C19.5596 15.5161 19.875 15.8315 19.875 16.2192C19.875 16.607 19.5596 16.9223 19.1719 16.9223H16.3594C15.9711 16.9223 15.6563 17.2372 15.6563 17.6255C15.6563 18.0138 15.9711 18.3286 16.3594 18.3286H19.1719C19.5596 18.3286 19.875 18.644 19.875 19.0317C19.875 19.4195 19.5596 19.7348 19.1719 19.7348H16.3594C15.9711 19.7348 15.6563 20.0497 15.6563 20.438C15.6563 20.8263 15.9711 21.1411 16.3594 21.1411H19.1719C19.5596 21.1411 19.875 21.4565 19.875 21.8442C19.875 22.2577 19.5385 22.5942 19.125 22.5942H9.21286C8.5111 22.5942 7.8802 22.2043 7.56638 21.5767C7.44727 21.3385 7.20385 21.188 6.9375 21.188H3.70313C3.31481 21.188 3 21.5028 3 21.8911C3 22.2795 3.31481 22.5943 3.70313 22.5943H6.53724C7.13756 23.4709 8.12714 24 9.21286 24H19.125C20.3139 24 21.2813 23.0327 21.2813 21.8438C21.2813 21.304 21.0772 20.811 20.7424 20.4376C21.4614 19.6355 21.4606 18.4265 20.7424 17.6252C21.4614 16.823 21.4606 15.614 20.7424 14.8128ZM12.2637 8.40196C10.2785 6.75763 10.216 3.74099 12.1406 2.00929V4.26618C12.1406 4.65449 12.4554 4.9693 12.8438 4.9693H17.0625C17.4508 4.9693 17.7656 4.65449 17.7656 4.26618V2.00929C19.6897 3.74048 19.6284 6.75707 17.6425 8.40196C16.8271 9.07738 16.3594 10.0671 16.3594 11.1173V11.2972H13.5469V11.1173C13.5469 10.0671 13.0792 9.07743 12.2637 8.40196Z" fill="black"/>
</svg>
