<svg width="24" height="24" viewBox="0 0 24 24" fill="none" xmlns="http://www.w3.org/2000/svg">
<path d="M17.4753 2H8.0888C7.75837 2 7.49052 2.26789 7.49052 2.59828V6.56626C7.49052 6.89669 7.75837 7.16454 8.0888 7.16454H9.9799V9.28779C9.9799 9.61822 10.2478 9.88607 10.5782 9.88607C10.9086 9.88607 11.1765 9.61818 11.1765 9.28779V7.16454H15.7564V17.0641H13.5056C14.2823 16.3036 14.7651 15.2441 14.7651 14.0737C14.7651 13.7433 14.4972 13.4755 14.1669 13.4755H6.9895C6.65907 13.4755 6.39122 13.7433 6.39122 14.0737C6.39122 15.2441 6.87407 16.3036 7.65079 17.0641H3.67738C3.34695 17.0641 3.0791 17.332 3.0791 17.6624V21.4017C3.0791 21.7321 3.34695 22 3.67738 22H20.3226C20.6531 22 20.9209 21.7321 20.9209 21.4017V5.44563C20.9209 3.54571 19.3752 2 17.4753 2ZM7.64794 14.6721H13.5085C13.2306 16.0353 12.0223 17.0642 10.5782 17.0642C9.13411 17.0642 7.92579 16.0353 7.64794 14.6721ZM19.7243 20.8035H4.27567V18.2608H16.3546C16.6851 18.2608 16.9529 17.9929 16.9529 17.6625V6.56626C16.9529 6.23583 16.6851 5.96798 16.3546 5.96798H8.68708V3.19656H17.4753C18.7154 3.19656 19.7243 4.20547 19.7243 5.44563V20.8035Z" fill="black"/>
<path d="M16.3553 3.71265C16.355 3.71265 16.3547 3.71265 16.3544 3.71265C16.0244 3.71265 15.7567 3.97991 15.7562 4.31007L15.7554 4.84062C15.7549 5.17109 16.0224 5.43933 16.3528 5.4398C16.3531 5.4398 16.3534 5.4398 16.3537 5.4398C16.6837 5.4398 16.9514 5.17254 16.9519 4.84238L16.9527 4.31183C16.9531 3.98136 16.6857 3.71308 16.3553 3.71265Z" fill="black"/>
<path d="M14.765 3.71033C14.7647 3.71033 14.7644 3.71033 14.7641 3.71033C14.4341 3.71033 14.1663 3.97759 14.1658 4.30775L14.165 4.8383C14.1646 5.16877 14.432 5.43701 14.7625 5.43748C14.7627 5.43748 14.763 5.43748 14.7633 5.43748C15.0933 5.43748 15.3611 5.17022 15.3616 4.84006L15.3624 4.30951C15.3629 3.979 15.0954 3.7108 14.765 3.71033Z" fill="black"/>
</svg>
