<svg width="24" height="24" viewBox="0 0 24 24" fill="none" xmlns="http://www.w3.org/2000/svg">
<g clip-path="url(#clip0_1303:5442)">
<path d="M11.8696 19.0781H8.11963C7.73127 19.0781 7.4165 19.3929 7.4165 19.7812C7.4165 20.1696 7.73127 20.4844 8.11963 20.4844H11.8696C12.2579 20.4844 12.5728 20.1696 12.5728 19.7812C12.5728 19.3929 12.2579 19.0781 11.8696 19.0781Z" fill="black"/>
<path d="M11.8696 16.2656H8.11963C7.73127 16.2656 7.4165 16.5804 7.4165 16.9688C7.4165 17.3571 7.73127 17.6719 8.11963 17.6719H11.8696C12.2579 17.6719 12.5728 17.3571 12.5728 16.9688C12.5728 16.5804 12.2579 16.2656 11.8696 16.2656Z" fill="black"/>
<path d="M22.9401 13.8435L20.6199 11.5233C20.3456 11.2489 19.9001 11.2487 19.6256 11.5233L19.1353 12.0136V2.8125C19.1353 2.42419 18.8204 2.10938 18.4321 2.10938H14.2134V0.703125C14.2134 0.314812 13.8986 0 13.5103 0H6.479C6.09064 0 5.77588 0.314812 5.77588 0.703125V2.10938H1.55713C1.16877 2.10938 0.854004 2.42419 0.854004 2.8125V23.2969C0.854004 23.6852 1.16877 24 1.55713 24H18.4321C18.8204 24 19.1353 23.6852 19.1353 23.2969V18.6427L22.9401 14.8378C23.2146 14.5633 23.2146 14.118 22.9401 13.8435ZM12.8071 1.40625V4.21875H7.18213V1.40625H12.8071ZM17.729 22.5938H2.26025V3.51562H5.77588V4.92188C5.77588 5.31019 6.09064 5.625 6.479 5.625H13.5103C13.8986 5.625 14.2134 5.31019 14.2134 4.92188V3.51562H17.729V13.4198L14.1849 16.9639C14.053 17.0957 13.979 17.2746 13.979 17.4611V19.7812C13.979 20.1696 14.2938 20.4844 14.6821 20.4844H17.0023C17.1889 20.4844 17.3677 20.4103 17.4995 20.2784L17.729 20.0489V22.5938ZM16.7111 19.0781H15.3853V17.7523L20.1227 13.0148L21.4485 14.3407L16.7111 19.0781Z" fill="black"/>
<path d="M14.3736 10.1582C14.5473 9.81086 14.4066 9.38852 14.0592 9.21484L10.3092 7.33984C10.1113 7.24089 9.87829 7.24089 9.68033 7.33984L5.93033 9.21484C5.58299 9.38852 5.44222 9.81086 5.6159 10.1582C5.7764 10.4793 6.14929 10.6233 6.47915 10.5061V13.8282C6.47915 14.2165 6.79391 14.5313 7.18227 14.5313H12.8073C13.1956 14.5313 13.5104 14.2165 13.5104 13.8282V10.5065C13.8433 10.6247 14.2144 10.4768 14.3736 10.1582ZM10.6979 13.125V12.4219C10.6979 12.0336 10.3831 11.7188 9.99477 11.7188C9.60641 11.7188 9.29165 12.0336 9.29165 12.4219V13.125H7.8854V9.80955L9.99477 8.75486L12.1041 9.80955V13.125H10.6979Z" fill="black"/>
</g>
<defs>
<clipPath id="clip0_1303:5442">
<rect width="24" height="24" fill="white"/>
</clipPath>
</defs>
</svg>
