<svg width="20" height="20" viewBox="0 0 20 20" fill="none" xmlns="http://www.w3.org/2000/svg">
<path d="M17.7586 3.33325H2.24185C1.1165 3.33325 0.200195 4.26825 0.200195 5.41661V14.5833C0.200195 15.7316 1.1165 16.6666 2.24185 16.6666H17.7585C18.8839 16.6666 19.8002 15.7316 19.8002 14.5833V5.41661C19.8002 4.26825 18.8839 3.33325 17.7586 3.33325ZM18.9836 14.5833C18.9836 15.2724 18.434 15.8333 17.7586 15.8333H2.24185C1.56646 15.8333 1.01685 15.2724 1.01685 14.5833V5.41661C1.01685 4.72743 1.56646 4.16661 2.24185 4.16661H17.7585C18.4339 4.16661 18.9835 4.72743 18.9835 5.41661V14.5833H18.9836Z" fill="#2D3748" stroke="black" stroke-width="0.2"/>
<path d="M19.3918 5.83325H0.608541C0.383141 5.83325 0.200195 6.01993 0.200195 6.24993V8.74993C0.200195 8.97993 0.383141 9.16661 0.608541 9.16661H19.3919C19.6173 9.16661 19.8002 8.97993 19.8002 8.74993V6.24993C19.8002 6.01993 19.6172 5.83325 19.3918 5.83325ZM18.9835 8.33325H1.01685V6.66657H18.9835L18.9835 8.33325Z" fill="#2D3748" stroke="black" stroke-width="0.2"/>
<path d="M16.862 13.2033V13.2033C16.862 13.2533 16.8214 13.2939 16.7714 13.2939H16.0183C15.9683 13.2939 15.9277 13.2533 15.9277 13.2033C15.9277 13.1533 15.9683 13.1128 16.0183 13.1128H16.7714C16.8215 13.1128 16.862 13.1534 16.862 13.2033Z" fill="#2D3748" stroke="#2D3748"/>
<path d="M13.937 12.6128H13.1838C12.8577 12.6128 12.5933 12.8772 12.5933 13.2033C12.5933 13.5295 12.8577 13.7939 13.1838 13.7939H13.937C14.2631 13.7939 14.5275 13.5295 14.5275 13.2033C14.5275 12.8772 14.2631 12.6128 13.937 12.6128Z" fill="black"/>
</svg>
