<svg width="24" height="24" viewBox="0 0 24 24" fill="none" xmlns="http://www.w3.org/2000/svg">
<g clip-path="url(#clip0_1826_5228)">
<path d="M21.1293 7.86715L16.9157 4.27626L11.9531 0.046875L-0.046875 10.2739L2.77698 12.2992V22.6222V22.5V23.9046L21.1293 24V22.5954V22.6222V12.2992L23.9532 10.2739L21.1293 7.86715ZM8.5146 15.5058H15.3917C14.9187 17.7763 12.7777 18.1863 12.6554 18.2637V22.6224H11.2509V18.2637C11.1272 18.1852 8.98775 17.7772 8.5146 15.5058ZM9.84633 14.1017H8.51442C8.68819 13.2673 9.16554 12.5241 9.84633 12.0132V14.1017ZM14.06 14.1017V12.0132C14.7407 12.5241 15.2181 13.2673 15.3919 14.1017H14.06ZM14.06 22.6224V19.2276C15.7586 18.4199 16.8688 16.7002 16.8688 14.8039C16.8688 10.8228 12.7381 9.91006 12.6554 9.85348V14.1017H11.2509V9.85348C11.088 9.96499 7.0373 10.7569 7.0373 14.8039C7.0373 16.7002 8.14766 18.4199 9.84633 19.2276V22.6224H4.18159V12.2615L11.9531 5.59389L19.7247 12.2615V22.6222L14.06 22.6224ZM20.4657 11.0468L11.9531 3.74342L3.44056 11.0468L2.23005 10.1787L11.9531 1.89222L21.6761 10.1787L20.4657 11.0468Z" fill="black"/>
</g>
<defs>
<clipPath id="clip0_1826_5228">
<rect width="24" height="24" fill="white"/>
</clipPath>
</defs>
</svg>
