<svg width="96" height="96" viewBox="0 0 96 96" fill="none" xmlns="http://www.w3.org/2000/svg">
<rect width="96" height="96" rx="48" fill="#E2E8F0"/>
<g clip-path="url(#clip0_14148_53549)">
<path d="M48 54.5C59.3625 54.5 68.5714 45.2111 68.5714 33.75C68.5714 22.2889 59.3625 13 48 13C36.6375 13 27.4286 22.2889 27.4286 33.75C27.4286 45.2111 36.6375 54.5 48 54.5ZM62.4 59.6875H59.7161C56.1482 61.341 52.1786 62.2812 48 62.2812C43.8214 62.2812 39.8679 61.341 36.2839 59.6875H33.6C21.675 59.6875 12 69.4465 12 81.475V88.2188C12 92.5146 15.4554 96 19.7143 96H76.2857C80.5446 96 84 92.5146 84 88.2188V81.475C84 69.4465 74.325 59.6875 62.4 59.6875Z" fill="white"/>
</g>
<defs>
<clipPath id="clip0_14148_53549">
<rect width="72" height="83" fill="white" transform="translate(12 13)"/>
</clipPath>
</defs>
</svg>
