<svg width="64" height="64" viewBox="0 0 64 64" fill="none" xmlns="http://www.w3.org/2000/svg">
<path d="M46.666 58.666H9.33354C8.62681 58.6643 7.94949 58.3829 7.44963 57.8833C6.94978 57.3837 6.66804 56.7065 6.66602 55.9998V5.33354C6.66771 4.62658 6.94929 3.94907 7.44918 3.44918C7.94907 2.94929 8.62658 2.66771 9.33354 2.66602H41.3335V7.99978C41.3356 8.70628 41.6171 9.38328 42.1167 9.88285C42.6163 10.3824 43.2933 10.664 43.9998 10.666H49.3335V55.9998C49.3315 56.7065 49.0498 57.3837 48.5499 57.8833C48.0501 58.3829 47.3727 58.6643 46.666 58.666Z" fill="#EDF2F7"/>
<path d="M49.3335 10.666H43.9997C43.2932 10.664 42.6162 10.3824 42.1167 9.88285C41.6171 9.38328 41.3355 8.70628 41.3335 7.99978V2.66602L49.3335 10.666Z" fill="#A0AEC0"/>
<path d="M27.9998 19.9996H15.9998C15.1998 19.9996 14.666 19.4658 14.666 18.6658C14.666 17.8658 15.1998 17.332 15.9998 17.332H27.9998C28.7998 17.332 29.3335 17.8658 29.3335 18.6658C29.3335 19.4658 28.7998 19.9996 27.9998 19.9996Z" fill="#A0AEC0"/>
<path d="M39.9998 26.6662H15.9998C15.1998 26.6662 14.666 26.1325 14.666 25.3325C14.666 24.5325 15.1998 24 15.9998 24H39.9998C40.7998 24 41.3335 24.5338 41.3335 25.3338C41.3335 26.1338 40.7998 26.6662 39.9998 26.6662Z" fill="#A0AEC0"/>
<path d="M34.666 33.3335H15.9998C15.1998 33.3335 14.666 32.7998 14.666 31.9998C14.666 31.1998 15.1998 30.666 15.9998 30.666H34.666C35.466 30.666 35.9998 31.1998 35.9998 31.9998C35.9998 32.7998 35.466 33.3335 34.666 33.3335Z" fill="#A0AEC0"/>
<path d="M45.3335 61.334C51.9609 61.334 57.3335 55.9614 57.3335 49.334C57.3335 42.7066 51.9609 37.334 45.3335 37.334C38.7061 37.334 33.3335 42.7066 33.3335 49.334C33.3335 55.9614 38.7061 61.334 45.3335 61.334Z" fill="#319795"/>
<path d="M45.3334 55.9998C44.9848 55.9966 44.6404 55.9242 44.32 55.7869C43.9997 55.6496 43.7098 55.45 43.4671 55.1998L39.4658 51.1998C39.213 50.9563 39.0112 50.6649 38.8723 50.3426C38.7334 50.0203 38.6602 49.6735 38.6569 49.3225C38.6535 48.9716 38.7202 48.6235 38.853 48.2986C38.9858 47.9737 39.182 47.6785 39.4302 47.4303C39.6783 47.1822 39.9735 46.986 40.2984 46.8532C40.6233 46.7204 40.9714 46.6537 41.3224 46.657C41.6733 46.6604 42.0201 46.7336 42.3424 46.8725C42.6648 47.0114 42.9562 47.2132 43.1996 47.466L44.5334 48.7998L46.9334 44.1329C47.334 43.1998 48.2671 42.666 49.3334 42.666C49.734 42.666 50.1334 42.794 50.534 42.9323C50.8503 43.0887 51.1325 43.3062 51.3643 43.5723C51.596 43.8384 51.7729 44.1477 51.8845 44.4824C51.9961 44.8172 52.0403 45.1707 52.0146 45.5227C51.9889 45.8746 51.8937 46.2179 51.7346 46.5329L47.7334 54.5278C47.5517 54.9216 47.2729 55.2629 46.9231 55.5195C46.5734 55.776 46.1642 55.9396 45.734 55.9947L45.3334 55.9998Z" fill="url(#paint0_linear_13278_35435)"/>
<path d="M45.3336 54.6658C45.1584 54.6707 44.9843 54.6376 44.8232 54.5686C44.6621 54.4997 44.5179 54.3966 44.4005 54.2664L40.4005 50.2664C40.1565 50.0182 40.0205 49.6837 40.022 49.3357C40.0235 48.9876 40.1624 48.6543 40.4085 48.4082C40.6546 48.1621 40.9879 48.0232 41.336 48.0217C41.684 48.0202 42.0185 48.1562 42.2667 48.4002L44.9278 51.0716L48.1278 44.6716C48.3941 44.0047 49.1941 43.7384 49.861 44.1378C50.5279 44.404 50.7941 45.204 50.3947 45.8709L46.3947 53.8709C46.3261 54.0642 46.1999 54.2318 46.033 54.351C45.8661 54.4703 45.6667 54.5355 45.4616 54.5378C45.4667 54.6658 45.4667 54.6658 45.3336 54.6658Z" fill="white"/>
<defs>
<linearGradient id="paint0_linear_13278_35435" x1="43.3398" y1="44.0523" x2="50.4024" y2="54.8626" gradientUnits="userSpaceOnUse">
<stop stop-color="#319795"/>
<stop offset="1" stop-color="#28D8C1" stop-opacity="0"/>
</linearGradient>
</defs>
</svg>
