<svg width="24" height="24" viewBox="0 0 24 24" fill="none" xmlns="http://www.w3.org/2000/svg">
<g clip-path="url(#clip0_1302:5220)">
<path d="M20.4563 3.54785C18.1691 1.26086 15.1316 0 12.0042 0H11.301V4.26471H12.0042C14.0725 4.26471 16.0147 5.07257 17.4731 6.53101C18.9618 8.01965 19.7816 9.97028 19.7816 12.0234C19.7816 13.8461 19.1356 15.588 17.949 16.9975L16.5441 15.5925L15.0853 22.8869L22.3796 21.4281L20.9395 19.988C22.9209 17.7719 24.0042 14.9698 24.0042 12.0234C24.0042 8.84583 22.7442 5.83575 20.4563 3.54785V3.54785ZM19.5272 20.5644L16.8779 21.0943L17.4078 18.4449L17.9703 19.0074L18.4676 18.5103C20.2217 16.756 21.1878 14.4523 21.1878 12.0234C21.1878 9.59436 20.2217 7.29071 18.4676 5.53656C16.9099 3.97888 14.8859 3.05347 12.7073 2.8894V1.43005C15.2341 1.60089 17.6105 2.69073 19.4619 4.54211C23.657 8.73724 23.657 15.3096 19.4619 19.5046L18.9647 20.0017L19.5272 20.5644Z" fill="black"/>
<path d="M3.55225 20.499C5.80975 22.7567 8.81158 23.9999 12.0044 23.9999H12.7075V19.7836H12.0044C9.93604 19.7836 7.99365 18.9742 6.53522 17.5158C3.67419 14.6548 3.51581 10.0989 6.06043 7.05042L7.46429 8.45428L8.9231 1.15991L1.62872 2.61871L3.0694 4.05939C-1.1153 8.76062 -0.954346 15.9924 3.55225 20.499V20.499ZM4.48114 3.48242L7.13068 2.95251L6.60077 5.60187L6.03809 5.03937L5.54095 5.5365C1.97296 9.10449 1.97351 14.9426 5.54095 18.5103C7.09863 20.0677 9.12268 20.9932 11.3013 21.1572V22.5708C8.7486 22.4038 6.37207 21.3299 4.54669 19.5045C0.421509 15.3793 0.421509 8.66724 4.54669 4.54205L5.04382 4.04492L4.48114 3.48242Z" fill="black"/>
<path d="M12.0044 14.1094C11.6166 14.1094 11.3013 13.7941 11.3013 13.4062H9.89502C9.89502 14.3229 10.4828 15.1046 11.3013 15.3948V16.9688H12.7075V15.3948C13.5258 15.1046 14.1138 14.3229 14.1138 13.4062C14.1138 12.2432 13.1675 11.2969 12.0044 11.2969C11.6166 11.2969 11.3013 10.9814 11.3013 10.5938C11.3013 10.2061 11.6166 9.89062 12.0044 9.89062C12.392 9.89062 12.7075 10.2061 12.7075 10.5938H14.1138C14.1138 9.67712 13.5258 8.89563 12.7075 8.60541V7.07812H11.3013V8.60541C10.4828 8.89563 9.89502 9.67712 9.89502 10.5938C9.89502 11.7568 10.8413 12.7031 12.0044 12.7031C12.392 12.7031 12.7075 13.0186 12.7075 13.4062C12.7075 13.7941 12.392 14.1094 12.0044 14.1094V14.1094Z" fill="black"/>
</g>
<defs>
<clipPath id="clip0_1302:5220">
<rect width="24" height="24" fill="white"/>
</clipPath>
</defs>
</svg>
