<svg width="24" height="24" viewBox="0 0 24 24" fill="none" xmlns="http://www.w3.org/2000/svg">
<path d="M20.1444 11.0786V6.62478C20.1444 5.64286 19.3455 4.84399 18.3636 4.84399H5.63641C4.65449 4.84399 3.85563 5.64286 3.85563 6.62478V11.0786C2.78703 11.3744 2 12.3549 2 13.5163V16.9004C2 17.2283 2.26586 17.4942 2.59375 17.4942H3.85563V18.5623C3.85563 18.8902 4.12148 19.156 4.44937 19.156C4.77727 19.156 5.04312 18.8902 5.04312 18.5623V17.4942H18.9569V18.5623C18.9569 18.8902 19.2227 19.156 19.5506 19.156C19.8785 19.156 20.1444 18.8902 20.1444 18.5623V17.4942H21.4062C21.7341 17.4942 22 17.2283 22 16.9004V13.5163C22 12.3549 21.2129 11.3744 20.1444 11.0786ZM5.04312 6.62478C5.04312 6.29767 5.3093 6.03149 5.63641 6.03149H18.3636C18.6907 6.03149 18.9569 6.29767 18.9569 6.62478V10.9867H17.5657V9.79489C17.5657 8.75853 16.7226 7.9154 15.6862 7.9154H13.2858C12.7887 7.9154 12.3365 8.10966 12 8.42587C11.6636 8.1097 11.2113 7.9154 10.7143 7.9154H8.31387C7.2775 7.9154 6.43437 8.75856 6.43437 9.79489V10.9867H5.04312V6.62478ZM16.3782 9.79489V10.9867H12.5938V9.79489C12.5938 9.41329 12.9042 9.1029 13.2857 9.1029H15.6862C16.0678 9.1029 16.3782 9.41333 16.3782 9.79489ZM11.4062 9.79489V10.9867H7.62176V9.79489C7.62176 9.41329 7.93223 9.1029 8.31375 9.1029H10.7142C11.0958 9.1029 11.4062 9.41333 11.4062 9.79489ZM20.8125 16.3067H3.1875V13.5163C3.1875 12.7763 3.78953 12.1742 4.52957 12.1742H19.4704C20.2104 12.1742 20.8125 12.7763 20.8125 13.5163V16.3067Z" fill="black"/>
</svg>
