<svg width="14" height="14" viewBox="0 0 14 14" fill="none" xmlns="http://www.w3.org/2000/svg">
<path d="M10.3144 12.264C10.3144 12.0748 10.4678 11.9214 10.657 11.9214C10.8461 11.9214 10.9995 12.0748 10.9995 12.264V12.425C10.9995 12.6459 11.1786 12.825 11.3995 12.825H11.867C12.2234 12.825 12.4019 12.394 12.1497 12.142L1.84924 1.84894C1.59722 1.59709 1.1665 1.77559 1.1665 2.13188V12.425C1.1665 12.6459 1.34559 12.825 1.5665 12.825H1.69383C1.91475 12.825 2.09383 12.6459 2.09383 12.425V12.264C2.09383 12.0748 2.24719 11.9215 2.43636 11.9215C2.62553 11.9215 2.77888 12.0748 2.77888 12.264V12.425C2.77888 12.6459 2.95797 12.825 3.17888 12.825H3.33795C3.55887 12.825 3.73795 12.6459 3.73795 12.425V12.264C3.73795 12.0748 3.8913 11.9215 4.08048 11.9215C4.26965 11.9215 4.423 12.0748 4.423 12.264V12.425C4.423 12.6459 4.60209 12.825 4.823 12.825H4.98207C5.20298 12.825 5.38207 12.6459 5.38207 12.425V12.264C5.38207 12.0748 5.53542 11.9215 5.7246 11.9215C5.91377 11.9215 6.06712 12.0748 6.06712 12.264V12.425C6.06712 12.6459 6.24621 12.825 6.46712 12.825H6.62619C6.8471 12.825 7.02619 12.6459 7.02619 12.425V12.264C7.02619 12.0748 7.17954 11.9215 7.36871 11.9215C7.55789 11.9215 7.71124 12.0748 7.71124 12.264V12.425C7.71124 12.6459 7.89032 12.825 8.11124 12.825H8.27031C8.49122 12.825 8.67031 12.6459 8.67031 12.425V12.264C8.67031 12.0748 8.82366 11.9215 9.01283 11.9215C9.202 11.9215 9.35536 12.0748 9.35536 12.264V12.425C9.35536 12.6459 9.53444 12.825 9.75536 12.825H9.91443C10.1353 12.825 10.3144 12.6459 10.3144 12.425V12.264ZM6.43409 9.76813C6.68621 10.0201 6.50778 10.4511 6.15135 10.4511H3.96578C3.74486 10.4511 3.56578 10.272 3.56578 10.0511V7.86709C3.56578 7.5108 3.99649 7.3323 4.24852 7.58414L6.43409 9.76813Z" fill="#A0AEC0"/>
</svg>
