<svg width="24" height="24" viewBox="0 0 24 24" fill="none" xmlns="http://www.w3.org/2000/svg">
<g clip-path="url(#clip0)">
<path d="M21.4136 18.6793H21.2652V7.7581C21.5812 7.37634 21.7714 6.88681 21.7714 6.35364C21.7714 5.13728 20.7818 4.14771 19.5655 4.14771C18.3491 4.14771 17.3595 5.13728 17.3595 6.35364C17.3595 6.88044 17.5454 7.36446 17.8546 7.74427C17.6704 10.8138 15.115 13.2548 12 13.2548C8.88488 13.2548 6.32957 10.8138 6.14527 7.74427C6.45453 7.36454 6.64039 6.88048 6.64039 6.35368C6.64039 5.13731 5.65082 4.14774 4.43445 4.14774C3.21809 4.14774 2.22855 5.13728 2.22855 6.3536C2.22855 6.88677 2.41871 7.3763 2.73473 7.75806V18.6792H2.58641C2.26258 18.6792 2 18.9418 2 19.2657C2 19.5895 2.26258 19.8521 2.58645 19.8521H6.28258C6.60645 19.8521 6.86902 19.5895 6.86902 19.2657C6.86902 18.9418 6.60645 18.6792 6.28258 18.6792H6.1343V11.2748C7.39629 13.1734 9.5543 14.4276 12 14.4276C14.4458 14.4276 16.6038 13.1734 17.8658 11.2748V18.6793H17.7175C17.3936 18.6793 17.131 18.9418 17.131 19.2657C17.131 19.5896 17.3936 19.8522 17.7175 19.8522H21.4136C21.7375 19.8522 22 19.5896 22 19.2657C22 18.9418 21.7374 18.6793 21.4136 18.6793ZM4.96141 18.6793H3.90766V8.49544C4.0766 8.537 4.25293 8.5595 4.43453 8.5595C4.61609 8.5595 4.79246 8.537 4.96141 8.49544V18.6793ZM4.43453 7.38661C3.86488 7.38661 3.40148 6.92321 3.40148 6.3536C3.40148 5.78396 3.86488 5.32056 4.43453 5.32056C5.00418 5.32056 5.46758 5.78396 5.46758 6.3536C5.46754 6.92321 5.00414 7.38661 4.43453 7.38661ZM20.0924 18.6793H20.0923H19.0387V8.49544C19.2076 8.537 19.3839 8.5595 19.5655 8.5595C19.7471 8.5595 19.9235 8.537 20.0924 8.49544V18.6793H20.0924ZM19.5655 7.38661C18.9959 7.38661 18.5324 6.92321 18.5324 6.3536C18.5324 5.78396 18.9959 5.32056 19.5655 5.32056C20.1351 5.32056 20.5985 5.78396 20.5985 6.3536C20.5985 6.92321 20.1351 7.38661 19.5655 7.38661Z" fill="black"/>
</g>
<defs>
<clipPath id="clip0">
<rect width="20" height="20" fill="white" transform="translate(2 2)"/>
</clipPath>
</defs>
</svg>
