<svg width="32" height="32" viewBox="0 0 32 32" fill="none" xmlns="http://www.w3.org/2000/svg">
<path d="M0 6C0 2.68629 2.68629 0 6 0H26C29.3137 0 32 2.68629 32 6V26C32 29.3137 29.3137 32 26 32H6C2.68629 32 0 29.3137 0 26V6Z" fill="black" fill-opacity="0.36"/>
<path d="M18.268 22V17.356H19.8233L20.056 15.5507H18.268V14.3987C18.268 13.876 18.4133 13.5193 19.1627 13.5193H20.1187V11.9047C19.6559 11.8556 19.1907 11.8317 18.7253 11.8333C17.3473 11.8333 16.404 12.6747 16.404 14.22V15.5507H14.8453V17.356H16.404V22H10.6667C10.4899 22 10.3203 21.9298 10.1953 21.8047C10.0702 21.6797 10 21.5101 10 21.3333V10.6667C10 10.4899 10.0702 10.3203 10.1953 10.1953C10.3203 10.0702 10.4899 10 10.6667 10H21.3333C21.5101 10 21.6797 10.0702 21.8047 10.1953C21.9298 10.3203 22 10.4899 22 10.6667V21.3333C22 21.5101 21.9298 21.6797 21.8047 21.8047C21.6797 21.9298 21.5101 22 21.3333 22H18.268V22Z" fill="white"/>
</svg>
