<svg width="24" height="24" viewBox="0 0 24 24" fill="none" xmlns="http://www.w3.org/2000/svg">
<path d="M4.31787 20.9016C4.31787 21.012 4.40741 21.1016 4.51787 21.1016H16.6701C16.7805 21.1016 16.8701 21.012 16.8701 20.9016V17.9683C16.8701 17.8578 16.9596 17.7683 17.0701 17.7683H21.8002C21.9107 17.7683 22.0002 17.6787 22.0002 17.5683V5.40129C22.0002 5.29084 21.9107 5.20129 21.8002 5.20129H4.51787C4.40741 5.20129 4.31787 5.29084 4.31787 5.40129V20.9016ZM5.48975 6.57317C5.48975 6.46271 5.57929 6.37317 5.68975 6.37317H20.6283C20.7388 6.37317 20.8283 6.46271 20.8283 6.57317V16.3964C20.8283 16.5069 20.7388 16.5964 20.6283 16.5964H15.8982C15.7877 16.5964 15.6982 16.6859 15.6982 16.7964V19.7297C15.6982 19.8401 15.6086 19.9297 15.4982 19.9297H5.68975C5.57929 19.9297 5.48975 19.8401 5.48975 19.7297V6.57317Z" fill="#2D3748"/>
<path d="M4.31787 3.05937C4.31787 2.94892 4.40741 2.85938 4.51787 2.85938H21.8002C21.9107 2.85938 22.0002 2.94892 22.0002 3.05938V3.83125C22.0002 3.94171 21.9107 4.03125 21.8002 4.03125H4.51787C4.40741 4.03125 4.31787 3.94171 4.31787 3.83125V3.05937Z" fill="#2D3748"/>
<path d="M2 5.40129C2 5.29084 2.08954 5.20129 2.2 5.20129H2.97188C3.08233 5.20129 3.17188 5.29084 3.17188 5.40129V20.9016C3.17188 21.012 3.08233 21.1016 2.97188 21.1016H2.2C2.08954 21.1016 2 21.012 2 20.9016V5.40129Z" fill="#2D3748"/>
</svg>
