<svg width="14" height="14" viewBox="0 0 14 14" fill="none" xmlns="http://www.w3.org/2000/svg">
<path d="M6.99992 0.333496C3.31659 0.333496 0.333253 3.31683 0.333253 7.00016C0.332497 8.39968 0.772462 9.7639 1.59073 10.8993C2.409 12.0347 3.56402 12.8835 4.89192 13.3255C5.22525 13.3835 5.34992 13.1835 5.34992 13.0082C5.34992 12.8502 5.34125 12.3255 5.34125 11.7668C3.66659 12.0755 3.23325 11.3588 3.09992 10.9835C3.02459 10.7915 2.69992 10.2002 2.41659 10.0415C2.18325 9.91683 1.84992 9.60816 2.40792 9.60016C2.93325 9.5915 3.30792 10.0835 3.43325 10.2835C4.03325 11.2915 4.99192 11.0082 5.37459 10.8335C5.43325 10.4002 5.60792 10.1088 5.79992 9.94216C4.31659 9.7755 2.76659 9.20016 2.76659 6.65016C2.76659 5.92483 3.02459 5.3255 3.44992 4.85816C3.38325 4.6915 3.14992 4.00816 3.51659 3.0915C3.51659 3.0915 4.07459 2.91683 5.34992 3.7755C5.89263 3.62487 6.45336 3.54906 7.01659 3.55016C7.58325 3.55016 8.14992 3.62483 8.68325 3.77483C9.95792 2.90816 10.5166 3.09216 10.5166 3.09216C10.8833 4.00883 10.6499 4.69216 10.5833 4.85883C11.0079 5.3255 11.2666 5.91683 11.2666 6.65016C11.2666 9.20883 9.70859 9.7755 8.22525 9.94216C8.46659 10.1502 8.67525 10.5502 8.67525 11.1755C8.67525 12.0668 8.66659 12.7835 8.66659 13.0088C8.66659 13.1835 8.79192 13.3915 9.12525 13.3248C10.4486 12.878 11.5985 12.0275 12.4132 10.8929C13.2278 9.75837 13.6662 8.39691 13.6666 7.00016C13.6666 3.31683 10.6833 0.333496 6.99992 0.333496Z" fill="#1A202C"/>
</svg>
