<svg width="14" height="14" viewBox="0 0 14 14" fill="none" xmlns="http://www.w3.org/2000/svg">
<path d="M6.99968 0.333336C3.31634 0.333336 0.333009 3.31667 0.333009 7C0.332253 8.39952 0.772218 9.76374 1.59049 10.8991C2.40875 12.0345 3.56377 12.8834 4.89168 13.3253C5.22501 13.3833 5.34967 13.1833 5.34967 13.008C5.34967 12.85 5.34101 12.3253 5.34101 11.7667C3.66634 12.0753 3.23301 11.3587 3.09968 10.9833C3.02434 10.7913 2.69968 10.2 2.41634 10.0413C2.18301 9.91667 1.84968 9.608 2.40768 9.6C2.93301 9.59134 3.30768 10.0833 3.43301 10.2833C4.03301 11.2913 4.99168 11.008 5.37434 10.8333C5.43301 10.4 5.60768 10.1087 5.79968 9.942C4.31634 9.77534 2.76634 9.2 2.76634 6.65C2.76634 5.92467 3.02434 5.32534 3.44968 4.858C3.38301 4.69134 3.14968 4.008 3.51634 3.09134C3.51634 3.09134 4.07434 2.91667 5.34967 3.77534C5.89238 3.62471 6.45312 3.5489 7.01634 3.55C7.58301 3.55 8.14967 3.62467 8.68301 3.77467C9.95767 2.908 10.5163 3.092 10.5163 3.092C10.883 4.00867 10.6497 4.692 10.583 4.85867C11.0077 5.32534 11.2663 5.91667 11.2663 6.65C11.2663 9.20867 9.70834 9.77534 8.22501 9.942C8.46634 10.15 8.67501 10.55 8.67501 11.1753C8.67501 12.0667 8.66634 12.7833 8.66634 13.0087C8.66634 13.1833 8.79167 13.3913 9.12501 13.3247C10.4484 12.8779 11.5983 12.0273 12.4129 10.8928C13.2276 9.75821 13.666 8.39675 13.6663 7C13.6663 3.31667 10.683 0.333336 6.99968 0.333336Z" fill="#F7FAFC"/>
</svg>
