<svg width="21" height="21" viewBox="0 0 21 21" fill="none" xmlns="http://www.w3.org/2000/svg">
<path d="M20.3837 8.88927C20.5086 9.55871 20.5767 10.2586 20.5767 10.989C20.5767 16.7022 16.7531 20.7645 10.978 20.7645C9.66463 20.7649 8.36409 20.5065 7.15066 20.0041C5.93722 19.5017 4.83467 18.7652 3.90601 17.8365C2.97734 16.9078 2.24076 15.8053 1.73836 14.5918C1.23595 13.3784 0.977566 12.0779 0.977967 10.7645C0.977566 9.45119 1.23595 8.15065 1.73836 6.93722C2.24076 5.72378 2.97734 4.62123 3.90601 3.69257C4.83467 2.7639 5.93722 2.02732 7.15066 1.52492C8.36409 1.02251 9.66463 0.764126 10.978 0.764527C13.6781 0.764527 15.9343 1.75803 17.6653 3.37119L14.8463 6.19017V6.18305C13.7969 5.18346 12.4652 4.67046 10.978 4.67046C7.67849 4.67046 4.99666 7.45794 4.99666 10.7584C4.99666 14.0579 7.67849 16.8515 10.978 16.8515C13.9717 16.8515 16.0095 15.1398 16.428 12.7891H10.978V8.88927H20.3847H20.3837Z" fill="#C53030"/>
</svg>
