<svg width="24" height="24" viewBox="0 0 24 24" fill="none" xmlns="http://www.w3.org/2000/svg">
<g clip-path="url(#clip0)">
<path d="M16.0189 4.69629H6.50363C4.02035 4.69629 2 6.7166 2 9.19996C2 10.7391 2.77633 12.1002 3.95781 12.9129V15.831C3.95781 17.7459 5.5157 19.3037 7.43055 19.3037C8.32344 19.3037 9.04988 18.5773 9.04988 17.6844V12.9126C10.0781 12.2052 10.7993 11.0825 10.9689 9.7884H16.019C16.3438 9.7884 16.6072 9.52504 16.6072 9.20016V5.28453C16.6072 4.95965 16.3438 4.69629 16.0189 4.69629ZM7.87336 17.6843C7.87336 17.9285 7.67469 18.1272 7.43051 18.1272C6.16434 18.1272 5.13422 17.0971 5.13422 15.8309V13.4904C5.56625 13.6286 6.02629 13.7035 6.50359 13.7035C6.98102 13.7035 7.44121 13.6286 7.87336 13.4903V17.6843ZM6.50363 12.5271C4.66906 12.5271 3.17645 11.0345 3.17645 9.19992C3.17645 7.36531 4.66902 5.87273 6.50363 5.87273C8.33824 5.87273 9.83082 7.36527 9.83082 9.19992C9.83082 11.0345 8.33824 12.5271 6.50363 12.5271ZM15.4307 8.61191H10.9689C10.8275 7.53258 10.3026 6.57227 9.5357 5.87277H15.4307V8.61191H15.4307Z" fill="black"/>
<path d="M6.50377 6.89685C5.23385 6.89685 4.20068 7.93001 4.20068 9.19993C4.20068 10.4699 5.23385 11.503 6.50377 11.503C7.77369 11.503 8.80686 10.4699 8.80686 9.19993C8.80689 7.93005 7.77369 6.89685 6.50377 6.89685ZM6.50373 10.3266C5.88252 10.3266 5.37709 9.82114 5.37709 9.19993C5.37709 8.57872 5.88252 8.07329 6.50373 8.07329C7.12494 8.07329 7.63037 8.57872 7.63037 9.19993C7.63037 9.82118 7.12494 10.3266 6.50373 10.3266Z" fill="black"/>
<path d="M21.4117 4.69629H18.2589C17.9341 4.69629 17.6707 4.95965 17.6707 5.28453C17.6707 5.60937 17.934 5.87277 18.2589 5.87277H21.4117C21.7366 5.87277 22 5.60941 22 5.28453C22 4.95965 21.7366 4.69629 21.4117 4.69629Z" fill="black"/>
<path d="M21.4117 6.65405H18.2589C17.9341 6.65405 17.6707 6.91741 17.6707 7.24229C17.6707 7.56717 17.934 7.83053 18.2589 7.83053H21.4117C21.7366 7.83053 22 7.56717 22 7.24229C22 6.91741 21.7366 6.65405 21.4117 6.65405Z" fill="black"/>
<path d="M21.4117 8.61194H18.2589C17.9341 8.61194 17.6707 8.8753 17.6707 9.20018C17.6707 9.52506 17.934 9.78842 18.2589 9.78842H21.4117C21.7366 9.78842 22 9.52506 22 9.20018C22 8.8753 21.7366 8.61194 21.4117 8.61194Z" fill="black"/>
</g>
<defs>
<clipPath id="clip0">
<rect width="20" height="20" fill="white" transform="translate(2 2)"/>
</clipPath>
</defs>
</svg>
