<svg width="24" height="24" viewBox="0 0 24 24" fill="none" xmlns="http://www.w3.org/2000/svg">
<g clip-path="url(#clip0)">
<path d="M20.4462 4.33194C19.4635 3.27561 18.0864 2.67458 16.6436 2.67235C15.1996 2.67402 13.8211 3.27474 12.8368 4.33126L12.5014 4.68573L12.1659 4.33126C10.2129 2.22924 6.92554 2.10852 4.82355 4.06158C4.73041 4.14816 4.64045 4.23808 4.55387 4.33126C2.48204 6.56598 2.48204 10.0196 4.55387 12.2544L12.0084 20.1157C12.2663 20.3879 12.6961 20.3996 12.9684 20.1417C12.9773 20.1332 12.986 20.1246 12.9944 20.1157L20.4463 12.2544C22.5179 10.0199 22.5179 6.56642 20.4462 4.33194ZM19.4637 11.3193H19.463L12.5014 18.6618L5.53917 11.3193C3.95642 9.61177 3.95642 6.97317 5.53917 5.26564C6.97651 3.70779 9.40463 3.61011 10.9625 5.04744C11.0381 5.11723 11.1109 5.19 11.1807 5.26564L12.0084 6.1389C12.2812 6.40993 12.7216 6.40993 12.9944 6.1389L13.8221 5.26631C15.2595 3.70846 17.6876 3.61079 19.2455 5.04812C19.3211 5.11791 19.3939 5.19068 19.4637 5.26631C21.0602 6.97655 21.0719 9.61997 19.4637 11.3193Z" fill="#2D3748"/>
<path d="M-0.391922 242.888C2.61607 245.96 6.71208 247.667 11.0001 247.667C15.2881 247.667 19.3841 245.96 22.3921 242.888L227.064 35.5066C280.205 -18.3174 280.205 -105.933 227.064 -159.779C201.251 -185.933 166.925 -200.333 130.381 -200.333C93.8374 -200.333 59.5334 -185.933 33.7201 -159.8L11.0001 -136.76L-11.7199 -159.779C-37.5332 -185.933 -71.8586 -200.333 -108.381 -200.333C-144.925 -200.333 -179.251 -185.933 -205.064 -159.779C-258.205 -105.933 -258.205 -18.3174 -205.064 35.4853L-0.391922 242.888ZM-182.301 -137.315C-162.547 -157.304 -136.285 -168.333 -108.403 -168.333C-80.4986 -168.333 -54.2586 -157.304 -34.5252 -137.293L-0.413239 -102.733C5.58142 -96.6534 16.3547 -96.6534 22.3494 -102.733L56.4614 -137.315C76.2588 -157.304 102.499 -168.333 130.381 -168.333C158.285 -168.333 184.525 -157.304 204.28 -137.315C245.176 -95.864 245.176 -28.4294 204.28 13.0426L11.0001 208.904L-182.301 13.0213C-223.197 -28.408 -223.197 -95.864 -182.301 -137.315Z" fill="black"/>
</g>
<defs>
<clipPath id="clip0">
<rect width="24" height="24" fill="white"/>
</clipPath>
</defs>
</svg>
