<svg width="20" height="20" viewBox="0 0 20 20" fill="none" xmlns="http://www.w3.org/2000/svg">
<path d="M18.3333 4.24439C17.5889 2.71661 15.4445 1.46661 12.95 2.19439C11.758 2.53869 10.7181 3.27705 10 4.28883C9.28194 3.27705 8.24197 2.53869 7.05001 2.19439C4.55001 1.47772 2.41112 2.71661 1.66667 4.24439C0.62223 6.38328 1.05556 8.78883 2.95556 11.3944C4.44445 13.4333 6.57223 15.4999 9.66112 17.8999C9.75874 17.9761 9.87899 18.0174 10.0028 18.0174C10.1266 18.0174 10.2468 17.9761 10.3445 17.8999C13.4278 15.5055 15.5611 13.4555 17.05 11.3944C18.9445 8.78883 19.3778 6.38328 18.3333 4.24439Z" fill="#C53030"/>
</svg>
