<svg width="16" height="16" viewBox="0 0 16 16" fill="none" xmlns="http://www.w3.org/2000/svg">
<path d="M9.01695 9.43222C8.41964 9.43222 7.8323 9.49659 7.26255 9.62138L8.20114 8.68278C10.2559 8.61719 12.1781 7.78653 13.6386 6.32606C15.1614 4.80325 16 2.77859 16 0.625C16 0.279813 15.7202 0 15.375 0C13.2215 0 11.1968 0.838656 9.67395 2.36144C8.21348 3.82194 7.38283 5.74412 7.31723 7.79887L6.3292 8.78691C6.46592 8.19197 6.53655 7.57734 6.53655 6.95178C6.53655 4.78463 5.69383 2.74713 4.16367 1.21463C4.04642 1.09722 3.8873 1.03125 3.72139 1.03125C3.55548 1.03125 3.39636 1.09722 3.27911 1.21466C1.74895 2.74716 0.906266 4.78466 0.906266 6.95181C0.906266 8.91681 1.59908 10.7752 2.86895 12.2472L0.183047 14.9331C-0.0610156 15.1772 -0.0610156 15.5729 0.183047 15.8169C0.305109 15.939 0.465078 16 0.625016 16C0.784953 16 0.944922 15.939 1.06698 15.8169L3.75586 13.1281C5.23027 14.3826 7.09773 15.0628 9.01808 15.0627C9.51752 15.0626 10.021 15.0166 10.5215 14.9227C10.8607 14.8591 11.0842 14.5325 11.0205 14.1932C10.9569 13.854 10.6301 13.6304 10.291 13.6941C8.2753 14.0722 6.21261 13.5336 4.65036 12.2472C7.17664 10.1645 10.8575 10.1646 13.3838 12.2474C13.2535 12.355 13.1195 12.4576 12.9825 12.5547C12.7008 12.7542 12.6342 13.1443 12.8337 13.4259C13.0333 13.7076 13.4233 13.7742 13.705 13.5747C14.0767 13.3114 14.4297 13.0136 14.7541 12.6896C14.8715 12.5724 14.9375 12.4132 14.9375 12.2473C14.9375 12.0814 14.8715 11.9223 14.7541 11.8051C13.2216 10.2749 11.1841 9.43222 9.01695 9.43222ZM14.7186 1.28134C14.408 4.51475 11.8273 7.09547 8.59389 7.40613C8.90452 4.17275 11.4852 1.592 14.7186 1.28134ZM3.72142 2.585C5.80414 5.11128 5.80414 8.79231 3.72139 11.3186C1.63864 8.79231 1.63864 5.11131 3.72142 2.585Z" fill="url(#paint0_linear_13685_47549)"/>
<defs>
<linearGradient id="paint0_linear_13685_47549" x1="1.5625e-05" y1="8" x2="16" y2="8" gradientUnits="userSpaceOnUse">
<stop stop-color="#319795"/>
<stop offset="0.140625" stop-color="#319795"/>
<stop offset="0.2931" stop-color="#28D8C1"/>
<stop offset="0.5538" stop-color="#42C0B5"/>
<stop offset="0.7956" stop-color="#319795"/>
<stop offset="1" stop-color="#319795"/>
</linearGradient>
</defs>
</svg>
