<svg width="20" height="20" viewBox="0 0 20 20" fill="none" xmlns="http://www.w3.org/2000/svg">
<path d="M16.0483 7.71484L10 1.6665L2.5 9.1665H4.16667V14.9998C4.16667 15.4419 4.34226 15.8658 4.65482 16.1783C4.96738 16.4909 5.39131 16.6665 5.83333 16.6665H9.16667" stroke="#718096" stroke-width="1.5" stroke-linecap="round" stroke-linejoin="round"/>
<path d="M7.5 16.6667V11.6667C7.5 11.2246 7.6756 10.8007 7.98816 10.4882C8.30072 10.1756 8.72464 10 9.16667 10H10.4167M14.8333 16.5142L13.0233 17.4625C12.9696 17.4905 12.9092 17.5029 12.8488 17.4985C12.7884 17.4941 12.7304 17.473 12.6813 17.4376C12.6322 17.4022 12.5939 17.3538 12.5708 17.2978C12.5476 17.2419 12.5404 17.1806 12.55 17.1208L12.8958 15.1117L11.4317 13.6892C11.388 13.6469 11.357 13.5932 11.3424 13.5342C11.3277 13.4752 11.3299 13.4133 11.3488 13.3555C11.3677 13.2978 11.4024 13.2464 11.449 13.2074C11.4956 13.1684 11.5523 13.1433 11.6125 13.135L13.6358 12.8417L14.5408 11.0142C14.5679 10.9597 14.6096 10.9139 14.6613 10.8819C14.713 10.8499 14.7725 10.8329 14.8333 10.8329C14.8941 10.8329 14.9537 10.8499 15.0054 10.8819C15.0571 10.9139 15.0988 10.9597 15.1258 11.0142L16.0308 12.8417L18.0542 13.135C18.1142 13.1436 18.1706 13.1689 18.217 13.2079C18.2635 13.247 18.298 13.2982 18.3169 13.3559C18.3357 13.4135 18.338 13.4753 18.3235 13.5342C18.309 13.5931 18.2784 13.6468 18.235 13.6892L16.7708 15.1117L17.1158 17.12C17.1262 17.1799 17.1195 17.2415 17.0966 17.2978C17.0738 17.3541 17.0355 17.4028 16.9863 17.4385C16.9371 17.4742 16.8789 17.4953 16.8183 17.4996C16.7576 17.5038 16.697 17.491 16.6433 17.4625L14.8333 16.5142Z" stroke="#718096" stroke-width="1.5" stroke-linecap="round" stroke-linejoin="round"/>
</svg>
