<svg width="24" height="32" viewBox="0 0 24 32" fill="none" xmlns="http://www.w3.org/2000/svg">
<path d="M11.7362 20.806C16.5392 20.806 20.4328 16.8198 20.4328 11.9025C20.4328 6.98526 16.5392 2.99902 11.7362 2.99902C6.93317 2.99902 3.03955 6.98526 3.03955 11.9025C3.03955 16.8198 6.93317 20.806 11.7362 20.806Z" fill="#242E2E"/>
<path d="M11.7252 0.0110826C17.0561 0.0226156 21.626 3.55213 23.0184 8.80702C23.9956 12.4944 23.3578 15.9257 21.1822 19.0519C18.3494 23.1234 15.5259 27.2018 12.7117 31.2871C12.0626 32.2257 11.3869 32.2428 10.7368 31.307C7.87522 27.1829 5.01752 23.0558 2.16371 18.9257C0.892308 17.0818 0.0660733 15.0482 0.00547502 12.772C-0.0784303 9.62845 0.800435 6.77343 2.75415 4.32106C4.79196 1.76351 7.45557 0.359859 10.6543 0.0176454C11.0109 -0.00343899 11.3684 -0.00563016 11.7252 0.0110826ZM11.7182 20.5286C16.3091 20.5781 20.1022 16.7469 20.1583 12.0037C20.1801 10.8663 19.9824 9.73567 19.5765 8.67668C19.1706 7.61768 18.5646 6.65111 17.7931 5.8324C17.0216 5.01369 16.0998 4.35893 15.0807 3.90567C14.0615 3.45241 12.965 3.20956 11.854 3.19105C10.7429 3.17253 9.63928 3.37872 8.60625 3.79778C7.57321 4.21684 6.63114 4.84054 5.83403 5.63311C5.03692 6.42568 4.40046 7.37154 3.96114 8.41646C3.52181 9.46137 3.28827 10.5848 3.2739 11.7223C3.16941 16.4149 6.9131 20.5554 11.7182 20.5286Z" fill="white"/>
<path d="M6.46667 6.8856H8.40213L8.44641 7.83429C8.9514 7.44078 9.39714 7.09638 9.84017 6.74959C10.2653 6.41652 10.6819 6.07173 11.1143 5.7488C11.5664 5.41077 11.9013 5.39088 12.341 5.73428C14.4926 7.41559 16.6377 9.10578 18.7761 10.8048C19.0814 11.0466 19.2601 11.3447 19.0035 11.7498C18.8944 11.9253 18.7268 12.0543 18.5319 12.1128C18.3369 12.1713 18.1278 12.1553 17.9434 12.0679C17.7431 11.969 17.5562 11.8438 17.3874 11.6957C15.6756 10.3524 13.9654 9.00722 12.2567 7.66011C11.783 7.28747 11.7005 7.2994 11.213 7.68337C9.44447 9.07529 7.67378 10.4648 5.90089 11.8518C5.58139 12.1025 5.24771 12.2821 4.82974 12.1164C4.27872 11.8977 4.13577 11.3238 4.57356 10.9244C5.04999 10.4895 5.56605 10.0985 6.07861 9.70742C6.20831 9.61888 6.31291 9.49689 6.38186 9.35376C6.45081 9.21062 6.48167 9.0514 6.47133 8.89215C6.45521 8.23855 6.46667 7.58474 6.46667 6.8856Z" fill="white"/>
<path d="M9.22607 16.3168V14.4053H11.0798V16.3168H9.22607Z" fill="#00FCF1"/>
<path d="M12.353 16.3168V14.4053H14.2067V16.3168H12.353Z" fill="#00FCF1"/>
<path d="M12.353 13.2279V11.3164H14.2067V13.2279H12.353Z" fill="#00FCF1"/>
<path d="M9.22607 13.2279V11.3164H11.0798V13.2279H9.22607Z" fill="#00FCF1"/>
</svg>
