<svg width="24" height="24" viewBox="0 0 24 24" fill="none" xmlns="http://www.w3.org/2000/svg">
<path d="M13.9246 10.9327C15.2745 10.9327 16.3726 9.83157 16.3726 8.47805C16.3726 7.12453 15.2745 6.02344 13.9246 6.02344C12.5747 6.02344 11.4766 7.12453 11.4766 8.47805C11.4766 9.83157 12.5747 10.9327 13.9246 10.9327ZM13.9246 7.19531C14.6283 7.19531 15.2008 7.77075 15.2008 8.47805C15.2008 9.18536 14.6283 9.76079 13.9246 9.76079C13.2209 9.76079 12.6484 9.18536 12.6484 8.47805C12.6484 7.77075 13.2209 7.19531 13.9246 7.19531Z" fill="#2D3748"/>
<path d="M21.4141 3.67969H2.58594C2.26234 3.67969 2 3.94203 2 4.26562V19.7343L2.00023 19.7393C2.00023 19.9648 2.18727 20.3202 2.58617 20.3202C16.3144 20.3137 20.1162 20.3202 21.414 20.3202C21.7376 20.3202 22 20.0579 22 19.7343C22 19.2991 22 4.65219 22 4.26562C22 3.94203 21.7377 3.67969 21.4141 3.67969ZM20.8281 5.20563V14.2047L18.243 11.6104C18.0141 11.3806 17.6418 11.3807 17.4129 11.6104L13.9243 15.1113L10.5599 11.735C10.331 11.5053 9.95871 11.5053 9.7298 11.735L3.17188 18.3162V5.20563H20.8281ZM4 19L10.1448 12.9787L16.5 19H4ZM20.8281 19H18L14.7514 15.9414L17.8279 12.8541L20.8281 15.7578V19Z" fill="#2D3748"/>
</svg>
