<svg width="32" height="32" viewBox="0 0 32 32" fill="none" xmlns="http://www.w3.org/2000/svg">
<path d="M0 6C0 2.68629 2.68629 0 6 0H26C29.3137 0 32 2.68629 32 6V26C32 29.3137 29.3137 32 26 32H6C2.68629 32 0 29.3137 0 26V6Z" fill="black" fill-opacity="0.36"/>
<path d="M15.9981 13.7767C14.774 13.7767 13.775 14.7757 13.775 15.9998C13.775 17.2239 14.774 18.2229 15.9981 18.2229C17.2223 18.2229 18.2213 17.2239 18.2213 15.9998C18.2213 14.7757 17.2223 13.7767 15.9981 13.7767ZM22.6658 15.9998C22.6658 15.0792 22.6742 14.1669 22.6225 13.248C22.5708 12.1806 22.3273 11.2333 21.5468 10.4528C20.7646 9.67064 19.819 9.42881 18.7516 9.37711C17.831 9.32541 16.9187 9.33375 15.9998 9.33375C15.0792 9.33375 14.1669 9.32541 13.248 9.37711C12.1806 9.42881 11.2333 9.6723 10.4528 10.4528C9.67064 11.235 9.42881 12.1806 9.37711 13.248C9.32541 14.1686 9.33375 15.0809 9.33375 15.9998C9.33375 16.9187 9.32541 17.8327 9.37711 18.7516C9.42881 19.819 9.6723 20.7662 10.4528 21.5468C11.235 22.3289 12.1806 22.5708 13.248 22.6225C14.1686 22.6742 15.0809 22.6658 15.9998 22.6658C16.9204 22.6658 17.8327 22.6742 18.7516 22.6225C19.819 22.5708 20.7663 22.3273 21.5468 21.5468C22.329 20.7646 22.5708 19.819 22.6225 18.7516C22.6758 17.8327 22.6658 16.9204 22.6658 15.9998ZM15.9981 19.4204C14.1052 19.4204 12.5775 17.8927 12.5775 15.9998C12.5775 14.1069 14.1052 12.5792 15.9981 12.5792C17.891 12.5792 19.4187 14.1069 19.4187 15.9998C19.4187 17.8927 17.891 19.4204 15.9981 19.4204ZM19.5588 13.238C19.1168 13.238 18.7599 12.8811 18.7599 12.4391C18.7599 11.9972 19.1168 11.6403 19.5588 11.6403C20.0008 11.6403 20.3577 11.9972 20.3577 12.4391C20.3578 12.5441 20.3372 12.648 20.2971 12.745C20.257 12.842 20.1982 12.9301 20.124 13.0043C20.0498 13.0785 19.9616 13.1373 19.8647 13.1774C19.7677 13.2175 19.6637 13.2381 19.5588 13.238Z" fill="white"/>
</svg>
