<svg width="24" height="24" viewBox="0 0 24 24" fill="none" xmlns="http://www.w3.org/2000/svg">
<path d="M19.4265 2.80438C19.0757 2.65406 18.6624 2.71251 18.3754 2.95296L17.0132 4.07508L15.16 2.53278C14.7877 2.22247 14.224 2.22247 13.8517 2.53278L12 4.07362L10.1478 2.53278C9.7754 2.22247 9.21167 2.22247 8.83926 2.53278L6.98553 4.07508L5.6221 2.953C5.2198 2.62032 4.60375 2.65406 4.24616 3.02835C4.08606 3.19592 3.99835 3.41277 4.00002 3.63696V20.4631C3.99683 20.9646 4.43124 21.3736 4.97027 21.3765C5.2113 21.3779 5.44438 21.2961 5.62455 21.1471L6.9867 20.025L8.83994 21.5673C9.21226 21.8776 9.77594 21.8776 10.1483 21.5673L12 20.0263L13.852 21.5671C14.2244 21.8774 14.7881 21.8774 15.1605 21.5671L17.0143 20.0249L18.3777 21.147C18.78 21.4797 19.396 21.4461 19.7536 21.0719C19.9139 20.9043 20.0016 20.6873 19.9999 20.463V3.63696C20.0048 3.27775 19.7793 2.95036 19.4265 2.80438ZM17.6626 19.3409C17.2902 19.034 16.7297 19.0354 16.3591 19.3441L14.5059 20.8864L12.6542 19.3455C12.2818 19.0352 11.7181 19.0352 11.3457 19.3455L9.49373 20.8864L7.63976 19.3441C7.27058 19.0354 6.71107 19.034 6.34008 19.3408L4.98161 20.4626V18.0287L4.9767 3.63719L6.33738 4.75904C6.70975 5.06593 7.27024 5.06456 7.64083 4.7558L9.49403 3.21355L11.3458 4.75439C11.7182 5.0647 12.2819 5.0647 12.6543 4.75439L14.5062 3.21355L16.3602 4.7558C16.7294 5.06452 17.2889 5.06593 17.6599 4.75909L19.0183 3.63696V15.2035L19.0232 20.4627L17.6626 19.3409Z" fill="#2D3748" stroke="#2D3748" stroke-width="0.1"/>
<path d="M16.4393 11.5315H7.56061C7.30195 11.5315 7.09229 11.7412 7.09229 11.9998C7.09229 12.2585 7.30195 12.4681 7.56061 12.4681H16.4393C16.698 12.4681 16.9076 12.2585 16.9076 11.9998C16.9076 11.7412 16.6979 11.5315 16.4393 11.5315Z" fill="#2D3748" stroke="#2D3748" stroke-width="0.1"/>
<path d="M12.2244 8.72168H7.5606C7.30195 8.72168 7.09229 8.93135 7.09229 9.19C7.09229 9.44865 7.30195 9.65832 7.5606 9.65832H12.2244C12.4831 9.65832 12.6927 9.44865 12.6927 9.19C12.6927 8.93135 12.483 8.72168 12.2244 8.72168Z" fill="#2D3748" stroke="#2D3748" stroke-width="0.1"/>
<path d="M16.4393 14.3416H7.56061C7.30195 14.3416 7.09229 14.5512 7.09229 14.8099C7.09229 15.0685 7.30195 15.2782 7.56061 15.2782H16.4393C16.698 15.2782 16.9076 15.0685 16.9076 14.8099C16.9076 14.5512 16.6979 14.3416 16.4393 14.3416Z" fill="#2D3748" stroke="#2D3748" stroke-width="0.1"/>
</svg>
