<svg width="24" height="24" viewBox="0 0 24 24" fill="none" xmlns="http://www.w3.org/2000/svg">
<g clip-path="url(#clip0)">
<path d="M17.9857 9.20391H16.8139V5.21617C16.8139 4.08895 15.8968 3.17188 14.7696 3.17188H10.0833C8.95613 3.17188 8.03906 4.08895 8.03906 5.21617V6.54695H6.86719V5.21617C6.86719 3.44277 8.30996 2 10.0833 2H14.7696C16.5429 2 17.9857 3.44277 17.9857 5.21617V9.20391H17.9857Z" fill="#ED8936"/>
<path d="M7.45326 5.21619L6.67139 6.54701L7.45326 7.65423C8.1265 7.65423 8.67229 8.20001 8.67229 8.87326C8.67229 9.5465 8.1265 10.0923 7.45326 10.0923L6.67139 11.496L7.45326 22L9.05443 20.781V13.6892C10.6855 13.0495 11.8405 11.4614 11.8405 9.60341C11.8405 7.18041 9.87627 5.21619 7.45326 5.21619Z" fill="#319795"/>
<path d="M6.23413 8.87318C6.23413 8.19994 6.77991 7.65416 7.45315 7.65416V5.21619C5.03014 5.21619 3.06592 7.18044 3.06592 9.60341C3.06592 11.4614 4.22088 13.0495 5.85198 13.6892V20.781L7.45315 22V10.0922C6.77991 10.0922 6.23413 9.54642 6.23413 8.87318Z" fill="#319795"/>
<path d="M20.9339 8.51926H17.4L16.6182 14.3125L17.4 20.2503H20.9339V8.51926Z" fill="#A0AEC0"/>
<path d="M17.3997 8.51912H13.8657V20.25H17.3997V8.51912Z" fill="#A0AEC0"/>
</g>
<defs>
<clipPath id="clip0">
<rect width="20" height="20" fill="white" transform="translate(2 2)"/>
</clipPath>
</defs>
</svg>
