<svg width="24" height="24" viewBox="0 0 24 24" fill="none" xmlns="http://www.w3.org/2000/svg">
<path d="M19.0703 14.3438C18.8538 14.3438 18.6431 14.368 18.4398 14.4129C18.2764 13.6982 17.6778 13.1438 16.9207 13.0596L16.1406 12.9729V12.1883C16.1406 11.2912 15.4683 10.5402 14.5769 10.4412C14.5697 10.4404 14.5627 10.4398 14.5555 10.4392L11.0495 10.1795C10.0078 10.071 9.10938 10.8901 9.10938 11.9278V12.1917L7.80688 12.047L5.57117 4.22183C5.4993 3.97021 5.26935 3.79688 5.00781 3.79688H2.58594C2.2623 3.79688 2 4.05917 2 4.38281C2 4.70645 2.2623 4.96875 2.58594 4.96875H4.56592L6.76562 12.668V14.4028C6.57626 14.3642 6.38034 14.3438 6.17969 14.3438C4.56424 14.3438 3.25 15.658 3.25 17.2734C3.25 18.8889 4.56424 20.2031 6.17969 20.2031C7.13611 20.2031 7.98679 19.7423 8.52191 19.0312H16.7281C17.2632 19.7423 18.1139 20.2031 19.0703 20.2031C20.6858 20.2031 22 18.8889 22 17.2734C22 15.658 20.6858 14.3438 19.0703 14.3438ZM10.2812 11.9278C10.2812 11.575 10.5876 11.3071 10.9319 11.3454C10.9391 11.3463 10.9462 11.3469 10.9532 11.3475L14.4565 11.6069C14.7492 11.6439 14.9688 11.8923 14.9688 12.1883V12.8427L10.2812 12.322V11.9278ZM6.17969 19.0312C5.21045 19.0312 4.42188 18.2427 4.42188 17.2734C4.42188 16.3042 5.21045 15.5156 6.17969 15.5156C7.14893 15.5156 7.9375 16.3042 7.9375 17.2734C7.9375 18.2427 7.14893 19.0312 6.17969 19.0312ZM9.05048 17.8594C9.08908 17.67 9.10938 17.4741 9.10938 17.2734C9.10938 16.317 8.64856 15.4662 7.93735 14.9312C7.93735 14.9308 7.9375 14.9303 7.9375 14.9297V13.2405C8.56891 13.3107 16.4102 14.182 16.7913 14.2243C17.0885 14.2574 17.3125 14.5076 17.3125 14.8067V14.9297C17.3125 14.9301 17.3127 14.9308 17.3127 14.9312C16.6014 15.4662 16.1406 16.317 16.1406 17.2734C16.1406 17.4741 16.1609 17.67 16.1995 17.8594H9.05048ZM19.0703 19.0312C18.1011 19.0312 17.3125 18.2427 17.3125 17.2734C17.3125 16.3042 18.1011 15.5156 19.0703 15.5156C20.0396 15.5156 20.8281 16.3042 20.8281 17.2734C20.8281 18.2427 20.0396 19.0312 19.0703 19.0312Z" fill="black"/>
<path d="M14.3828 15.5156H10.8672C10.5435 15.5156 10.2812 15.7779 10.2812 16.1016C10.2812 16.4252 10.5435 16.6875 10.8672 16.6875H14.3828C14.7065 16.6875 14.9688 16.4252 14.9688 16.1016C14.9688 15.7779 14.7065 15.5156 14.3828 15.5156Z" fill="black"/>
<path d="M6.76562 17.2734C6.76562 17.5971 6.50333 17.8594 6.17969 17.8594C5.85605 17.8594 5.59375 17.5971 5.59375 17.2734C5.59375 16.9498 5.85605 16.6875 6.17969 16.6875C6.50333 16.6875 6.76562 16.9498 6.76562 17.2734Z" fill="black"/>
<path d="M19.6562 17.2734C19.6562 17.5971 19.394 17.8594 19.0703 17.8594C18.7467 17.8594 18.4844 17.5971 18.4844 17.2734C18.4844 16.9498 18.7467 16.6875 19.0703 16.6875C19.394 16.6875 19.6562 16.9498 19.6562 17.2734Z" fill="black"/>
</svg>
