<svg width="20" height="20" viewBox="0 0 20 20" fill="none" xmlns="http://www.w3.org/2000/svg">
<path d="M16.364 13.536L14.95 12.12L16.364 10.706C16.8316 10.2424 17.2031 9.69108 17.4571 9.08358C17.7111 8.47608 17.8425 7.8244 17.844 7.16595C17.8454 6.5075 17.7168 5.85525 17.4655 5.24665C17.2142 4.63804 16.8451 4.08507 16.3795 3.61947C15.9139 3.15387 15.361 2.78483 14.7524 2.53351C14.1437 2.2822 13.4915 2.15357 12.833 2.15502C12.1746 2.15646 11.5229 2.28794 10.9154 2.54192C10.3079 2.79589 9.75656 3.16736 9.29301 3.63499L7.87901 5.04999L6.46401 3.63599L7.88001 2.22199C9.19283 0.909167 10.9734 0.171631 12.83 0.171631C14.6866 0.171631 16.4672 0.909167 17.78 2.22199C19.0928 3.53481 19.8304 5.31538 19.8304 7.17199C19.8304 9.0286 19.0928 10.8092 17.78 12.122L16.365 13.536H16.364ZM13.536 16.364L12.121 17.778C10.8082 19.0908 9.02762 19.8283 7.17101 19.8283C5.3144 19.8283 3.53383 19.0908 2.22101 17.778C0.90819 16.4652 0.170654 14.6846 0.170654 12.828C0.170654 10.9714 0.90819 9.19081 2.22101 7.87799L3.63601 6.46399L5.05001 7.87999L3.63601 9.29399C3.16838 9.75754 2.79692 10.3089 2.54294 10.9164C2.28896 11.5239 2.15748 12.1756 2.15604 12.834C2.1546 13.4925 2.28323 14.1447 2.53454 14.7533C2.78585 15.3619 3.1549 15.9149 3.62049 16.3805C4.08609 16.8461 4.63906 17.2152 5.24767 17.4665C5.85628 17.7178 6.50853 17.8464 7.16698 17.845C7.82543 17.8435 8.47711 17.712 9.08461 17.4581C9.69211 17.2041 10.2435 16.8326 10.707 16.365L12.121 14.951L13.536 16.365V16.364ZM12.828 5.75699L14.243 7.17199L7.17201 14.242L5.75701 12.828L12.828 5.75799V5.75699Z" fill="#319795"/>
</svg>
