<svg width="33" height="32" viewBox="0 0 33 32" fill="none" xmlns="http://www.w3.org/2000/svg">
<path d="M15.1667 12V13.3333H11.8333V20.6667H19.1667V17.3333H20.5V21.3333C20.5 21.5101 20.4298 21.6797 20.3047 21.8047C20.1797 21.9298 20.0101 22 19.8333 22H11.1667C10.9899 22 10.8203 21.9298 10.6953 21.8047C10.5702 21.6797 10.5 21.5101 10.5 21.3333V12.6667C10.5 12.4899 10.5702 12.3203 10.6953 12.1953C10.8203 12.0702 10.9899 12 11.1667 12H15.1667ZM22.5 10V15.3333H21.1667V12.2753L15.9713 17.4713L15.0287 16.5287L20.2233 11.3333H17.1667V10H22.5Z" fill="#2D3748"/>
</svg>
