<svg width="32" height="32" viewBox="0 0 32 32" fill="none" xmlns="http://www.w3.org/2000/svg">
<path d="M0 6C0 2.68629 2.68629 0 6 0H26C29.3137 0 32 2.68629 32 6V26C32 29.3137 29.3137 32 26 32H6C2.68629 32 0 29.3137 0 26V6Z" fill="black" fill-opacity="0.36"/>
<path d="M12.6266 11.3333C12.6265 11.6869 12.4858 12.026 12.2356 12.2759C11.9855 12.5258 11.6462 12.6661 11.2926 12.6659C10.939 12.6658 10.5999 12.5251 10.35 12.2749C10.1001 12.0248 9.95978 11.6856 9.95996 11.3319C9.96014 10.9783 10.1008 10.6392 10.351 10.3893C10.6011 10.1394 10.9403 9.99909 11.294 9.99927C11.6476 9.99944 11.9867 10.1401 12.2366 10.3903C12.4865 10.6404 12.6268 10.9796 12.6266 11.3333V11.3333ZM12.6666 13.6533H9.99996V21.9999H12.6666V13.6533ZM16.88 13.6533H14.2266V21.9999H16.8533V17.6199C16.8533 15.1799 20.0333 14.9533 20.0333 17.6199V21.9999H22.6666V16.7133C22.6666 12.5999 17.96 12.7533 16.8533 14.7733L16.88 13.6533V13.6533Z" fill="white"/>
</svg>
