<svg width="170" height="26" viewBox="0 0 170 26" fill="none" xmlns="http://www.w3.org/2000/svg">
<path d="M9.43316 0.00871263C13.722 0.0177794 17.3986 2.79252 18.5188 6.92368C19.3049 9.82254 18.7918 12.5201 17.0415 14.9778C14.7624 18.1785 12.4909 21.3848 10.2268 24.5965C9.70458 25.3344 9.16096 25.3478 8.63796 24.6121C6.33576 21.37 4.03669 18.1255 1.74074 14.8785C0.717878 13.4289 0.0531572 11.8302 0.00440475 10.0408C-0.0630987 7.56945 0.643965 5.32496 2.21576 3.39702C3.85522 1.38639 5.99815 0.282905 8.57156 0.013872C8.85848 -0.00270358 9.14606 -0.00442618 9.43316 0.00871263ZM9.42754 16.1386C13.121 16.1776 16.1726 13.1657 16.2177 9.43674C16.2353 8.54257 16.0762 7.65375 15.7497 6.82121C15.4231 5.98867 14.9355 5.2288 14.3149 4.58517C13.6942 3.94153 12.9526 3.42679 12.1327 3.07046C11.3128 2.71413 10.4306 2.52321 9.53674 2.50866C8.6429 2.4941 7.75498 2.65619 6.92389 2.98564C6.09279 3.31509 5.33488 3.80541 4.69359 4.4285C4.0523 5.05158 3.54025 5.79517 3.18681 6.61664C2.83337 7.4381 2.64548 8.32128 2.63391 9.21554C2.54985 12.9046 5.56172 16.1597 9.42754 16.1386Z" fill="black"/>
<path d="M5.20298 5.41311H6.76009L6.79572 6.15893C7.20199 5.84957 7.5606 5.57882 7.91702 5.30619C8.25907 5.04435 8.59424 4.77328 8.94207 4.51941C9.30584 4.25366 9.57523 4.23803 9.929 4.508C11.66 5.82977 13.3857 7.15852 15.1061 8.49425C15.3518 8.68434 15.4955 8.91866 15.2891 9.2371C15.2014 9.37507 15.0665 9.47647 14.9097 9.52248C14.7528 9.56848 14.5846 9.55595 14.4363 9.48721C14.2751 9.40942 14.1247 9.31106 13.9889 9.19458C12.6117 8.13856 11.2358 7.08103 9.86118 6.02199C9.48007 5.72904 9.41366 5.73842 9.02145 6.04028C7.59867 7.13455 6.17412 8.22688 4.7478 9.31729C4.49075 9.51441 4.2223 9.65557 3.88604 9.52536C3.44273 9.3534 3.32773 8.90225 3.67993 8.5882C4.06323 8.24632 4.47841 7.93899 4.89077 7.6315C4.99512 7.56189 5.07927 7.46599 5.13475 7.35346C5.19022 7.24094 5.21505 7.11576 5.20673 6.99057C5.19376 6.47674 5.20298 5.96275 5.20298 5.41311Z" fill="black"/>
<path d="M7.42285 12.8274V11.3246H8.91418V12.8274H7.42285Z" fill="#00FCF1"/>
<path d="M9.93848 12.8274V11.3246H11.4298V12.8274H9.93848Z" fill="#00FCF1"/>
<path d="M9.93848 10.3991V8.89636H11.4298V10.3991H9.93848Z" fill="#00FCF1"/>
<path d="M7.42285 10.3991V8.89636H8.91418V10.3991H7.42285Z" fill="#00FCF1"/>
<path d="M39.2912 5.60522V19.9921H36.4762V14.2008H29.4991V19.9946H26.6816V5.60522H29.4991V11.3796H36.4762V5.60522H39.2912Z" fill="black"/>
<path d="M47.8508 19.1889C46.7293 18.535 45.7973 17.6003 45.1465 16.4767C44.4908 15.3438 44.1455 14.0579 44.1455 12.7488C44.1455 11.4397 44.4908 10.1537 45.1465 9.0208C45.7981 7.90288 46.7303 6.97466 47.8508 6.32807C48.9732 5.67993 50.2461 5.33794 51.5421 5.33631C52.8382 5.33468 54.1119 5.67347 55.236 6.31878C56.3553 6.95793 57.2877 7.87935 57.9402 8.99123C58.6099 10.1274 58.9559 11.4253 58.9408 12.7441C58.9506 14.0546 58.6086 15.3437 57.9504 16.4767C57.3057 17.6007 56.3776 18.5359 55.2588 19.1889C54.1349 19.8443 52.8573 20.1896 51.5565 20.1896C50.2556 20.1896 48.978 19.8443 47.8541 19.1889H47.8508ZM53.8509 16.7684C54.5447 16.359 55.1204 15.7763 55.5216 15.0775C55.9349 14.3702 56.1498 13.5643 56.1436 12.745C56.149 11.9348 55.934 11.1384 55.5216 10.4412C55.1185 9.74625 54.543 9.16707 53.8509 8.75956C53.1553 8.35209 52.3638 8.1373 51.5577 8.1373C50.7517 8.1373 49.9602 8.35209 49.2646 8.75956C48.5718 9.16656 47.996 9.74584 47.593 10.4412C47.1806 11.1384 46.9656 11.9348 46.971 12.745C46.9665 13.558 47.1814 14.3571 47.593 15.0581C47.9953 15.7591 48.5709 16.3448 49.2646 16.7591C49.9554 17.1786 50.7492 17.3975 51.5573 17.3915C52.3633 17.3956 53.155 17.179 53.8467 16.765L53.8509 16.7684Z" fill="black"/>
<path d="M77.3902 5.79969C77.5183 5.92677 77.6196 6.07834 77.6879 6.24537C77.7563 6.4124 77.7904 6.59149 77.7882 6.77197V19.9921H74.9707V10.699L70.5982 16.5123L66.2257 10.699V19.9921H63.4082V6.77197C63.4115 6.40698 63.5579 6.05784 63.8158 5.79966C64.0737 5.54149 64.4226 5.39487 64.7874 5.39134C64.9889 5.39312 65.1876 5.43953 65.369 5.52723C65.5505 5.61494 65.7103 5.74177 65.837 5.89861L70.5982 12.1008L75.3594 5.89861C75.486 5.74164 75.6457 5.61472 75.8273 5.527C76.0088 5.43928 76.2075 5.39294 76.409 5.39134C76.5919 5.38752 76.7737 5.42186 76.9426 5.49217C77.1115 5.56247 77.2639 5.6672 77.3902 5.79969Z" fill="black"/>
<path d="M86.8245 8.42391V11.383H94.579V14.2008H86.8245V17.1759H95.1612V19.9946H85.4647C85.2729 19.9977 85.0824 19.9613 84.9052 19.8878C84.728 19.8142 84.5678 19.7049 84.4345 19.5668C84.2975 19.4361 84.1888 19.2786 84.1152 19.1041C84.0416 18.9295 84.0048 18.7417 84.0069 18.5523V7.04416C84.0049 6.85476 84.0418 6.66697 84.1153 6.49244C84.1889 6.31791 84.2976 6.16037 84.4345 6.02962C84.5679 5.89168 84.7282 5.78255 84.9053 5.70897C85.0825 5.63539 85.2729 5.59894 85.4647 5.60185H95.1612V8.42053L86.8245 8.42391Z" fill="black"/>
<path d="M106.842 15.3067H103.811V19.9921H100.992V7.04416C100.99 6.85479 101.027 6.66704 101.101 6.49254C101.174 6.31804 101.283 6.16049 101.42 6.02962C101.553 5.89168 101.713 5.78255 101.891 5.70897C102.068 5.63539 102.258 5.59894 102.45 5.60185H108.281C109.152 5.59593 110.009 5.82801 110.758 6.27311C111.508 6.71192 112.131 7.33835 112.566 8.09083C113.01 8.84438 113.241 9.70423 113.236 10.579C113.256 11.5973 112.928 12.5919 112.306 13.3985C111.686 14.2004 110.828 14.7855 109.855 15.0699L113.314 19.9887H110.084L106.842 15.3067ZM103.811 12.6858H108.28C108.561 12.6913 108.84 12.6399 109.101 12.5345C109.361 12.4292 109.597 12.2721 109.796 12.0728C109.996 11.8814 110.155 11.6505 110.262 11.3945C110.369 11.1385 110.422 10.8631 110.417 10.5857C110.422 10.3032 110.369 10.0227 110.262 9.7612C110.155 9.49967 109.996 9.26249 109.796 9.06393C109.6 8.85964 109.365 8.69798 109.104 8.58914C108.843 8.48031 108.563 8.42664 108.28 8.43152H103.811V12.6858Z" fill="black"/>
<path d="M121.387 19.1889C120.265 18.5353 119.333 17.6005 118.683 16.4767C118.027 15.3438 117.682 14.0579 117.682 12.7488C117.682 11.4397 118.027 10.1537 118.683 9.0208C119.334 7.90266 120.266 6.97438 121.387 6.32807C122.509 5.67992 123.782 5.33794 125.078 5.33631C126.374 5.33468 127.647 5.67346 128.771 6.31878C129.891 6.95777 130.823 7.87923 131.476 8.99123C132.145 10.1276 132.491 11.4253 132.476 12.7441C132.486 14.0547 132.144 15.3439 131.485 16.4767C130.84 17.6009 129.912 18.5361 128.793 19.1889C127.669 19.8441 126.392 20.1893 125.091 20.1893C123.791 20.1893 122.513 19.8441 121.389 19.1889H121.387ZM127.382 16.7684C128.076 16.3593 128.652 15.7766 129.053 15.0775C129.466 14.3699 129.681 13.5643 129.675 12.745C129.681 11.9349 129.466 11.1386 129.053 10.4412C128.65 9.74601 128.075 9.16677 127.382 8.75956C126.686 8.35209 125.895 8.1373 125.089 8.1373C124.283 8.1373 123.491 8.35209 122.796 8.75956C122.103 9.16658 121.528 9.74588 121.125 10.4412C120.713 11.1384 120.498 11.9348 120.503 12.745C120.498 13.558 120.713 14.3571 121.125 15.0581C121.527 15.759 122.102 16.3448 122.796 16.7591C123.487 17.1786 124.281 17.3975 125.089 17.3915C125.896 17.3964 126.689 17.1797 127.382 16.765V16.7684Z" fill="black"/>
<path d="M140.063 19.1889C138.941 18.5353 138.009 17.6005 137.358 16.4767C136.703 15.3438 136.357 14.0579 136.357 12.7488C136.357 11.4397 136.703 10.1537 137.358 9.0208C138.01 7.90269 138.942 6.97441 140.063 6.32807C141.185 5.67992 142.458 5.33794 143.754 5.33631C145.049 5.33468 146.323 5.67346 147.447 6.31878C148.566 6.95777 149.499 7.87923 150.151 8.99123C150.821 10.1276 151.167 11.4253 151.152 12.7441C151.162 14.0547 150.819 15.3439 150.161 16.4767C149.516 17.6009 148.588 18.5361 147.469 19.1889C146.345 19.8441 145.068 20.1893 143.767 20.1893C142.466 20.1893 141.189 19.8441 140.065 19.1889H140.063ZM146.058 16.7684C146.752 16.3593 147.328 15.7766 147.729 15.0775C148.142 14.3699 148.357 13.5643 148.351 12.745C148.356 11.9349 148.141 11.1386 147.729 10.4412C147.326 9.74601 146.75 9.16677 146.058 8.75956C145.362 8.35209 144.571 8.1373 143.765 8.1373C142.959 8.1373 142.167 8.35209 141.471 8.75956C140.779 9.16658 140.203 9.74588 139.801 10.4412C139.388 11.1384 139.173 11.9348 139.179 12.745C139.174 13.558 139.389 14.3571 139.801 15.0581C140.203 15.759 140.778 16.3448 141.471 16.7591C142.163 17.1786 142.957 17.3975 143.765 17.3915C144.572 17.3964 145.365 17.1797 146.058 16.765V16.7684Z" fill="black"/>
<path d="M169.602 5.79969C169.73 5.92677 169.831 6.07835 169.9 6.24537C169.968 6.4124 170.002 6.59149 170 6.77197V19.9921H167.183V10.699L162.81 16.5123L158.438 10.699V19.9921H155.619V6.77197C155.623 6.4069 155.769 6.05777 156.027 5.79961C156.285 5.54146 156.634 5.39487 156.999 5.39134C157.201 5.39312 157.399 5.43953 157.581 5.52723C157.762 5.61494 157.922 5.74177 158.049 5.89861L162.81 12.1008L167.571 5.89861C167.698 5.7417 167.857 5.61482 168.039 5.52711C168.22 5.43939 168.419 5.39301 168.62 5.39134C168.803 5.38751 168.985 5.42184 169.154 5.49215C169.323 5.56245 169.476 5.66718 169.602 5.79969Z" fill="black"/>
</svg>
