<svg width="16" height="16" viewBox="0 0 16 16" fill="none" xmlns="http://www.w3.org/2000/svg">
<path fill-rule="evenodd" clip-rule="evenodd" d="M3.33333 3.33333H7.33333V2.66667V2H2.66667C2.48986 2 2.32029 2.07024 2.19526 2.19526C2.07024 2.32029 2 2.48986 2 2.66667V13.3333C2 13.5101 2.07024 13.6797 2.19526 13.8047C2.32029 13.9298 2.48986 14 2.66667 14H7.33333V12.6667H3.33333V3.33333ZM14.4853 7.99999L10.7141 11.7712L9.7713 10.8284L11.9336 8.66608L7.33333 8.66638L4.58585 8.66656V7.33342L7.33333 7.33325L11.9327 7.33295L9.7713 5.17156L10.7141 4.22875L14.4853 7.99999Z" fill="#C53030"/>
</svg>
