<svg width="223" height="33" viewBox="0 0 223 33" fill="none" xmlns="http://www.w3.org/2000/svg">
<path d="M12.3451 21.4564C17.3974 21.4564 21.493 17.3456 21.493 12.2746C21.493 7.20367 17.3974 3.09286 12.3451 3.09286C7.29291 3.09286 3.19727 7.20367 3.19727 12.2746C3.19727 17.3456 7.29291 21.4564 12.3451 21.4564Z" fill="#242E2E"/>
<path d="M12.3336 0.0114289C17.9411 0.0233224 22.7481 3.66313 24.2128 9.08224C25.2406 12.8849 24.5697 16.4234 22.2813 19.6473C19.3015 23.846 16.3315 28.0518 13.3713 32.2648C12.6885 33.2327 11.9777 33.2504 11.2939 32.2854C8.28384 28.0324 5.27787 23.7763 2.27597 19.5171C0.938606 17.6156 0.0695016 15.5184 0.0057591 13.1711C-0.0824998 9.92934 0.841967 6.9851 2.89705 4.4561C5.0406 1.81862 7.84241 0.371104 11.2071 0.0181969C11.5822 -0.00354645 11.9582 -0.0058061 12.3336 0.0114289ZM12.3263 21.1701C17.1554 21.2211 21.1452 17.2703 21.2042 12.3788C21.2272 11.2058 21.0192 10.0399 20.5923 8.94782C20.1653 7.85573 19.5278 6.85896 18.7163 6.01466C17.9048 5.17037 16.9352 4.49515 15.8632 4.02772C14.7911 3.5603 13.6377 3.30986 12.469 3.29077C11.3004 3.27167 10.1394 3.4843 9.05279 3.91646C7.96616 4.34862 6.97521 4.99181 6.13674 5.80915C5.29827 6.62649 4.62879 7.6019 4.16667 8.67947C3.70455 9.75704 3.45889 10.9156 3.44377 12.0886C3.33386 16.9278 7.27179 21.1978 12.3263 21.1701Z" fill="white"/>
<path d="M6.80239 7.10073H8.83827L8.88485 8.07907C9.41604 7.67326 9.88491 7.31809 10.3509 6.96047C10.7981 6.617 11.2364 6.26142 11.6912 5.92841C12.1668 5.57981 12.519 5.5593 12.9815 5.91344C15.2448 7.64728 17.5011 9.39029 19.7505 11.1425C20.0717 11.3918 20.2596 11.6992 19.9897 12.1169C19.875 12.2979 19.6987 12.4309 19.4936 12.4913C19.2885 12.5516 19.0686 12.5352 18.8746 12.445C18.664 12.343 18.4674 12.2139 18.2897 12.0611C16.4891 10.6759 14.6902 9.28865 12.8929 7.89944C12.3946 7.51516 12.3077 7.52746 11.7949 7.92343C9.93469 9.35885 8.07213 10.7917 6.20725 12.2221C5.87117 12.4807 5.52018 12.6658 5.08052 12.495C4.50092 12.2695 4.35055 11.6777 4.81105 11.2657C5.3122 10.8172 5.85503 10.4141 6.39419 10.0107C6.53062 9.91943 6.64065 9.79363 6.71318 9.64602C6.7857 9.49841 6.81817 9.33421 6.80729 9.16999C6.79033 8.49596 6.80239 7.82172 6.80239 7.10073Z" fill="white"/>
<path d="M9.70508 16.8265V14.8553H11.6549V16.8265H9.70508Z" fill="#00FCF1"/>
<path d="M12.9941 16.8265V14.8553H14.944V16.8265H12.9941Z" fill="#00FCF1"/>
<path d="M12.9941 13.6411V11.6699H14.944V13.6411H12.9941Z" fill="#00FCF1"/>
<path d="M9.70508 13.6411V11.6699H11.6549V13.6411H9.70508Z" fill="#00FCF1"/>
<path d="M51.5407 7.35394V26.288H47.8481V18.6663H38.6959V26.2914H35V7.35394H38.6959V14.9534H47.8481V7.35394H51.5407Z" fill="white"/>
<path d="M62.7696 25.2311C61.2985 24.3705 60.076 23.1403 59.2222 21.6616C58.3621 20.1706 57.9092 18.4783 57.9092 16.7554C57.9092 15.0325 58.3621 13.3401 59.2222 11.8491C60.077 10.3778 61.2998 9.15619 62.7696 8.30523C64.242 7.45223 65.9117 7.00216 67.6118 7.00001C69.3119 6.99786 70.9827 7.44373 72.4573 8.29301C73.9256 9.13418 75.1486 10.3468 76.0046 11.8101C76.883 13.3054 77.3369 15.0135 77.3172 16.7492C77.33 18.4739 76.8813 20.1704 76.018 21.6616C75.1722 23.1408 73.9548 24.3716 72.4872 25.2311C71.0129 26.0935 69.337 26.548 67.6306 26.548C65.9242 26.548 64.2483 26.0935 62.774 25.2311H62.7696ZM70.6403 22.0455C71.5505 21.5066 72.3056 20.7399 72.8319 19.8202C73.3741 18.8892 73.656 17.8287 73.6479 16.7504C73.655 15.6841 73.3729 14.636 72.8319 13.7184C72.3031 12.8038 71.5483 12.0416 70.6403 11.5053C69.7279 10.969 68.6896 10.6863 67.6323 10.6863C66.5749 10.6863 65.5366 10.969 64.6242 11.5053C63.7155 12.0409 62.9601 12.8033 62.4315 13.7184C61.8905 14.636 61.6085 15.6841 61.6156 16.7504C61.6096 17.8203 61.8915 18.8721 62.4315 19.7946C62.9592 20.7171 63.7142 21.488 64.6242 22.0333C65.5304 22.5853 66.5717 22.8734 67.6317 22.8655C68.689 22.8709 69.7275 22.5858 70.6348 22.041L70.6403 22.0455Z" fill="white"/>
<path d="M101.518 7.60975C101.686 7.777 101.819 7.97649 101.908 8.19631C101.998 8.41613 102.043 8.65182 102.04 8.88934V26.288H98.344V14.0576L92.6084 21.7083L86.8727 14.0576V26.288H83.1768V8.88934C83.1811 8.40899 83.3731 7.9495 83.7114 7.60972C84.0497 7.26994 84.5074 7.07698 84.9859 7.07234C85.2503 7.07468 85.5109 7.13575 85.7489 7.25118C85.987 7.36661 86.1966 7.53353 86.3628 7.73994L92.6084 15.9024L98.8539 7.73994C99.0199 7.53335 99.2295 7.36632 99.4676 7.25088C99.7057 7.13543 99.9664 7.07444 100.231 7.07234C100.471 7.06731 100.709 7.11251 100.931 7.20504C101.152 7.29756 101.352 7.43539 101.518 7.60975Z" fill="white"/>
<path d="M113.894 11.0635V14.9578H124.066V18.6663H113.894V22.5818H124.83V26.2914H112.11C111.858 26.2954 111.609 26.2476 111.376 26.1507C111.144 26.0539 110.934 25.9101 110.759 25.7283C110.579 25.5563 110.436 25.349 110.34 25.1193C110.243 24.8896 110.195 24.6424 110.198 24.3932V9.24762C110.195 8.99835 110.244 8.7512 110.34 8.52151C110.437 8.29182 110.579 8.08448 110.759 7.91241C110.934 7.73086 111.144 7.58724 111.376 7.49041C111.609 7.39357 111.859 7.3456 112.11 7.34942H124.83V11.059L113.894 11.0635Z" fill="white"/>
<path d="M140.151 20.1217H136.174V26.288H132.477V9.24762C132.475 8.99839 132.523 8.7513 132.62 8.52164C132.716 8.29199 132.859 8.08464 133.038 7.91241C133.213 7.73086 133.423 7.58724 133.656 7.49041C133.888 7.39357 134.138 7.3456 134.389 7.34942H142.038C143.181 7.34164 144.305 7.64707 145.288 8.23285C146.271 8.81036 147.088 9.63478 147.659 10.6251C148.241 11.6168 148.545 12.7485 148.538 13.8997C148.564 15.2398 148.134 16.5489 147.318 17.6104C146.505 18.6658 145.38 19.4358 144.104 19.8101L148.641 26.2836H144.403L140.151 20.1217ZM136.174 16.6724H142.037C142.406 16.6797 142.772 16.612 143.113 16.4733C143.455 16.3347 143.765 16.128 144.025 15.8657C144.288 15.6138 144.497 15.3098 144.637 14.973C144.778 14.6361 144.847 14.2737 144.841 13.9086C144.846 13.5367 144.777 13.1676 144.637 12.8234C144.497 12.4792 144.289 12.1671 144.025 11.9058C143.769 11.6369 143.46 11.4242 143.118 11.2809C142.776 11.1377 142.408 11.0671 142.037 11.0735H136.174V16.6724Z" fill="white"/>
<path d="M159.232 25.231C157.76 24.3708 156.538 23.1405 155.684 21.6616C154.824 20.1706 154.371 18.4782 154.371 16.7553C154.371 15.0325 154.824 13.34 155.684 11.8491C156.538 10.3775 157.761 9.15582 159.232 8.30523C160.704 7.45222 162.373 7.00216 164.073 7.00001C165.773 6.99786 167.444 7.44372 168.918 8.29301C170.387 9.13397 171.61 10.3467 172.465 11.8101C173.343 13.3057 173.797 15.0136 173.778 16.7492C173.791 18.4741 173.342 20.1707 172.478 21.6616C171.632 23.1411 170.415 24.3719 168.947 25.231C167.473 26.0933 165.797 26.5476 164.091 26.5476C162.385 26.5476 160.709 26.0933 159.235 25.231H159.232ZM167.096 22.0455C168.006 21.507 168.762 20.7402 169.288 19.8202C169.83 18.8889 170.112 17.8286 170.104 16.7504C170.111 15.6842 169.829 14.6362 169.288 13.7183C168.759 12.8035 168.004 12.0412 167.096 11.5052C166.183 10.969 165.145 10.6863 164.088 10.6863C163.03 10.6863 161.992 10.969 161.079 11.5052C160.171 12.0409 159.416 12.8033 158.888 13.7183C158.347 14.636 158.065 15.6841 158.072 16.7504C158.066 17.8203 158.348 18.872 158.888 19.7946C159.415 20.717 160.17 21.4879 161.079 22.0332C161.986 22.5853 163.028 22.8734 164.088 22.8655C165.147 22.8719 166.187 22.5867 167.096 22.041V22.0455Z" fill="white"/>
<path d="M183.729 25.231C182.258 24.3708 181.035 23.1405 180.182 21.6616C179.322 20.1706 178.869 18.4782 178.869 16.7553C178.869 15.0325 179.322 13.34 180.182 11.8491C181.036 10.3775 182.259 9.15586 183.729 8.30523C185.201 7.45222 186.871 7.00216 188.571 7.00001C190.271 6.99786 191.941 7.44372 193.416 8.29301C194.884 9.13397 196.107 10.3467 196.963 11.8101C197.841 13.3057 198.295 15.0136 198.276 16.7492C198.288 18.4741 197.839 20.1707 196.975 21.6616C196.13 23.1411 194.912 24.3719 193.444 25.231C191.97 26.0933 190.295 26.5476 188.588 26.5476C186.882 26.5476 185.207 26.0933 183.732 25.231H183.729ZM191.593 22.0455C192.504 21.507 193.259 20.7402 193.786 19.8202C194.327 18.8889 194.609 17.8286 194.602 16.7504C194.608 15.6842 194.326 14.6362 193.786 13.7183C193.257 12.8035 192.502 12.0412 191.593 11.5052C190.681 10.969 189.642 10.6863 188.585 10.6863C187.528 10.6863 186.489 10.969 185.577 11.5052C184.669 12.0409 183.914 12.8033 183.385 13.7183C182.844 14.636 182.562 15.6841 182.569 16.7504C182.564 17.8203 182.845 18.872 183.385 19.7946C183.913 20.717 184.667 21.4879 185.577 22.0332C186.484 22.5853 187.525 22.8734 188.586 22.8655C189.644 22.8719 190.685 22.5867 191.593 22.041V22.0455Z" fill="white"/>
<path d="M222.478 7.60976C222.646 7.777 222.779 7.97649 222.869 8.19631C222.958 8.41613 223.003 8.65182 223 8.88934V26.288H219.304V14.0576L213.568 21.7083L207.833 14.0576V26.288H204.136V8.88934C204.14 8.40889 204.333 7.9494 204.671 7.60966C205.01 7.26991 205.467 7.07698 205.946 7.07234C206.21 7.07468 206.471 7.13576 206.709 7.25119C206.947 7.36661 207.157 7.53353 207.323 7.73994L213.568 15.9024L219.814 7.73994C219.98 7.53344 220.189 7.36646 220.427 7.25102C220.665 7.13557 220.926 7.07453 221.19 7.07234C221.43 7.0673 221.668 7.11248 221.89 7.20501C222.112 7.29753 222.312 7.43536 222.478 7.60976Z" fill="white"/>
</svg>
