<svg width="32" height="32" viewBox="0 0 32 32" fill="none" xmlns="http://www.w3.org/2000/svg">
<path d="M0 6C0 2.68629 2.68629 0 6 0H26C29.3137 0 32 2.68629 32 6V26C32 29.3137 29.3137 32 26 32H6C2.68629 32 0 29.3137 0 26V6Z" fill="black" fill-opacity="0.36"/>
<path d="M9.99992 10H21.9999C22.1767 10 22.3463 10.0702 22.4713 10.1953C22.5963 10.3203 22.6666 10.4899 22.6666 10.6667V21.3333C22.6666 21.5101 22.5963 21.6797 22.4713 21.8047C22.3463 21.9298 22.1767 22 21.9999 22H9.99992C9.82311 22 9.65354 21.9298 9.52851 21.8047C9.40349 21.6797 9.33325 21.5101 9.33325 21.3333V10.6667C9.33325 10.4899 9.40349 10.3203 9.52851 10.1953C9.65354 10.0702 9.82311 10 9.99992 10V10ZM16.0399 15.7887L11.7653 12.1587L10.9019 13.1747L16.0486 17.5447L21.1026 13.1713L20.2306 12.1627L16.0406 15.7887H16.0399Z" fill="white"/>
</svg>
