<svg width="24" height="24" viewBox="0 0 24 24" fill="none" xmlns="http://www.w3.org/2000/svg">
<path d="M20.4536 6.1917C20.3798 6.03718 20.2357 5.92816 20.0669 5.89923C19.8982 5.8704 19.7259 5.92503 19.6049 6.04611L16.588 9.06312L14.9373 7.41243L17.9542 4.39549C18.0753 4.27445 18.1301 4.10215 18.1011 3.93347C18.0721 3.76472 17.9631 3.62058 17.8086 3.54679C17.0597 3.18904 16.2231 3 15.3893 3C13.8907 3 12.4818 3.58356 11.4222 4.64313C9.83325 6.23209 9.35368 8.61688 10.1747 10.6834L3.6513 17.207C3.64895 17.2093 3.64666 17.2117 3.64438 17.214C3.22907 17.6329 3.00049 18.1879 3.00049 18.7781C3.00049 19.3716 3.23161 19.9296 3.6513 20.3492C4.07096 20.7688 4.62889 21 5.22236 21C5.81584 21 6.3738 20.7689 6.79343 20.3492L13.3172 13.8255C13.9733 14.0851 14.6827 14.2212 15.3902 14.2212C15.3903 14.2212 15.3904 14.2212 15.3905 14.2212C16.8889 14.2212 18.2977 13.6377 19.3573 12.5781C21.0359 10.8995 21.4764 8.33303 20.4536 6.1917ZM18.6115 11.8323C17.7511 12.6928 16.6071 13.1666 15.3903 13.1665C14.7127 13.1665 14.0333 13.0131 13.4255 12.7228C13.2238 12.6264 12.9834 12.6677 12.8254 12.8258L6.04769 19.6034C5.82723 19.8239 5.53416 19.9453 5.22236 19.9453C4.9106 19.9453 4.6175 19.8239 4.39704 19.6034C4.17657 19.383 4.05514 19.0899 4.05514 18.7781C4.05514 18.4664 4.17657 18.1733 4.39707 17.9527C4.39914 17.9507 4.40118 17.9486 4.40319 17.9465L11.1745 11.175C11.3326 11.017 11.3738 10.7765 11.2775 10.5748C10.447 8.83604 10.8048 6.75198 12.1679 5.38887C13.0284 4.52852 14.1724 4.05469 15.3893 4.05469C15.8083 4.05469 16.2281 4.1134 16.6313 4.22685L13.8187 7.03952C13.6127 7.24543 13.6127 7.57935 13.8187 7.78529L16.2151 10.1818C16.314 10.2807 16.4481 10.3363 16.588 10.3363C16.7279 10.3363 16.862 10.2807 16.9609 10.1818L19.7742 7.36834C20.2172 8.93578 19.7902 10.6537 18.6115 11.8323Z" fill="black"/>
</svg>
