<svg width="24" height="24" viewBox="0 0 24 24" fill="none" xmlns="http://www.w3.org/2000/svg">
<g clip-path="url(#clip0_1285_5225)">
<path d="M21.2862 2C21.1753 1.99996 21.0658 2.02574 20.9666 2.07533L15.5539 4.78245L9.43324 2.06177C9.42324 2.0575 9.41181 2.05675 9.4011 2.05248C9.37356 2.04219 9.34539 2.03361 9.31681 2.02679C9.28839 2.01913 9.25951 2.01314 9.23039 2.00891C9.17238 2.00414 9.11408 2.00414 9.05611 2.00891C9.02698 2.01314 8.99811 2.01913 8.96969 2.02679C8.9411 2.03361 8.91294 2.04219 8.8854 2.05248C8.87468 2.05675 8.86326 2.05746 8.85326 2.06177L2.42478 4.91889C2.16672 5.03348 2.00045 5.28936 2.00049 5.57169V21.2858C2.00061 21.5274 2.12286 21.7526 2.32547 21.8843C2.52812 22.0162 2.78371 22.0367 3.00473 21.9386L9.14321 19.2101L15.2817 21.9386C15.2924 21.9429 15.3038 21.9386 15.3145 21.945C15.4875 22.0224 15.686 22.018 15.8552 21.9329C15.8667 21.9279 15.8795 21.9329 15.8909 21.925L21.6051 19.0679C21.8473 18.9469 22.0002 18.6994 22.0001 18.4286V2.71462C22.0004 2.32013 21.6807 2.00017 21.2862 2ZM8.42896 17.9644L3.42902 20.1865V6.036L8.42896 3.81387V17.9644ZM14.8574 20.1865L9.8575 17.9644V3.81387L14.8574 6.03596V20.1865ZM20.5716 17.9872L16.286 20.1301V6.01311L20.5716 3.87028V17.9872Z" fill="#2D3748"/>
</g>
<defs>
<clipPath id="clip0_1285_5225">
<rect width="20" height="20" fill="white" transform="translate(2 2)"/>
</clipPath>
</defs>
</svg>
