<svg width="48" height="48" viewBox="0 0 48 48" fill="none" xmlns="http://www.w3.org/2000/svg">
<path d="M36.728 34.728L24 47.456L11.272 34.728C8.75469 32.2106 7.04037 29.0033 6.34586 25.5117C5.65134 22.02 6.00781 18.4008 7.3702 15.1118C8.73258 11.8227 11.0397 9.01151 13.9998 7.03365C16.9598 5.0558 20.44 4.00012 24 4.00012C27.5601 4.00012 31.0402 5.0558 34.0002 7.03365C36.9603 9.01151 39.2674 11.8227 40.6298 15.1118C41.9922 18.4008 42.3487 22.02 41.6542 25.5117C40.9596 29.0033 39.2453 32.2106 36.728 34.728V34.728ZM24 26C25.0609 26 26.0783 25.5785 26.8284 24.8284C27.5786 24.0782 28 23.0608 28 22C28 20.9391 27.5786 19.9217 26.8284 19.1715C26.0783 18.4214 25.0609 18 24 18C22.9391 18 21.9217 18.4214 21.1716 19.1715C20.4214 19.9217 20 20.9391 20 22C20 23.0608 20.4214 24.0782 21.1716 24.8284C21.9217 25.5785 22.9391 26 24 26Z" fill="#319795"/>
</svg>
