<svg width="40" height="40" viewBox="0 0 40 40" fill="none" xmlns="http://www.w3.org/2000/svg">
<path d="M0 20C0 8.95431 8.95431 0 20 0V0C31.0457 0 40 8.95431 40 20V20C40 31.0457 31.0457 40 20 40V40C8.95431 40 0 31.0457 0 20V20Z" fill="#EDF2F7"/>
<path d="M18.75 26.25C18.75 26.9375 19.3125 27.5 20 27.5C20.6875 27.5 21.25 26.9375 21.25 26.25C21.25 25.5625 20.6875 25 20 25C19.3125 25 18.75 25.5625 18.75 26.25ZM18.75 13.75C18.75 14.4375 19.3125 15 20 15C20.6875 15 21.25 14.4375 21.25 13.75C21.25 13.0625 20.6875 12.5 20 12.5C19.3125 12.5 18.75 13.0625 18.75 13.75ZM18.75 20C18.75 20.6875 19.3125 21.25 20 21.25C20.6875 21.25 21.25 20.6875 21.25 20C21.25 19.3125 20.6875 18.75 20 18.75C19.3125 18.75 18.75 19.3125 18.75 20Z" fill="#2D3748"/>
</svg>
