<svg width="24" height="24" viewBox="0 0 24 24" fill="none" xmlns="http://www.w3.org/2000/svg">
<path d="M12 2C6.48002 2 2 6.48002 2 12C2 17.5199 6.48002 22 12 22C17.5199 22 22 17.5199 22 12C22 6.48002 17.52 2 12 2ZM4.82665 12C4.82665 8.02665 8.0533 4.8 12 4.8C13.4933 4.8 14.9067 5.25335 16.0533 6.05332L6.08001 16.0533C5.28 14.9067 4.82665 13.4933 4.82665 12ZM12 19.1733C10.5066 19.1733 9.09329 18.72 7.94666 17.92L17.92 7.94666C18.72 9.09334 19.1733 10.5066 19.1733 12C19.1733 15.9733 15.9733 19.1733 12 19.1733Z" fill="#ED8936"/>
</svg>
