<svg width="159" height="24" viewBox="0 0 159 24" fill="none" xmlns="http://www.w3.org/2000/svg">
<path d="M8.80226 15.6047C12.4045 15.6047 15.3247 12.615 15.3247 8.92702C15.3247 5.23907 12.4045 2.24939 8.80226 2.24939C5.2 2.24939 2.27979 5.23907 2.27979 8.92702C2.27979 12.615 5.2 15.6047 8.80226 15.6047Z" fill="#242E2E"/>
<path d="M8.79392 0.00831194C12.7921 0.0169617 16.2195 2.66409 17.2638 6.60526C17.9967 9.37081 17.5183 11.9443 15.8867 14.289C13.7621 17.3425 11.6444 20.4013 9.53377 23.4653C9.04694 24.1693 8.54016 24.1821 8.05261 23.4803C5.90642 20.3872 3.76314 17.2919 1.62278 14.1943C0.669231 12.8113 0.049555 11.2861 0.00410626 9.579C-0.0588227 7.22134 0.600326 5.08007 2.06561 3.2408C3.59397 1.32263 5.59168 0.269894 7.9907 0.0132341C8.25818 -0.00257924 8.52627 -0.00422262 8.79392 0.00831194ZM8.78867 15.3964C12.2318 15.4336 15.0766 12.5602 15.1187 9.00275C15.1351 8.14971 14.9868 7.30176 14.6824 6.50751C14.378 5.71326 13.9234 4.98833 13.3448 4.3743C12.7662 3.76027 12.0749 3.2692 11.3105 2.92925C10.5461 2.58931 9.72374 2.40717 8.89047 2.39328C8.05721 2.3794 7.22946 2.53404 6.45468 2.84833C5.67991 3.16263 4.97335 3.6304 4.37552 4.22483C3.77769 4.81926 3.30035 5.52866 2.97085 6.31234C2.64136 7.09603 2.4662 7.93859 2.45542 8.79172C2.37705 12.3111 5.18482 15.4166 8.78867 15.3964Z" fill="white"/>
<path d="M4.85013 5.1642H6.30172L6.33493 5.87572C6.71367 5.58058 7.04798 5.32228 7.38025 5.06219C7.69912 4.81239 8.01158 4.5538 8.33584 4.3116C8.67495 4.05807 8.92609 4.04316 9.25588 4.30071C10.8696 5.56169 12.4784 6.82933 14.0822 8.10364C14.3112 8.28498 14.4452 8.50854 14.2528 8.81232C14.171 8.94395 14.0453 9.04069 13.899 9.08458C13.7528 9.12847 13.596 9.11651 13.4577 9.05094C13.3075 8.97673 13.1673 8.88288 13.0407 8.77176C11.7568 7.76431 10.4742 6.75542 9.19266 5.74508C8.83737 5.4656 8.77546 5.47455 8.40984 5.76253C7.08347 6.80647 5.75546 7.84857 4.42579 8.88883C4.18616 9.07689 3.93591 9.21156 3.62243 9.08733C3.20917 8.92328 3.10195 8.49288 3.43029 8.19327C3.78762 7.86711 4.17466 7.57391 4.55908 7.28057C4.65635 7.21416 4.7348 7.12267 4.78652 7.01532C4.83823 6.90797 4.86138 6.78855 4.85362 6.66912C4.84153 6.17891 4.85013 5.68856 4.85013 5.1642Z" fill="white"/>
<path d="M6.91968 12.2375V10.8038H8.30995V12.2375H6.91968Z" fill="#00FCF1"/>
<path d="M9.26465 12.2375V10.8038H10.6549V12.2375H9.26465Z" fill="#00FCF1"/>
<path d="M9.26465 9.92081V8.48718H10.6549V9.92081H9.26465Z" fill="#00FCF1"/>
<path d="M6.91968 9.92081V8.48718H8.30995V9.92081H6.91968Z" fill="#00FCF1"/>
<path d="M36.7487 5.34839V19.1186H34.1159V13.5756H27.5903V19.1211H24.9551V5.34839H27.5903V10.8753H34.1159V5.34839H36.7487Z" fill="white"/>
<path d="M44.7548 18.3499C43.7059 17.724 42.8342 16.8294 42.2255 15.7539C41.6123 14.6696 41.2893 13.4388 41.2893 12.1858C41.2893 10.9327 41.6123 9.70189 42.2255 8.61753C42.8349 7.54753 43.7068 6.65908 44.7548 6.0402C45.8046 5.41984 46.9952 5.09251 48.2073 5.09095C49.4195 5.08939 50.6108 5.41366 51.6622 6.03131C52.7091 6.64307 53.5811 7.525 54.1914 8.58923C54.8177 9.67672 55.1414 10.9189 55.1273 12.1813C55.1364 13.4356 54.8165 14.6694 54.2009 15.7539C53.5979 16.8297 52.7299 17.7248 51.6835 18.3499C50.6323 18.9771 49.4374 19.3076 48.2207 19.3076C47.004 19.3076 45.8091 18.9771 44.758 18.3499H44.7548ZM50.3667 16.0331C51.0156 15.6412 51.554 15.0836 51.9293 14.4147C52.3159 13.7376 52.5169 12.9664 52.5111 12.1821C52.5161 11.4067 52.315 10.6444 51.9293 9.97702C51.5523 9.3119 51.0141 8.75754 50.3667 8.36749C49.7161 7.97748 48.9758 7.7719 48.2219 7.7719C47.468 7.7719 46.7277 7.97748 46.0772 8.36749C45.4292 8.75705 44.8906 9.3115 44.5137 9.97702C44.128 10.6444 43.9269 11.4067 43.932 12.1821C43.9277 12.9603 44.1287 13.7252 44.5137 14.3961C44.89 15.067 45.4283 15.6277 46.0772 16.0242C46.7233 16.4257 47.4657 16.6353 48.2215 16.6295C48.9753 16.6334 49.7158 16.4261 50.3627 16.0299L50.3667 16.0331Z" fill="white"/>
<path d="M72.3824 5.53443C72.5023 5.65607 72.597 5.80115 72.6609 5.96102C72.7249 6.12089 72.7568 6.2923 72.7547 6.46504V19.1186H70.1195V10.2238L66.03 15.7879L61.9404 10.2238V19.1186H59.3052V6.46504C59.3083 6.11569 59.4451 5.78152 59.6864 5.53441C59.9276 5.2873 60.2539 5.14696 60.5951 5.14359C60.7836 5.14529 60.9694 5.18971 61.1391 5.27365C61.3089 5.3576 61.4584 5.479 61.5768 5.62911L66.03 11.5655L70.4831 5.62911C70.6014 5.47887 70.7509 5.35739 70.9206 5.27343C71.0904 5.18947 71.2762 5.14512 71.4648 5.14359C71.6358 5.13993 71.8058 5.1728 71.9638 5.24009C72.1218 5.30739 72.2644 5.40762 72.3824 5.53443Z" fill="white"/>
<path d="M81.2066 8.04625V10.8785H88.4593V13.5756H81.2066V16.4232H89.0039V19.1211H79.9348C79.7554 19.124 79.5773 19.0892 79.4115 19.0188C79.2458 18.9484 79.096 18.8438 78.9713 18.7116C78.8431 18.5865 78.7414 18.4358 78.6726 18.2687C78.6038 18.1016 78.5694 17.9219 78.5714 17.7406V6.72563C78.5695 6.54435 78.604 6.3646 78.6728 6.19755C78.7416 6.0305 78.8432 5.87971 78.9713 5.75457C79.0961 5.62253 79.2459 5.51808 79.4117 5.44766C79.5774 5.37723 79.7554 5.34235 79.9348 5.34512H89.0039V8.04301L81.2066 8.04625Z" fill="white"/>
<path d="M99.928 14.634H97.0928V19.1187H94.4568V6.72563C94.4551 6.54437 94.4897 6.36467 94.5585 6.19765C94.6273 6.03063 94.7288 5.87983 94.8568 5.75457C94.9815 5.62253 95.1314 5.51808 95.2971 5.44766C95.4628 5.37723 95.6409 5.34235 95.8203 5.34512H101.274C102.089 5.33946 102.89 5.56159 103.591 5.98762C104.292 6.40762 104.875 7.0072 105.281 7.72743C105.697 8.4487 105.913 9.27169 105.908 10.1089C105.927 11.0836 105.62 12.0356 105.039 12.8076C104.459 13.5752 103.656 14.1352 102.747 14.4075L105.982 19.1154H102.96L99.928 14.634ZM97.0928 12.1255H101.273C101.536 12.1308 101.797 12.0815 102.041 11.9807C102.284 11.8799 102.505 11.7295 102.69 11.5388C102.878 11.3556 103.027 11.1345 103.127 10.8895C103.227 10.6445 103.277 10.3809 103.272 10.1154C103.276 9.84499 103.227 9.57654 103.127 9.32622C103.027 9.0759 102.878 8.84889 102.69 8.65883C102.508 8.4633 102.288 8.30856 102.044 8.20439C101.8 8.10022 101.538 8.04886 101.273 8.05353H97.0928V12.1255Z" fill="white"/>
<path d="M113.533 18.3499C112.484 17.7242 111.612 16.8295 111.003 15.7539C110.39 14.6696 110.067 13.4388 110.067 12.1857C110.067 10.9327 110.39 9.70188 111.003 8.61753C111.612 7.54731 112.484 6.65881 113.533 6.0402C114.582 5.41983 115.773 5.09251 116.985 5.09095C118.197 5.08939 119.388 5.41365 120.439 6.03131C121.486 6.64292 122.358 7.52488 122.968 8.58922C123.594 9.67688 123.918 10.919 123.904 12.1813C123.914 13.4357 123.593 14.6696 122.977 15.7539C122.374 16.8299 121.506 17.725 120.46 18.3499C119.409 18.977 118.214 19.3074 116.997 19.3074C115.781 19.3074 114.586 18.977 113.535 18.3499H113.533ZM119.14 16.0331C119.789 15.6415 120.328 15.0838 120.703 14.4147C121.089 13.7374 121.29 12.9663 121.285 12.1821C121.29 11.4067 121.089 10.6445 120.703 9.97701C120.326 9.31166 119.788 8.75725 119.14 8.36749C118.489 7.97747 117.749 7.77189 116.995 7.77189C116.241 7.77189 115.501 7.97747 114.85 8.36749C114.203 8.75706 113.664 9.31153 113.288 9.97701C112.902 10.6444 112.701 11.4067 112.706 12.1821C112.702 12.9603 112.903 13.7252 113.288 14.3961C113.664 15.067 114.202 15.6276 114.85 16.0242C115.497 16.4257 116.239 16.6352 116.995 16.6295C117.75 16.6341 118.492 16.4267 119.14 16.0299V16.0331Z" fill="white"/>
<path d="M131 18.3499C129.951 17.7242 129.079 16.8295 128.47 15.7539C127.857 14.6696 127.534 13.4388 127.534 12.1857C127.534 10.9327 127.857 9.70188 128.47 8.61753C129.08 7.54734 129.952 6.65884 131 6.0402C132.049 5.41983 133.24 5.09251 134.452 5.09095C135.664 5.08939 136.855 5.41365 137.906 6.03131C138.953 6.64292 139.825 7.52488 140.436 8.58922C141.061 9.67688 141.385 10.919 141.371 12.1813C141.381 13.4357 141.06 14.6696 140.444 15.7539C139.841 16.8299 138.973 17.725 137.927 18.3499C136.876 18.977 135.681 19.3074 134.464 19.3074C133.248 19.3074 132.053 18.977 131.002 18.3499H131ZM136.607 16.0331C137.256 15.6415 137.795 15.0838 138.17 14.4147C138.556 13.7374 138.757 12.9663 138.752 12.1821C138.757 11.4067 138.556 10.6445 138.17 9.97701C137.793 9.31166 137.255 8.75725 136.607 8.36749C135.956 7.97747 135.216 7.77189 134.462 7.77189C133.708 7.77189 132.968 7.97747 132.317 8.36749C131.67 8.75706 131.131 9.31153 130.755 9.97701C130.369 10.6444 130.168 11.4067 130.173 12.1821C130.169 12.9603 130.37 13.7252 130.755 14.3961C131.131 15.067 131.669 15.6276 132.317 16.0242C132.964 16.4257 133.706 16.6352 134.462 16.6295C135.217 16.6341 135.959 16.4267 136.607 16.0299V16.0331Z" fill="white"/>
<path d="M158.628 5.53444C158.747 5.65607 158.842 5.80115 158.906 5.96102C158.97 6.12089 159.002 6.2923 159 6.46504V19.1186H156.365V10.2238L152.275 15.7879L148.186 10.2238V19.1186H145.55V6.46504C145.553 6.11562 145.69 5.78145 145.931 5.53436C146.173 5.28727 146.499 5.14696 146.84 5.14359C147.029 5.14529 147.215 5.18971 147.384 5.27366C147.554 5.3576 147.704 5.479 147.822 5.62912L152.275 11.5655L156.728 5.62912C156.847 5.47893 156.996 5.35749 157.165 5.27353C157.335 5.18957 157.521 5.14518 157.709 5.14359C157.88 5.13992 158.05 5.17278 158.209 5.24007C158.367 5.30736 158.509 5.4076 158.628 5.53444Z" fill="white"/>
</svg>
