<svg width="40" height="40" viewBox="0 0 40 40" fill="none" xmlns="http://www.w3.org/2000/svg">
<g clip-path="url(#clip0_7240_24710)">
<path d="M19.7832 31.7969H13.5332C12.8859 31.7969 12.3613 32.3216 12.3613 32.9688C12.3613 33.6159 12.8859 34.1406 13.5332 34.1406H19.7832C20.4304 34.1406 20.9551 33.6159 20.9551 32.9688C20.9551 32.3216 20.4304 31.7969 19.7832 31.7969Z" fill="#171923"/>
<path d="M19.7832 27.1094H13.5332C12.8859 27.1094 12.3613 27.6341 12.3613 28.2812C12.3613 28.9284 12.8859 29.4531 13.5332 29.4531H19.7832C20.4304 29.4531 20.9551 28.9284 20.9551 28.2812C20.9551 27.6341 20.4304 27.1094 19.7832 27.1094Z" fill="#171923"/>
<path d="M38.2339 23.0725L34.367 19.2055C33.9098 18.7481 33.1673 18.7479 32.7098 19.2055L31.8926 20.0227V4.6875C31.8926 4.04031 31.3679 3.51562 30.7207 3.51562H23.6895V1.17188C23.6895 0.524687 23.1648 0 22.5176 0H10.7988C10.1516 0 9.62695 0.524687 9.62695 1.17188V3.51562H2.5957C1.94844 3.51562 1.42383 4.04031 1.42383 4.6875V38.8281C1.42383 39.4753 1.94844 40 2.5957 40H30.7207C31.3679 40 31.8926 39.4753 31.8926 38.8281V31.0711L38.2339 24.7297C38.6916 24.2721 38.6916 23.5301 38.2339 23.0725ZM21.3457 2.34375V7.03125H11.9707V2.34375H21.3457ZM29.5488 37.6562H3.76758V5.85938H9.62695V8.20312C9.62695 8.85031 10.1516 9.375 10.7988 9.375H22.5176C23.1648 9.375 23.6895 8.85031 23.6895 8.20312V5.85938H29.5488V22.3664L23.642 28.2731C23.4222 28.4929 23.2988 28.7909 23.2988 29.1018V32.9688C23.2988 33.6159 23.8234 34.1406 24.4707 34.1406H28.3377C28.6486 34.1406 28.9466 34.0172 29.1663 33.7973L29.5488 33.4148V37.6562ZM27.8523 31.7969H25.6426V29.5872L33.5384 21.6914L35.748 23.9011L27.8523 31.7969Z" fill="#171923"/>
<path d="M23.9566 16.9303C24.246 16.3514 24.0114 15.6475 23.4325 15.3581L17.1825 12.2331C16.8526 12.0681 16.4643 12.0681 16.1344 12.2331L9.88438 15.3581C9.30547 15.6475 9.07086 16.3514 9.36032 16.9303C9.62782 17.4654 10.2493 17.7054 10.7991 17.5102V23.0469C10.7991 23.6941 11.3237 24.2188 11.9709 24.2188H21.3459C21.9931 24.2188 22.5178 23.6941 22.5178 23.0469V17.5109C23.0727 17.7078 23.6911 17.4614 23.9566 16.9303ZM17.8303 21.875V20.7032C17.8303 20.056 17.3056 19.5313 16.6584 19.5313C16.0112 19.5313 15.4866 20.056 15.4866 20.7032V21.875H13.1428V16.3492L16.6584 14.5914L20.1741 16.3492V21.875H17.8303Z" fill="#171923"/>
</g>
<defs>
<clipPath id="clip0_7240_24710">
<rect width="40" height="40" fill="white"/>
</clipPath>
</defs>
</svg>
