<svg width="64" height="64" viewBox="0 0 64 64" fill="none" xmlns="http://www.w3.org/2000/svg">
<path d="M59.3032 10H4.69688C2.107 10 0 12.107 0 14.6969V48.5981C0 51.188 2.107 53.295 4.69688 53.295H59.3031C61.8931 53.295 64 51.188 64 48.5981V14.6969C64.0001 12.107 61.8931 10 59.3032 10ZM19.687 38.1899H26.0314C26.7927 38.1899 27.4096 38.8069 27.4096 39.5681C27.4096 40.3292 26.7926 40.9462 26.0314 40.9462H19.687C18.9258 40.9462 18.3089 40.3292 18.3089 39.5681C18.3089 38.8069 18.9259 38.1899 19.687 38.1899ZM5.96001 24.3665C5.96001 23.6053 6.57701 22.9884 7.33814 22.9884H15.5942C16.3554 22.9884 16.9723 23.6054 16.9723 24.3665V30.3357C16.9723 31.0969 16.3553 31.7138 15.5942 31.7138H7.33814C6.57689 31.7138 5.96001 31.0968 5.96001 30.3357V24.3665ZM7.33814 38.1899H13.6825C14.4438 38.1899 15.0607 38.8069 15.0607 39.5681C15.0607 40.3292 14.4437 40.9462 13.6825 40.9462H7.33814C6.57689 40.9462 5.96001 40.3292 5.96001 39.5681C5.96001 38.8069 6.57714 38.1899 7.33814 38.1899ZM29.9876 47.0746H7.33814C6.57689 47.0746 5.96001 46.4576 5.96001 45.6964C5.96001 44.9353 6.57701 44.3183 7.33814 44.3183H29.9876C30.7488 44.3183 31.3657 44.9353 31.3657 45.6964C31.3657 46.4576 30.7488 47.0746 29.9876 47.0746ZM38.3803 40.9462H32.0359C31.2747 40.9462 30.6578 40.3292 30.6578 39.5681C30.6578 38.8069 31.2748 38.1899 32.0359 38.1899H38.3803C39.1416 38.1899 39.7585 38.8069 39.7585 39.5681C39.7585 40.3292 39.1416 40.9462 38.3803 40.9462ZM50.7292 40.9462H44.3848C43.6236 40.9462 43.0067 40.3292 43.0067 39.5681C43.0067 38.8069 43.6237 38.1899 44.3848 38.1899H50.7292C51.4905 38.1899 52.1074 38.8069 52.1074 39.5681C52.1074 40.3292 51.4902 40.9462 50.7292 40.9462ZM56.662 20.8141H41.6983C40.9371 20.8141 40.3202 20.1971 40.3202 19.436C40.3202 18.6749 40.9372 18.0579 41.6983 18.0579H56.662C57.4232 18.0579 58.0401 18.6749 58.0401 19.436C58.0401 20.1971 57.423 20.8141 56.662 20.8141Z" fill="#CBD5E0"/>
<path d="M45.3337 61.334C51.9612 61.334 57.3337 55.9614 57.3337 49.334C57.3337 42.7066 51.9612 37.334 45.3337 37.334C38.7063 37.334 33.3337 42.7066 33.3337 49.334C33.3337 55.9614 38.7063 61.334 45.3337 61.334Z" fill="#319795"/>
<path d="M45.3338 55.9998C44.9853 55.9966 44.6409 55.9242 44.3205 55.7869C44.0001 55.6496 43.7102 55.45 43.4676 55.1998L39.4663 51.1998C39.2135 50.9563 39.0117 50.6649 38.8728 50.3426C38.7339 50.0203 38.6607 49.6735 38.6573 49.3225C38.654 48.9716 38.7207 48.6235 38.8535 48.2986C38.9863 47.9737 39.1825 47.6785 39.4307 47.4303C39.6788 47.1822 39.974 46.986 40.2989 46.8532C40.6238 46.7204 40.9719 46.6537 41.3229 46.657C41.6738 46.6604 42.0206 46.7336 42.3429 46.8725C42.6653 47.0114 42.9566 47.2132 43.2001 47.466L44.5338 48.7998L46.9338 44.1329C47.3345 43.1998 48.2676 42.666 49.3338 42.666C49.7345 42.666 50.1338 42.794 50.5345 42.9323C50.8508 43.0887 51.133 43.3062 51.3647 43.5723C51.5965 43.8384 51.7733 44.1477 51.885 44.4824C51.9966 44.8172 52.0408 45.1707 52.0151 45.5227C51.9894 45.8746 51.8942 46.2179 51.7351 46.5329L47.7338 54.5278C47.5522 54.9216 47.2734 55.2629 46.9236 55.5195C46.5739 55.776 46.1647 55.9396 45.7345 55.9947L45.3338 55.9998Z" fill="url(#paint0_linear_13278_35398)"/>
<path d="M45.3339 54.6658C45.1587 54.6707 44.9845 54.6376 44.8234 54.5686C44.6623 54.4997 44.5181 54.3966 44.4007 54.2664L40.4007 50.2664C40.1568 50.0182 40.0207 49.6837 40.0222 49.3357C40.0237 48.9876 40.1626 48.6543 40.4087 48.4082C40.6548 48.1621 40.9882 48.0232 41.3362 48.0217C41.6842 48.0202 42.0188 48.1562 42.267 48.4002L44.9281 51.0716L48.1281 44.6716C48.3943 44.0047 49.1943 43.7384 49.8612 44.1378C50.5281 44.404 50.7943 45.204 50.395 45.8709L46.395 53.8709C46.3264 54.0642 46.2001 54.2318 46.0332 54.351C45.8664 54.4703 45.6669 54.5355 45.4619 54.5378C45.467 54.6658 45.467 54.6658 45.3339 54.6658Z" fill="white"/>
<defs>
<linearGradient id="paint0_linear_13278_35398" x1="43.3403" y1="44.0523" x2="50.4029" y2="54.8626" gradientUnits="userSpaceOnUse">
<stop stop-color="#319795"/>
<stop offset="1" stop-color="#28D8C1" stop-opacity="0"/>
</linearGradient>
</defs>
</svg>
