<svg width="24" height="24" viewBox="0 0 24 24" fill="none" xmlns="http://www.w3.org/2000/svg">
<path d="M19.7586 5.33325H4.24185C3.1165 5.33325 2.2002 6.26825 2.2002 7.41661V16.5833C2.2002 17.7316 3.1165 18.6666 4.24185 18.6666H19.7585C20.8839 18.6666 21.8002 17.7316 21.8002 16.5833V7.41661C21.8002 6.26825 20.8839 5.33325 19.7586 5.33325ZM20.9836 16.5833C20.9836 17.2724 20.434 17.8333 19.7586 17.8333H4.24185C3.56646 17.8333 3.01685 17.2724 3.01685 16.5833V7.41661C3.01685 6.72743 3.56646 6.16661 4.24185 6.16661H19.7585C20.4339 6.16661 20.9835 6.72743 20.9835 7.41661V16.5833H20.9836Z" fill="black" stroke="black" stroke-width="0.2"/>
<path d="M21.3918 7.83325H2.60854C2.38314 7.83325 2.2002 8.01993 2.2002 8.24993V10.7499C2.2002 10.9799 2.38314 11.1666 2.60854 11.1666H21.3919C21.6173 11.1666 21.8002 10.9799 21.8002 10.7499V8.24993C21.8002 8.01993 21.6172 7.83325 21.3918 7.83325ZM20.9835 10.3333H3.01685V8.66657H20.9835L20.9835 10.3333Z" fill="black" stroke="black" stroke-width="0.2"/>
<path d="M18.7714 14.6128H18.0183C17.6921 14.6128 17.4277 14.8772 17.4277 15.2033C17.4277 15.5295 17.6921 15.7939 18.0183 15.7939H18.7714C19.0976 15.7939 19.362 15.5295 19.362 15.2033C19.362 14.8772 19.0976 14.6128 18.7714 14.6128Z" fill="black"/>
<path d="M15.937 14.6128H15.1838C14.8577 14.6128 14.5933 14.8772 14.5933 15.2033C14.5933 15.5295 14.8577 15.7939 15.1838 15.7939H15.937C16.2631 15.7939 16.5275 15.5295 16.5275 15.2033C16.5275 14.8772 16.2631 14.6128 15.937 14.6128Z" fill="black"/>
</svg>
