<svg width="48" height="48" viewBox="0 0 48 48" fill="none" xmlns="http://www.w3.org/2000/svg">
<path d="M0 24C0 10.7452 10.7452 0 24 0C37.2548 0 48 10.7452 48 24C48 37.2548 37.2548 48 24 48C10.7452 48 0 37.2548 0 24Z" fill="#E2E8F0"/>
<path d="M24 27.5C29.6812 27.5 34.2857 22.9115 34.2857 17.25C34.2857 11.5885 29.6812 7 24 7C18.3188 7 13.7143 11.5885 13.7143 17.25C13.7143 22.9115 18.3188 27.5 24 27.5ZM31.2 30.0625H29.858C28.0741 30.8793 26.0893 31.3438 24 31.3438C21.9107 31.3438 19.9339 30.8793 18.142 30.0625H16.8C10.8375 30.0625 6 34.8832 6 40.825V44.1562C6 46.2783 7.72768 48 9.85714 48H38.1429C40.2723 48 42 46.2783 42 44.1562V40.825C42 34.8832 37.1625 30.0625 31.2 30.0625Z" fill="white"/>
</svg>
