<svg width="19" height="18" viewBox="0 0 19 18" fill="none" xmlns="http://www.w3.org/2000/svg">
<path d="M7.5245 8.0115C8.22825 9.24786 9.25214 10.2717 10.4885 10.9755L11.1515 10.047C11.2581 9.8977 11.4158 9.79266 11.5946 9.75175C11.7734 9.71084 11.9611 9.7369 12.122 9.825C13.1827 10.4047 14.3542 10.7533 15.5592 10.848C15.7473 10.8629 15.9229 10.9482 16.0509 11.0867C16.1789 11.2253 16.25 11.4071 16.25 11.5958V14.9423C16.25 15.1279 16.1812 15.3071 16.0568 15.4449C15.9324 15.5828 15.7612 15.6696 15.5765 15.6885C15.179 15.7297 14.7785 15.75 14.375 15.75C7.955 15.75 2.75 10.545 2.75 4.125C2.75 3.7215 2.77025 3.321 2.8115 2.9235C2.83044 2.73877 2.91724 2.56764 3.05509 2.44323C3.19295 2.31881 3.37205 2.24996 3.55775 2.25H6.90425C7.09292 2.24998 7.27467 2.32106 7.41326 2.44909C7.55185 2.57711 7.63709 2.75267 7.652 2.94075C7.74667 4.14584 8.09531 5.31726 8.675 6.378C8.7631 6.53892 8.78916 6.72656 8.74825 6.9054C8.70734 7.08424 8.6023 7.24188 8.453 7.3485L7.5245 8.0115ZM5.633 7.51875L7.058 6.501C6.65359 5.62807 6.37651 4.70163 6.23525 3.75H4.2575C4.253 3.8745 4.25075 3.99975 4.25075 4.125C4.25 9.717 8.783 14.25 14.375 14.25C14.5002 14.25 14.6255 14.2478 14.75 14.2425V12.2648C13.7984 12.1235 12.8719 11.8464 11.999 11.442L10.9813 12.867C10.5715 12.7078 10.1735 12.5198 9.79025 12.3045L9.74675 12.2797C8.27568 11.4425 7.05746 10.2243 6.22025 8.75325L6.1955 8.70975C5.98018 8.3265 5.79221 7.9285 5.633 7.51875Z" fill="white"/>
</svg>
