<svg width="16" height="16" viewBox="0 0 16 16" fill="none" xmlns="http://www.w3.org/2000/svg">
<path d="M7.26673 1.39996L13.8661 2.3433L14.8087 8.9433L8.68073 15.0713C8.55571 15.1963 8.38617 15.2665 8.2094 15.2665C8.03262 15.2665 7.86308 15.1963 7.73806 15.0713L1.13806 8.4713C1.01308 8.34628 0.942871 8.17674 0.942871 7.99996C0.942871 7.82319 1.01308 7.65365 1.13806 7.52863L7.26673 1.39996ZM9.15206 7.0573C9.2759 7.18109 9.4229 7.27928 9.58469 7.34626C9.74647 7.41324 9.91986 7.4477 10.095 7.44767C10.2701 7.44763 10.4434 7.41312 10.6052 7.34608C10.767 7.27904 10.9139 7.1808 11.0377 7.05696C11.1615 6.93313 11.2597 6.78612 11.3267 6.62434C11.3937 6.46255 11.4281 6.28916 11.4281 6.11406C11.4281 5.93896 11.3935 5.76558 11.3265 5.60382C11.2595 5.44206 11.1612 5.29509 11.0374 5.1713C10.9136 5.0475 10.7666 4.94931 10.6048 4.88234C10.443 4.81536 10.2696 4.7809 10.0945 4.78093C9.74086 4.78099 9.40174 4.92153 9.15173 5.17163C8.90172 5.42173 8.7613 5.7609 8.76136 6.11453C8.76142 6.46816 8.90196 6.80729 9.15206 7.0573Z" fill="#A0AEC0"/>
</svg>
