<svg width="20" height="20" viewBox="0 0 20 20" fill="none" xmlns="http://www.w3.org/2000/svg">
<path d="M2.17484 5.00058V5.00016C2.17484 4.34803 2.68758 3.8335 3.33317 3.8335H16.6665C17.3154 3.8335 17.8332 4.35131 17.8332 5.00016V15.0002C17.8332 15.649 17.3154 16.1668 16.6665 16.1668H3.33317C2.68437 16.1668 2.1666 15.6491 2.1665 15.0003C2.1665 15.0003 2.1665 15.0002 2.1665 15.0002L2.17484 5.00058ZM16.6665 15.5002H17.1665V15.0002V10.0002V9.50016H16.6665H3.33317H2.83317V10.0002V15.0002V15.5002H3.33317H16.6665ZM16.6665 7.16683H17.1665V6.66683V5.00016V4.50016H16.6665H3.33317H2.83317V5.00016V6.66683V7.16683H3.33317H16.6665Z" fill="#2D3748" stroke="#2D3748"/>
</svg>
