<svg width="24" height="24" viewBox="0 0 24 24" fill="none" xmlns="http://www.w3.org/2000/svg">
<g clip-path="url(#clip0_11257_30921)">
<path d="M17.9857 9.20391H16.8139V5.21617C16.8139 4.08895 15.8968 3.17188 14.7696 3.17188H10.0833C8.95613 3.17188 8.03906 4.08895 8.03906 5.21617V6.54695H6.86719V5.21617C6.86719 3.44277 8.30996 2 10.0833 2H14.7696C16.5429 2 17.9857 3.44277 17.9857 5.21617V9.20391H17.9857Z" fill="#ED8936"/>
<path d="M7.45277 5.21631L6.6709 6.54713L7.45277 7.65436C8.12602 7.65436 8.6718 8.20014 8.6718 8.87338C8.6718 9.54662 8.12602 10.0924 7.45277 10.0924L6.6709 11.4962L7.45277 22.0001L9.05395 20.7811V13.6893C10.685 13.0496 11.84 11.4615 11.84 9.60354C11.84 7.18053 9.87578 5.21631 7.45277 5.21631Z" fill="#319795"/>
<path d="M6.23461 8.8733C6.23461 8.20006 6.7804 7.65428 7.45364 7.65428V5.21631C5.03063 5.21631 3.06641 7.18057 3.06641 9.60354C3.06641 11.4615 4.22137 13.0496 5.85247 13.6893V20.7811L7.45364 22.0001V10.0923C6.7804 10.0923 6.23461 9.54654 6.23461 8.8733Z" fill="#319795"/>
<path d="M20.9339 8.51929H17.4L16.6182 14.3126L17.4 20.2503H20.9339V8.51929Z" fill="#A0AEC0"/>
<path d="M17.4002 8.51904H13.8662V20.2499H17.4002V8.51904Z" fill="#A0AEC0"/>
</g>
<defs>
<clipPath id="clip0_11257_30921">
<rect width="20" height="20" fill="white" transform="translate(2 2)"/>
</clipPath>
</defs>
</svg>
