<svg width="20" height="20" viewBox="0 0 20 20" fill="none" xmlns="http://www.w3.org/2000/svg">
<g clip-path="url(#clip0_7961_1230)">
<path d="M10 15.8332C10.69 15.8332 11.25 16.3932 11.25 17.0832C11.25 17.7732 10.69 18.3332 10 18.3332C9.31 18.3332 8.75 17.7732 8.75 17.0832C8.75 16.3932 9.31 15.8332 10 15.8332ZM10 1.6665C12.7617 1.6665 15 3.90484 15 6.6665C15 8.47067 14.3725 9.40817 12.7717 10.769C11.1658 12.1332 10.8333 12.7473 10.8333 14.1665H9.16667C9.16667 12.1048 9.8225 11.0873 11.6925 9.499C12.9567 8.42484 13.3333 7.8615 13.3333 6.6665C13.3333 4.82484 11.8417 3.33317 10 3.33317C8.15833 3.33317 6.66667 4.82484 6.66667 6.6665V7.49984H5V6.6665C5 3.90484 7.23833 1.6665 10 1.6665Z" fill="#718096"/>
</g>
<defs>
<clipPath id="clip0_7961_1230">
<rect width="20" height="20" rx="10" fill="white"/>
</clipPath>
</defs>
</svg>
