<svg width="16" height="16" viewBox="0 0 16 16" fill="none" xmlns="http://www.w3.org/2000/svg">
<path d="M0 8C0 3.58172 3.58172 0 8 0C12.4183 0 16 3.58172 16 8C16 12.4183 12.4183 16 8 16C3.58172 16 0 12.4183 0 8Z" fill="white"/>
<path d="M8 5C9.65685 5 11 6.34315 11 8H-11C-11 18.4934 -2.49341 27 8 27V5ZM5 8C5 6.34315 6.34315 5 8 5V27C18.4934 27 27 18.4934 27 8H5ZM8 11C6.34315 11 5 9.65685 5 8H27C27 -2.49341 18.4934 -11 8 -11V11ZM8 -11C-2.49341 -11 -11 -2.49341 -11 8H11C11 9.65685 9.65685 11 8 11V-11Z" fill="#319795"/>
</svg>
