<svg width="24" height="24" viewBox="0 0 24 24" fill="none" xmlns="http://www.w3.org/2000/svg">
<g clip-path="url(#clip0_1308:5219)">
<path d="M23.4993 3.85701L23.0924 2.89699L18.9341 7.05514L17.2774 6.7239L16.9461 5.06716L21.1045 0.909017L20.1443 0.502157C17.8089 -0.487345 15.0549 0.000631154 13.2011 1.85421C11.4621 3.59334 10.9284 6.12148 11.6778 8.34658L7.56822 12.4432C6.87205 13.1392 5.74174 14.0064 4.30912 14.1849C3.21452 14.3213 2.22282 14.8064 1.44133 15.588C-0.703023 17.7322 -0.437337 21.3264 2.12797 23.121C3.76219 24.2643 6.04991 24.2718 7.6909 23.136C8.82396 22.3518 9.56553 21.1828 9.77867 19.8445C9.98741 18.5342 10.466 17.4971 11.2005 16.7627L15.6532 12.3229C17.8761 13.0723 20.4056 12.5415 22.1471 10.8C23.9985 8.94881 24.4899 6.19509 23.4993 3.85701V3.85701ZM21.1532 9.80611C19.7279 11.2314 17.6081 11.6441 15.7523 10.8581L15.3169 10.6735L10.2073 15.768C9.2581 16.7172 8.64689 18.0144 8.39054 19.6233C8.2382 20.5793 7.70555 21.4163 6.89091 21.9802C5.72435 22.7876 4.09709 22.783 2.93382 21.9693C1.05314 20.6535 0.932842 18.0845 2.43522 16.5821C2.99369 16.0236 3.70158 15.6772 4.48289 15.5798C5.93016 15.3996 7.34062 14.6586 8.56138 13.438L13.3285 8.68587L13.1434 8.24898C12.3572 6.39339 12.7699 4.2734 14.1952 2.84829C15.1405 1.90291 16.3915 1.40304 17.6683 1.40304C17.9598 1.40304 18.2528 1.42904 18.5436 1.48177L15.4201 4.60518L16.0828 7.91848L19.3961 8.58114L22.5195 5.45772C22.8033 7.02254 22.3142 8.64504 21.1532 9.80611V9.80611Z" fill="black"/>
<path d="M3.42862 17.5752C2.60648 18.3973 2.60648 19.7349 3.42862 20.5573C4.25259 21.3812 5.58652 21.3812 6.41049 20.5573C7.23264 19.7349 7.23264 18.3973 6.41049 17.5752C5.58652 16.7512 4.25278 16.751 3.42862 17.5752ZM5.4166 19.5632C5.14194 19.8378 4.69736 19.8378 4.42252 19.5632C4.14859 19.2893 4.14859 18.8432 4.42252 18.5693C4.69736 18.2946 5.14194 18.2944 5.4166 18.5693C5.6907 18.8432 5.6907 19.2891 5.4166 19.5632Z" fill="black"/>
</g>
<defs>
<clipPath id="clip0_1308:5219">
<rect width="24" height="24" fill="white"/>
</clipPath>
</defs>
</svg>
