<svg width="40" height="40" viewBox="0 0 40 40" fill="none" xmlns="http://www.w3.org/2000/svg">
<g clip-path="url(#clip0_7240_24723)">
<path d="M39.4781 29.8054C39.2295 29.6396 31.8337 24.7082 31.5486 24.5179C31.1627 24.2607 30.6472 24.2519 30.2482 24.5179L29.1167 25.2725L20.7752 22.9586V19.8672C22.3612 18.4115 23.357 16.3226 23.357 14.0052V1.17334C23.357 0.52615 22.8323 0.00146484 22.1852 0.00146484H12.006C9.47254 0.00146484 7.44107 2.13138 7.44107 4.64449V14.0052C7.44107 16.3226 8.437 18.4115 10.0229 19.8672V22.9605L0.856247 25.5239C0.349999 25.6654 0 26.1268 0 26.6525V38.8294C0 39.4766 0.524685 40.0013 1.17187 40.0013H36.8456C37.4927 40.0013 38.0174 39.4766 38.0174 38.8294V31.6485L38.1778 31.7554C38.7163 32.1144 39.4438 31.969 39.803 31.4306C40.162 30.892 40.0166 30.1644 39.4781 29.8054ZM26.5407 26.9901L22.3186 29.8054C21.7801 30.1645 21.6347 30.892 21.9937 31.4305C22.3537 31.9704 23.0816 32.1135 23.6189 31.7554L23.7793 31.6485V37.6576H20.0545L19.3277 33.0861C20.4268 26.4911 20.1077 28.4921 20.5702 25.3339L26.5407 26.9901ZM17.1476 31.9098H13.6503L13.1271 28.7708H17.6707L17.1476 31.9098ZM13.6579 34.2535H17.14L17.6812 37.6576H13.1167L13.6579 34.2535ZM12.006 2.34521H21.0132V6.21074H9.78481V4.64449C9.78481 3.39809 10.802 2.34521 12.006 2.34521ZM9.78481 8.55448H21.0132V14.0052C21.0132 15.7893 20.1757 17.3805 18.8743 18.4095C16.8718 19.9998 13.9853 20.0465 11.9221 18.4082C10.6216 17.3791 9.78481 15.7884 9.78481 14.0052V8.55448ZM18.4313 21.3622V23.7642L18.0413 26.4271H12.7566L12.3667 23.7642V21.3622C14.3027 22.1632 16.4924 22.1644 18.4313 21.3622ZM2.34374 27.5416L10.2282 25.3368C10.6781 28.409 10.409 26.7185 11.4703 33.0861L10.7436 37.6576H2.34374V27.5416ZM35.6737 37.6576H32.0702V35.7044C32.0702 35.0573 31.5455 34.5326 30.8983 34.5326C30.2511 34.5326 29.7264 35.0573 29.7264 35.7044V37.6576H26.1229V30.0859L30.8983 26.9015L35.6737 30.0859V37.6576Z" fill="#171923"/>
</g>
<defs>
<clipPath id="clip0_7240_24723">
<rect width="40" height="40" fill="white"/>
</clipPath>
</defs>
</svg>
