<svg width="16" height="16" viewBox="0 0 16 16" fill="none" xmlns="http://www.w3.org/2000/svg">
<path d="M2.22671 11.3332C1.94489 10.8459 1.72582 10.3249 1.57471 9.78255C1.90358 9.61528 2.17977 9.3603 2.37273 9.04581C2.56568 8.73132 2.66788 8.36959 2.66802 8.00062C2.66816 7.63166 2.56623 7.26985 2.37351 6.95522C2.18079 6.64058 1.90479 6.3854 1.57604 6.21788C1.8774 5.12821 2.45119 4.13318 3.24337 3.32655C3.55277 3.5277 3.91179 3.63932 4.28069 3.64907C4.6496 3.65881 5.01401 3.5663 5.33359 3.38177C5.65318 3.19724 5.91548 2.92788 6.09146 2.60351C6.26744 2.27914 6.35024 1.9124 6.33071 1.54388C7.42545 1.26096 8.57419 1.26142 9.66871 1.54522C9.64934 1.91373 9.73231 2.28041 9.90843 2.60469C10.0845 2.92897 10.3469 3.1982 10.6666 3.38259C10.9862 3.56698 11.3507 3.65934 11.7196 3.64945C12.0884 3.63956 12.4474 3.5278 12.7567 3.32655C13.1427 3.71988 13.4854 4.16722 13.7734 4.66655C14.062 5.16588 14.278 5.68655 14.4254 6.21722C14.0965 6.38448 13.8203 6.63946 13.6274 6.95395C13.4344 7.26844 13.3322 7.63018 13.3321 7.99914C13.3319 8.3681 13.4339 8.72992 13.6266 9.04455C13.8193 9.35918 14.0953 9.61437 14.424 9.78188C14.1227 10.8716 13.5489 11.8666 12.7567 12.6732C12.4473 12.4721 12.0883 12.3604 11.7194 12.3507C11.3505 12.3409 10.9861 12.4335 10.6665 12.618C10.3469 12.8025 10.0846 13.0719 9.90862 13.3963C9.73264 13.7206 9.64984 14.0874 9.66937 14.4559C8.57463 14.7388 7.42589 14.7383 6.33137 14.4545C6.35074 14.086 6.26777 13.7194 6.09165 13.3951C5.91554 13.0708 5.65314 12.8016 5.33349 12.6172C5.01384 12.4328 4.64941 12.3404 4.28052 12.3503C3.91164 12.3602 3.55268 12.472 3.24337 12.6732C2.84937 12.2712 2.50777 11.8209 2.22671 11.3332V11.3332ZM6.00004 11.4639C6.71046 11.8736 7.2446 12.5312 7.50004 13.3105C7.83271 13.3419 8.16671 13.3425 8.49937 13.3112C8.75497 12.5318 9.28937 11.8742 10 11.4645C10.7102 11.0537 11.5471 10.9195 12.35 11.0879C12.5434 10.8159 12.71 10.5259 12.8487 10.2225C12.3017 9.61151 11.9995 8.82002 12 7.99988C12 7.15988 12.3134 6.37522 12.8487 5.77722C12.7091 5.47398 12.5417 5.1843 12.3487 4.91188C11.5462 5.08009 10.7099 4.9462 10 4.53588C9.28962 4.12613 8.75548 3.46854 8.50004 2.68922C8.16737 2.65788 7.83337 2.65722 7.50071 2.68855C7.2451 3.46798 6.71071 4.12559 6.00004 4.53522C5.2899 4.94609 4.45302 5.08023 3.65004 4.91188C3.45708 5.18407 3.29013 5.47379 3.15137 5.77722C3.69842 6.38826 4.00063 7.17974 4.00004 7.99988C4.00004 8.83988 3.68671 9.62455 3.15137 10.2225C3.29102 10.5258 3.4584 10.8155 3.65137 11.0879C4.45385 10.9197 5.29018 11.0536 6.00004 11.4639ZM8.00004 9.99988C7.46961 9.99988 6.9609 9.78917 6.58583 9.4141C6.21075 9.03902 6.00004 8.53031 6.00004 7.99988C6.00004 7.46945 6.21075 6.96074 6.58583 6.58567C6.9609 6.2106 7.46961 5.99988 8.00004 5.99988C8.53047 5.99988 9.03918 6.2106 9.41425 6.58567C9.78933 6.96074 10 7.46945 10 7.99988C10 8.53031 9.78933 9.03902 9.41425 9.4141C9.03918 9.78917 8.53047 9.99988 8.00004 9.99988ZM8.00004 8.66655C8.17685 8.66655 8.34642 8.59631 8.47144 8.47129C8.59647 8.34626 8.66671 8.17669 8.66671 7.99988C8.66671 7.82307 8.59647 7.6535 8.47144 7.52848C8.34642 7.40345 8.17685 7.33322 8.00004 7.33322C7.82323 7.33322 7.65366 7.40345 7.52864 7.52848C7.40361 7.6535 7.33337 7.82307 7.33337 7.99988C7.33337 8.17669 7.40361 8.34626 7.52864 8.47129C7.65366 8.59631 7.82323 8.66655 8.00004 8.66655V8.66655Z" fill="#2D3748"/>
</svg>
