<svg width="18" height="18" viewBox="0 0 18 18" fill="none" xmlns="http://www.w3.org/2000/svg">
<path d="M17.0669 2.89923L16.9824 3.39204C16.9912 3.39353 16.9986 3.39916 17.0024 3.40718L17.0025 3.4072C17.0052 3.41301 17.008 3.41883 17.0108 3.42465L16.4206 4.0148L13.6073 6.82824L13.6073 6.8283C13.6022 6.83338 13.5953 6.83627 13.588 6.83627C13.5807 6.83627 13.5738 6.8334 13.5687 6.8283L13.5687 6.82824L11.1722 4.43174L10.8187 4.78529L11.1722 4.43174C11.1615 4.42104 11.1616 4.40373 11.1722 4.39311L11.1722 4.39307L13.9848 1.5804L14.5756 0.989627C14.5814 0.99239 14.5873 0.995165 14.5931 0.99795L14.7712 0.625047L14.5931 0.997951C14.6011 1.00178 14.6068 1.00924 14.6083 1.01806L14.6083 1.0181C14.6098 1.02671 14.607 1.03564 14.6007 1.04194L14.916 1.35727L14.6007 1.04194L11.5838 4.05887L11.2302 4.41243L11.5838 4.76598L13.2345 6.41667L13.588 6.77023L13.9416 6.41666L16.9585 3.39966L16.9585 3.39962C16.9646 3.39356 16.9735 3.39051 16.9828 3.39209L17.0669 2.89923ZM17.0669 2.89923C16.8982 2.8704 16.7259 2.92503 16.6049 3.04611L0.651301 14.207L0.644375 14.214C0.229074 14.6329 0.000488281 15.1879 0.000488281 15.7781C0.000488281 16.3716 0.231605 16.9296 0.651301 17.3492C1.07096 17.7688 1.62889 18 2.22236 18C2.81584 18 3.3738 17.7689 3.79343 17.3492L10.3172 10.8255C10.9733 11.0851 11.6827 11.2212 12.3902 11.2212H12.3905C13.8889 11.2212 15.2977 10.6377 16.3573 9.57811C18.0359 7.89954 18.4764 5.33303 17.4536 3.1917C17.3798 3.03718 17.2357 2.92816 17.0669 2.89923ZM17.0529 3.51616L17.2554 4.23235C17.7469 5.97159 17.2736 7.87738 15.9651 9.18586L17.0529 3.51616ZM17.0529 3.51616C17.9186 5.44376 17.5042 7.72412 16.0037 9.22455L16.3365 9.55731L16.0037 9.22456C15.0379 10.1904 13.7563 10.7212 12.3905 10.7212H12.3905H12.3905H12.3905H12.3905H12.3905H12.3904H12.3904H12.3904H12.3904H12.3904H12.3904H12.3904H12.3904H12.3904H12.3904H12.3904H12.3904H12.3904H12.3903H12.3903H12.3903H12.3903H12.3903H12.3903H12.3903H12.3903H12.3903H12.3903H12.3903H12.3903H12.3903H12.3902C12.3902 10.7212 12.3902 10.7212 12.3902 10.7212C11.746 10.7212 11.099 10.5971 10.5012 10.3605L10.1959 10.2397L9.96364 10.4719L3.43987 16.9957L3.43986 16.9957C3.11401 17.3216 2.68323 17.5 2.22236 17.5C1.76153 17.5 1.33076 17.3215 1.00484 16.9957C0.678923 16.6698 0.500488 16.239 0.500488 15.7781C0.500488 15.3198 0.676984 14.8913 0.99943 14.5661L0.999451 14.5661L1.00324 14.5622L1.00486 14.5605L1.00542 14.5599L7.52824 8.03698L7.76077 7.80445L7.63936 7.49883C6.89162 5.6167 7.32873 3.44371 8.77576 1.99669C9.74159 1.03089 11.0233 0.5 12.3893 0.5C13.1085 0.5 13.8307 0.654646 14.4837 0.947306L13.7667 0.745543C13.3201 0.619851 12.8547 0.554688 12.3893 0.554688C11.0398 0.554688 9.76863 1.08119 8.81438 2.03528L8.81435 2.03532C7.30154 3.54817 6.90442 5.86019 7.8263 7.79029L17.0529 3.51616ZM12.3903 10.6665C13.7397 10.6666 15.0108 10.1401 15.9651 9.18586L7.82098 7.82143L7.82097 7.82144L1.04963 14.593L1.04951 14.5928L1.04349 14.5992C1.04336 14.5993 1.04322 14.5995 1.04309 14.5996C0.729142 14.9138 0.555141 15.3339 0.555141 15.7781C0.555141 16.2225 0.729271 16.6428 1.04348 16.957C1.35772 17.2712 1.778 17.4453 2.22236 17.4453C2.66677 17.4453 3.08701 17.2712 3.40124 16.957L10.1789 10.1793L10.179 10.1793C10.1872 10.171 10.1996 10.169 10.2099 10.1739L10.21 10.174C10.8855 10.4966 11.6386 10.6665 12.3903 10.6665Z" fill="white" stroke="#2D3748"/>
</svg>
