<svg width="24" height="24" viewBox="0 0 24 24" fill="none" xmlns="http://www.w3.org/2000/svg">
<path d="M17.4826 14.453C16.3164 14.453 15.2724 14.985 14.5797 15.8189L10.0735 13.2605C10.2136 12.8661 10.2906 12.4421 10.2906 12.0003C10.2906 11.5585 10.2136 11.1345 10.0735 10.7401L14.5793 8.18108C15.272 9.01526 16.3162 9.54744 17.4825 9.54744C19.5628 9.54744 21.2553 7.85434 21.2553 5.77315C21.2554 3.69257 19.5629 2 17.4826 2C15.4021 2 13.7094 3.69257 13.7094 5.77306C13.7094 6.21493 13.7863 6.63902 13.9265 7.03345L9.42043 9.5926C8.72779 8.75885 7.68385 8.22703 6.51791 8.22703C4.43707 8.22703 2.74414 9.9196 2.74414 12.0002C2.74414 14.0807 4.43707 15.7732 6.51791 15.7732C7.68385 15.7732 8.7277 15.2414 9.42034 14.4078L13.9265 16.9663C13.7863 17.3607 13.7093 17.7849 13.7093 18.2268C13.7093 20.3073 15.402 21.9999 17.4825 21.9999C19.5629 21.9999 21.2553 20.3072 21.2553 18.2268C21.2554 16.146 19.5629 14.453 17.4826 14.453ZM17.4826 3.32033C18.8349 3.32033 19.9351 4.4206 19.9351 5.77306C19.9351 7.12622 18.8349 8.22703 17.4826 8.22703C16.1301 8.22703 15.0297 7.12622 15.0297 5.77306C15.0297 4.4206 16.1301 3.32033 17.4826 3.32033ZM6.51799 14.453C5.16519 14.453 4.06456 13.3526 4.06456 12.0003C4.06456 10.6477 5.16519 9.54744 6.51799 9.54744C7.87028 9.54744 8.97038 10.6477 8.97038 12.0003C8.97038 13.3526 7.87019 14.453 6.51799 14.453ZM17.4826 20.6797C16.1301 20.6797 15.0297 19.5793 15.0297 18.2269C15.0297 16.874 16.1301 15.7733 17.4826 15.7733C18.8349 15.7733 19.9351 16.874 19.9351 18.2269C19.9351 19.5793 18.8349 20.6797 17.4826 20.6797Z" fill="#2D3748"/>
</svg>
