<svg width="14" height="14" viewBox="0 0 14 14" fill="none" xmlns="http://www.w3.org/2000/svg">
<g clip-path="url(#clip0_15500_13759)">
<path d="M4.88089 7.03325V6.2041H4.49027L4.22964 6.61869L4.49027 7.03325H4.88089Z" fill="#A0AEC0"/>
<path d="M4.88089 8.69169V7.86255H4.49027L4.22964 8.27711L4.49027 8.69169H4.88089Z" fill="#A0AEC0"/>
<path d="M4.88089 10.3499V9.52075H4.49027L4.22964 9.93531L4.49027 10.3499H4.88089Z" fill="#A0AEC0"/>
<path d="M4.88089 12.0081V11.179H4.49027L4.22964 11.5935L4.49027 12.0081H4.88089Z" fill="#A0AEC0"/>
<path d="M4.88089 13.6665V12.8374H4.49027L4.22964 13.252L4.49027 13.6665H4.88089Z" fill="#A0AEC0"/>
<path d="M4.49031 0.333252L3.96906 4.21471L5.31879 3.69346V1.99023H12.0098V13.6666H13.6667V0.333252H4.49031Z" fill="#A0AEC0"/>
<path d="M4.49024 0.333252H3.66174V3.69346L4.49024 4.21471V0.333252Z" fill="#A0AEC0"/>
<path d="M1.56424 6.20435H0.78299V7.0335H1.56424V6.20435Z" fill="#A0AEC0"/>
<path d="M3.22253 6.20435H2.44128V7.0335H3.22253V6.20435Z" fill="#A0AEC0"/>
<path d="M6.53903 6.20435H5.75778V7.0335H6.53903V6.20435Z" fill="#A0AEC0"/>
<path d="M8.19742 6.20435H7.41617V7.0335H8.19742V6.20435Z" fill="#A0AEC0"/>
<path d="M1.56424 7.8623H0.78299V8.69145H1.56424V7.8623Z" fill="#A0AEC0"/>
<path d="M3.22253 7.8623H2.44128V8.69145H3.22253V7.8623Z" fill="#A0AEC0"/>
<path d="M6.53903 7.8623H5.75778V8.69145H6.53903V7.8623Z" fill="#A0AEC0"/>
<path d="M8.19742 7.8623H7.41617V8.69145H8.19742V7.8623Z" fill="#A0AEC0"/>
<path d="M1.56424 9.52075H0.78299V10.3499H1.56424V9.52075Z" fill="#A0AEC0"/>
<path d="M3.22253 9.52075H2.44128V10.3499H3.22253V9.52075Z" fill="#A0AEC0"/>
<path d="M6.53903 9.52075H5.75778V10.3499H6.53903V9.52075Z" fill="#A0AEC0"/>
<path d="M8.19742 9.52075H7.41617V10.3499H8.19742V9.52075Z" fill="#A0AEC0"/>
<path d="M1.56424 11.1792H0.78299V12.0083H1.56424V11.1792Z" fill="#A0AEC0"/>
<path d="M3.22253 11.1792H2.44128V12.0083H3.22253V11.1792Z" fill="#A0AEC0"/>
<path d="M6.53903 11.1792H5.75778V12.0083H6.53903V11.1792Z" fill="#A0AEC0"/>
<path d="M8.19742 11.1792H7.41617V12.0083H8.19742V11.1792Z" fill="#A0AEC0"/>
<path d="M1.56424 12.8374H0.78299V13.6665H1.56424V12.8374Z" fill="#A0AEC0"/>
<path d="M3.22253 12.8374H2.44128V13.6665H3.22253V12.8374Z" fill="#A0AEC0"/>
<path d="M6.53903 12.8374H5.75778V13.6665H6.53903V12.8374Z" fill="#A0AEC0"/>
<path d="M8.19742 12.8374H7.41617V13.6665H8.19742V12.8374Z" fill="#A0AEC0"/>
<path d="M4.49005 7.8623H4.09943V8.69145H4.49005V7.8623Z" fill="#A0AEC0"/>
<path d="M4.49005 9.52051H4.09943V10.3496H4.49005V9.52051Z" fill="#A0AEC0"/>
<path d="M4.49005 11.179H4.09943V12.0081H4.49005V11.179Z" fill="#A0AEC0"/>
<path d="M4.49005 12.8374H4.09943V13.6665H4.49005V12.8374Z" fill="#A0AEC0"/>
<path d="M4.49031 5.35167H8.64722V3.69336H4.49031L3.96906 4.52253L4.49031 5.35167Z" fill="#A0AEC0"/>
<path d="M4.49011 3.69336H0.333344V5.35169H4.49011V3.69336Z" fill="#A0AEC0"/>
<path d="M4.49005 6.20435H4.09943V7.0335H4.49005V6.20435Z" fill="#A0AEC0"/>
</g>
<defs>
<clipPath id="clip0_15500_13759">
<rect width="13.3333" height="13.3333" fill="white" transform="translate(0.333344 0.333252)"/>
</clipPath>
</defs>
</svg>
