<svg width="24" height="24" viewBox="0 0 24 24" fill="none" xmlns="http://www.w3.org/2000/svg">
<path d="M19.7256 10.9728V5.41183C19.7256 4.28105 18.8057 3.36108 17.6749 3.36108H6.32504C5.19426 3.36108 4.27437 4.28105 4.27437 5.41183V10.9728C2.97141 11.2862 2 12.4607 2 13.8585V18.0062C2 18.3353 2.26676 18.6021 2.59582 18.6021H4.27434V20.0431C4.27434 20.3722 4.54109 20.6389 4.87016 20.6389C5.19922 20.6389 5.46598 20.3722 5.46598 20.0431V18.6021H18.5339V20.0431C18.5339 20.3722 18.8007 20.6389 19.1298 20.6389C19.4588 20.6389 19.7256 20.3722 19.7256 20.0431V18.6021H21.4041C21.7332 18.6021 21.9999 18.3353 21.9999 18.0062V13.8585C22 12.4607 21.0286 11.2862 19.7256 10.9728ZM5.46602 5.41183C5.46602 4.93815 5.85141 4.55276 6.32504 4.55276H17.6749C18.1486 4.55276 18.534 4.93815 18.534 5.41183V10.89H16.565V9.95003C16.565 8.39261 15.298 7.12558 13.7406 7.12558H10.2595C8.70207 7.12558 7.43504 8.39265 7.43504 9.95003V10.89H5.46602V5.41183ZM15.3734 9.95003V10.89H8.6266V9.95003C8.6266 9.04968 9.35906 8.31722 10.2594 8.31722H13.7405C14.6409 8.31718 15.3734 9.04972 15.3734 9.95003ZM3.19164 17.4104V13.8585C3.19164 12.8787 3.98871 12.0817 4.96844 12.0817H19.0315C20.0112 12.0817 20.8083 12.8787 20.8083 13.8585V17.4104H3.19164Z" fill="black"/>
</svg>
