<svg width="24" height="24" viewBox="0 0 24 24" fill="none" xmlns="http://www.w3.org/2000/svg">
<path d="M20.3333 17.6667H15.3333V14.3333H13.1C12.15 16.35 10.1 17.6667 7.83333 17.6667C4.61667 17.6667 2 15.05 2 11.8333C2 8.61667 4.61667 6 7.83333 6C10.1 6 12.1417 7.31667 13.1 9.33333H22V14.3333H20.3333V17.6667ZM17 16H18.6667V12.6667H20.3333V11H11.95L11.7583 10.4417C11.175 8.78333 9.59167 7.66667 7.83333 7.66667C5.53333 7.66667 3.66667 9.53333 3.66667 11.8333C3.66667 14.1333 5.53333 16 7.83333 16C9.59167 16 11.175 14.8833 11.7583 13.225L11.95 12.6667H17V16ZM7.83333 14.3333C6.45833 14.3333 5.33333 13.2083 5.33333 11.8333C5.33333 10.4583 6.45833 9.33333 7.83333 9.33333C9.20833 9.33333 10.3333 10.4583 10.3333 11.8333C10.3333 13.2083 9.20833 14.3333 7.83333 14.3333ZM7.83333 11C7.375 11 7 11.375 7 11.8333C7 12.2917 7.375 12.6667 7.83333 12.6667C8.29167 12.6667 8.66667 12.2917 8.66667 11.8333C8.66667 11.375 8.29167 11 7.83333 11Z" fill="#2D3748"/>
</svg>
