<svg width="16" height="16" viewBox="0 0 16 16" fill="none" xmlns="http://www.w3.org/2000/svg">
<path d="M11.788 14.016C11.788 13.7998 11.9633 13.6245 12.1795 13.6245C12.3957 13.6245 12.5709 13.7998 12.5709 14.016V14.2571C12.5709 14.478 12.75 14.6571 12.9709 14.6571H13.7004C14.0568 14.6571 14.2353 14.2261 13.9831 13.9742L2.01599 2.01562C1.76397 1.76378 1.33325 1.94228 1.33325 2.29857V14.2571C1.33325 14.478 1.51234 14.6571 1.73325 14.6571H1.99306C2.21397 14.6571 2.39306 14.478 2.39306 14.2571V14.016C2.39306 13.7998 2.56832 13.6245 2.78451 13.6245C3.00071 13.6245 3.17597 13.7998 3.17597 14.016V14.2571C3.17597 14.478 3.35506 14.6571 3.57597 14.6571H3.87205C4.09296 14.6571 4.27205 14.478 4.27205 14.2571V14.016C4.27205 13.7998 4.44731 13.6245 4.66351 13.6245C4.8797 13.6245 5.05496 13.7998 5.05496 14.016V14.2571C5.05496 14.478 5.23405 14.6571 5.45496 14.6571H5.75104C5.97196 14.6571 6.15104 14.478 6.15104 14.2571V14.016C6.15104 13.7998 6.3263 13.6245 6.5425 13.6245C6.75869 13.6245 6.93396 13.7998 6.93396 14.016V14.2571C6.93396 14.478 7.11304 14.6571 7.33396 14.6571H7.63003C7.85095 14.6571 8.03003 14.478 8.03003 14.2571V14.016C8.03003 13.7998 8.2053 13.6245 8.42149 13.6245C8.63769 13.6245 8.81295 13.7998 8.81295 14.016V14.2571C8.81295 14.478 8.99203 14.6571 9.21295 14.6571H9.50903C9.72994 14.6571 9.90903 14.478 9.90903 14.2571V14.016C9.90903 13.7998 10.0843 13.6245 10.3005 13.6245C10.5167 13.6245 10.6919 13.7998 10.6919 14.016V14.2571C10.6919 14.478 10.871 14.6571 11.0919 14.6571H11.388C11.6089 14.6571 11.788 14.478 11.788 14.2571V14.016ZM7.45098 11.2612C7.70311 11.5131 7.52467 11.9441 7.16824 11.9441H4.47528C4.25436 11.9441 4.07528 11.765 4.07528 11.5441V8.85309C4.07528 8.4968 4.50599 8.3183 4.75802 8.57015L7.45098 11.2612Z" fill="#A0AEC0"/>
</svg>
