<svg width="24" height="24" viewBox="0 0 24 24" fill="none" xmlns="http://www.w3.org/2000/svg">
<path d="M21.405 3.5188H2.59504C2.26641 3.5188 2 3.78521 2 4.11384V16.8515C2 17.1801 2.26641 17.4465 2.59504 17.4465H9.14047V19.291H6.96C6.63137 19.291 6.36496 19.5574 6.36496 19.886C6.36496 20.2147 6.63137 20.4811 6.96 20.4811H17.0403C17.3689 20.4811 17.6354 20.2147 17.6354 19.886C17.6354 19.5574 17.3689 19.291 17.0403 19.291H14.8598V17.4465H21.405C21.7336 17.4465 22 17.1801 22 16.8515V4.11384C22 3.78521 21.7336 3.5188 21.405 3.5188ZM13.6697 19.291H10.3305V17.4465H13.6697V19.291ZM20.8099 16.2564H3.19008V15.2429H20.8099V16.2564H20.8099ZM20.8099 14.0528H3.19008V4.70888H20.8099V14.0528H20.8099Z" fill="black"/>
</svg>
