<svg width="14" height="12" viewBox="0 0 14 12" fill="none" xmlns="http://www.w3.org/2000/svg">
<path d="M13.7742 1.77067C13.2653 1.9958 12.7255 2.14365 12.1729 2.20934C12.7554 1.86096 13.1914 1.31268 13.3995 0.666671C12.8529 0.992004 12.2535 1.22 11.6289 1.34334C11.2093 0.89439 10.6531 0.596647 10.0469 0.496394C9.44058 0.396142 8.81817 0.498998 8.27639 0.788973C7.73461 1.07895 7.30381 1.53979 7.05096 2.09987C6.79811 2.65994 6.73738 3.28786 6.87821 3.886C5.76962 3.83044 4.6851 3.54235 3.69507 3.04045C2.70504 2.53854 1.83163 1.83404 1.13155 0.972671C0.88374 1.3983 0.753517 1.88216 0.754214 2.37467C0.754214 3.34134 1.24621 4.19534 1.99421 4.69534C1.55155 4.6814 1.11864 4.56186 0.731547 4.34667V4.38134C0.731681 5.02514 0.95446 5.64908 1.36211 6.14738C1.76976 6.64567 2.3372 6.98766 2.96821 7.11534C2.55729 7.2267 2.12642 7.24311 1.70821 7.16334C1.88613 7.71749 2.23288 8.20214 2.69994 8.54941C3.167 8.89669 3.73097 9.0892 4.31288 9.1C3.73453 9.55422 3.07233 9.88999 2.36413 10.0881C1.65594 10.2862 0.915632 10.3428 0.185547 10.2547C1.46001 11.0743 2.94361 11.5094 4.45888 11.508C9.58755 11.508 12.3922 7.25934 12.3922 3.57467C12.3922 3.45467 12.3889 3.33334 12.3835 3.21467C12.9295 2.82012 13.4006 2.33135 13.7749 1.77134L13.7742 1.77067Z" fill="#F7FAFC"/>
</svg>
