<svg width="20" height="20" viewBox="0 0 20 20" fill="none" xmlns="http://www.w3.org/2000/svg">
<g clip-path="url(#clip0_1822_1862)">
<path d="M18.7652 17.1793V16.6793V5.7581V5.578L18.8801 5.43927C19.1249 5.14355 19.2714 4.76578 19.2714 4.35364C19.2714 3.41342 18.5057 2.64771 17.5655 2.64771C16.6253 2.64771 15.8595 3.41342 15.8595 4.35364C15.8595 4.76069 16.0027 5.13421 16.2424 5.42856L16.3654 5.57969L16.3538 5.77423C16.1537 9.10603 13.3813 11.7548 9.99996 11.7548C6.61858 11.7548 3.84621 9.10603 3.64617 5.77423L3.63449 5.57966L3.75758 5.42852C3.99722 5.13428 4.14039 4.76075 4.14039 4.35368C4.14039 3.41346 3.37468 2.64774 2.43445 2.64774C1.49422 2.64774 0.728555 3.41342 0.728555 4.3536C0.728555 4.76574 0.875094 5.14351 1.11988 5.43923L1.23473 5.57796V5.75806V16.6792V17.1792H0.734727H0.586406C0.538742 17.1792 0.5 17.2179 0.5 17.2657C0.5 17.3134 0.53872 17.3521 0.586445 17.3521H4.28258C4.3303 17.3521 4.36902 17.3134 4.36902 17.2657C4.36902 17.2179 4.3303 17.1792 4.28258 17.1792H4.1343H3.6343V16.6792V9.27478V7.61926L4.55071 8.998C5.72432 10.7637 7.72934 11.9276 10 11.9276C12.2707 11.9276 14.2758 10.7637 15.4494 8.998L16.3658 7.61926V9.27478V16.6793V17.1793H15.8658H15.7175C15.6697 17.1793 15.631 17.218 15.631 17.2657C15.631 17.3134 15.6697 17.3522 15.7175 17.3522H19.4136C19.4613 17.3522 19.5 17.3135 19.5 17.2658L18.7652 17.1793ZM18.7652 17.1793H19.2652M18.7652 17.1793H19.2652M19.2652 17.1793H19.4136M19.2652 17.1793H19.4136M19.4136 17.1793C19.4612 17.1793 19.5 17.218 19.5 17.2657L19.4136 17.1793ZM2.96141 17.1793H3.46141V16.6793V6.49544V5.85753L2.84196 6.00992C2.71088 6.04216 2.5746 6.0595 2.43453 6.0595C2.29443 6.0595 2.15819 6.04217 2.0271 6.00992L1.40766 5.85753V6.49544V16.6793V17.1793H1.90766H2.96141ZM3.96758 4.35364V4.3536C3.96758 3.50781 3.28032 2.82056 2.43453 2.82056C1.58874 2.82056 0.901484 3.50781 0.901484 4.3536C0.901484 5.19937 1.58875 5.88661 2.43453 5.88661C3.28029 5.88661 3.96752 5.19936 3.96758 4.35364ZM16.5387 16.6793V17.1793H17.0387H18.0923H18.0924H18.0924H18.5924V16.6793V6.49544V5.85753L17.973 6.00992C17.8419 6.04217 17.7056 6.0595 17.5655 6.0595C17.4254 6.0595 17.2892 6.04217 17.1581 6.00992L16.5387 5.85753V6.49544V16.6793ZM16.0324 4.3536C16.0324 5.19938 16.7197 5.88661 17.5655 5.88661C18.4112 5.88661 19.0985 5.19938 19.0985 4.3536C19.0985 3.5078 18.4112 2.82056 17.5655 2.82056C16.7197 2.82056 16.0324 3.5078 16.0324 4.3536Z" fill="white" stroke="#2D3748"/>
</g>
<defs>
<clipPath id="clip0_1822_1862">
<rect width="20" height="20" fill="white"/>
</clipPath>
</defs>
</svg>
