<svg width="15" height="12" viewBox="0 0 15 12" fill="none" xmlns="http://www.w3.org/2000/svg">
<path d="M0.287109 6C0.913776 2.58667 3.90511 0 7.49978 0C11.0944 0 14.0851 2.58667 14.7124 6C14.0858 9.41333 11.0944 12 7.49978 12C3.90511 12 0.914443 9.41333 0.287109 6ZM7.49978 9.33333C8.38383 9.33333 9.23168 8.98214 9.8568 8.35702C10.4819 7.7319 10.8331 6.88406 10.8331 6C10.8331 5.11595 10.4819 4.2681 9.8568 3.64298C9.23168 3.01786 8.38383 2.66667 7.49978 2.66667C6.61572 2.66667 5.76787 3.01786 5.14275 3.64298C4.51763 4.2681 4.16644 5.11595 4.16644 6C4.16644 6.88406 4.51763 7.7319 5.14275 8.35702C5.76787 8.98214 6.61572 9.33333 7.49978 9.33333ZM7.49978 8C6.96934 8 6.46063 7.78929 6.08556 7.41421C5.71049 7.03914 5.49978 6.53043 5.49978 6C5.49978 5.46957 5.71049 4.96086 6.08556 4.58579C6.46063 4.21071 6.96934 4 7.49978 4C8.03021 4 8.53892 4.21071 8.91399 4.58579C9.28906 4.96086 9.49978 5.46957 9.49978 6C9.49978 6.53043 9.28906 7.03914 8.91399 7.41421C8.53892 7.78929 8.03021 8 7.49978 8Z" fill="#2D3748"/>
</svg>
