<svg width="24" height="24" viewBox="0 0 24 24" fill="none" xmlns="http://www.w3.org/2000/svg">
<path d="M19.2452 5.09338H4.7548C3.23582 5.09338 2 6.3292 2 7.84827V16.1518C2 17.6708 3.23582 18.9066 4.7548 18.9066H19.2451C20.7641 18.9066 21.9999 17.6708 21.9999 16.1518V7.84827C22 6.3292 20.7642 5.09338 19.2452 5.09338ZM3.19523 7.84823C3.19523 6.98827 3.89488 6.28862 4.75484 6.28862H19.2452C20.1051 6.28862 20.8048 6.98827 20.8048 7.84823V8.84592H3.19523V7.84823ZM20.8048 16.1518C20.8048 17.0117 20.1051 17.7114 19.2452 17.7114H4.7548C3.89484 17.7114 3.1952 17.0117 3.1952 16.1517V10.0412H20.8048V16.1518Z" fill="black"/>
<path d="M14.4408 11.7102C13.6011 11.7102 12.8873 12.2575 12.6361 13.014H8.25533C7.92529 13.014 7.65771 13.2816 7.65771 13.6116V14.8244C7.65771 15.1545 7.92529 15.422 8.25533 15.422C8.58537 15.422 8.85295 15.1545 8.85295 14.8244V14.2092H9.40678V14.8244C9.40678 15.1545 9.67436 15.422 10.0044 15.422C10.3344 15.422 10.602 15.1545 10.602 14.8244V14.2092H12.6362C12.8873 14.9656 13.6011 15.513 14.4408 15.513C15.4892 15.513 16.3422 14.66 16.3422 13.6116C16.3422 12.5631 15.4892 11.7102 14.4408 11.7102ZM14.4408 14.3177C14.0514 14.3177 13.7346 14.0009 13.7346 13.6116C13.7346 13.2222 14.0514 12.9054 14.4408 12.9054C14.8301 12.9054 15.1469 13.2222 15.1469 13.6116C15.147 14.0009 14.8301 14.3177 14.4408 14.3177Z" fill="black"/>
</svg>
