<svg width="24" height="24" viewBox="0 0 24 24" fill="none" xmlns="http://www.w3.org/2000/svg">
<path d="M18.7249 2H5.27534C4.34084 2 3.58057 2.76028 3.58057 3.69477V20.3052C3.58057 21.2397 4.34084 22 5.27534 22H18.7249C19.6593 22 20.4196 21.2397 20.4196 20.3052V3.69477C20.4196 2.76028 19.6593 2 18.7249 2ZM4.77467 3.69477C4.77467 3.41871 4.99928 3.1941 5.27534 3.1941H18.7249C19.0009 3.1941 19.2255 3.41871 19.2255 3.69477V6.23716H4.77467V3.69477ZM19.2256 20.3052H19.2255C19.2255 20.5813 19.0009 20.8059 18.7249 20.8059H5.27534C4.99928 20.8059 4.77467 20.5813 4.77467 20.3052V7.43122H19.2256V20.3052H19.2256Z" fill="black"/>
<path d="M12 8.97205C9.16223 8.97205 6.85352 11.2808 6.85352 14.1186C6.85352 16.9564 9.16223 19.2651 12 19.2651C14.8378 19.2651 17.1465 16.9564 17.1465 14.1186C17.1465 11.2808 14.8378 8.97205 12 8.97205ZM12 10.1661C14.0802 10.1661 15.7901 11.7815 15.9415 13.8237C14.1532 15.0733 13.27 14.3675 12.5545 13.7954C12.4879 13.7423 12.4251 13.692 12.3625 13.6441C12.3084 13.6028 12.2514 13.5572 12.1913 13.5091C11.5272 12.9782 10.253 11.9601 8.23008 12.9309C8.73551 11.3301 10.2343 10.1661 12 10.1661ZM12 18.071C9.91981 18.071 8.20992 16.4557 8.05856 14.4135C9.84669 13.164 10.7299 13.8696 11.4456 14.4417C11.5121 14.4949 11.575 14.5452 11.6376 14.593C11.6917 14.6344 11.7486 14.6799 11.8088 14.728C12.2736 15.0997 13.0372 15.7103 14.1475 15.7103C14.6234 15.7103 15.1629 15.5979 15.7699 15.3066C15.2643 16.9073 13.7656 18.071 12 18.071Z" fill="black"/>
<path d="M17.7851 4.11853H16.9042C16.5744 4.11853 16.3071 4.38584 16.3071 4.71556C16.3071 5.04529 16.5744 5.3126 16.9042 5.3126H17.7851C18.1148 5.3126 18.3821 5.04529 18.3821 4.71556C18.3821 4.38584 18.1148 4.11853 17.7851 4.11853Z" fill="black"/>
<path d="M15.1362 4.11853H14.2552C13.9255 4.11853 13.6582 4.38584 13.6582 4.71556C13.6582 5.04529 13.9255 5.3126 14.2552 5.3126H15.1362C15.4659 5.3126 15.7332 5.04529 15.7332 4.71556C15.7332 4.38584 15.4659 4.11853 15.1362 4.11853Z" fill="black"/>
<path d="M9.12561 4.11853H6.21471C5.88498 4.11853 5.61768 4.38584 5.61768 4.71556C5.61768 5.04529 5.88498 5.3126 6.21471 5.3126H9.12561C9.45534 5.3126 9.72264 5.04529 9.72264 4.71556C9.72268 4.38584 9.45534 4.11853 9.12561 4.11853Z" fill="black"/>
</svg>
