<svg width="243" height="36" viewBox="0 0 243 36" fill="none" xmlns="http://www.w3.org/2000/svg">
<path d="M13.4282 0.0124679C19.5333 0.0254426 24.767 3.99614 26.3616 9.9079C27.4807 14.0562 26.7502 17.9164 24.2587 21.4334C21.0145 26.0138 17.7808 30.602 14.5579 35.198C13.8145 36.2539 13.0407 36.2731 12.2962 35.2204C9.01901 30.5808 5.74626 25.9378 2.47796 21.2914C1.02191 19.217 0.0756697 16.9292 0.0062702 14.3685C-0.0898215 10.832 0.916689 7.6201 3.15416 4.8612C5.48794 1.98395 8.53841 0.404841 12.2017 0.0198511C12.6101 -0.00386886 13.0195 -0.00633393 13.4282 0.0124679ZM13.4202 23.0946C18.6779 23.1503 23.0218 18.8403 23.0861 13.5041C23.111 12.2246 22.8846 10.9526 22.4198 9.76126C21.955 8.56989 21.2609 7.4825 20.3773 6.56145C19.4938 5.6404 18.4382 4.9038 17.271 4.39388C16.1038 3.88396 14.848 3.61076 13.5756 3.58993C12.3032 3.5691 11.0393 3.80106 9.85621 4.2725C8.67314 4.74395 7.59424 5.44561 6.68136 6.33725C5.76848 7.22889 5.03958 8.29298 4.53645 9.46851C4.03332 10.644 3.76586 11.9079 3.7494 13.1876C3.62973 18.4667 7.91715 23.1248 13.4202 23.0946Z" fill="white"/>
<path d="M7.40624 7.74636H9.6228L9.67352 8.81364C10.2518 8.37094 10.7623 7.98349 11.2697 7.59335C11.7566 7.21865 12.2337 6.83076 12.7289 6.46746C13.2467 6.08717 13.6302 6.0648 14.1338 6.45113C16.5979 8.3426 19.0545 10.2441 21.5035 12.1555C21.8531 12.4275 22.0578 12.7629 21.7639 13.2185C21.639 13.416 21.4471 13.5611 21.2238 13.6269C21.0005 13.6928 20.761 13.6748 20.5499 13.5765C20.3205 13.4651 20.1064 13.3244 19.9131 13.1577C17.9527 11.6465 15.9941 10.1332 14.0372 8.61768C13.4947 8.19847 13.4002 8.21188 12.8419 8.64385C10.8165 10.2098 8.78867 11.7729 6.75829 13.3333C6.39238 13.6154 6.01024 13.8174 5.53157 13.6311C4.90052 13.385 4.73681 12.7394 5.23817 12.29C5.78381 11.8007 6.37481 11.3609 6.96182 10.9209C7.11035 10.8213 7.23015 10.6841 7.30911 10.523C7.38808 10.362 7.42342 10.1829 7.41158 10.0037C7.39312 9.26843 7.40624 8.5329 7.40624 7.74636Z" fill="white"/>
<path d="M10.5662 18.3563V16.2058H12.6891V18.3563H10.5662Z" fill="#00FCF1"/>
<path d="M14.147 18.3563V16.2058H16.2699V18.3563H14.147Z" fill="#00FCF1"/>
<path d="M14.147 14.8812V12.7307H16.2699V14.8812H14.147Z" fill="#00FCF1"/>
<path d="M10.5662 14.8812V12.7307H12.6891V14.8812H10.5662Z" fill="#00FCF1"/>
<path d="M56.1149 8.02271V28.6781H52.0946V20.3635H42.1301V28.6817H38.1062V8.02271H42.1301V16.313H52.0946V8.02271H56.1149Z" fill="white"/>
<path d="M68.3401 27.5249C66.7385 26.5861 65.4074 25.2441 64.4779 23.631C63.5415 22.0044 63.0483 20.1582 63.0483 18.2787C63.0483 16.3992 63.5415 14.5529 64.4779 12.9264C65.4085 11.3213 66.7398 9.98869 68.3401 9.06037C69.9432 8.12982 71.7611 7.63883 73.6121 7.63648C75.463 7.63414 77.2821 8.12054 78.8875 9.04703C80.4861 9.96467 81.8177 11.2876 82.7497 12.8839C83.706 14.5151 84.2002 16.3785 84.1788 18.272C84.1927 20.1535 83.7042 22.0042 82.7642 23.631C81.8435 25.2447 80.518 26.5873 78.9201 27.5249C77.315 28.4658 75.4904 28.9615 73.6325 28.9615C71.7747 28.9615 69.9501 28.4658 68.3449 27.5249H68.3401ZM76.9094 24.0497C77.9003 23.4619 78.7225 22.6254 79.2955 21.6221C79.8858 20.6065 80.1927 19.4496 80.1838 18.2732C80.1915 17.1101 79.8844 15.9667 79.2955 14.9656C78.7197 13.9679 77.8979 13.1364 76.9094 12.5513C75.916 11.9663 74.7855 11.6579 73.6343 11.6579C72.4831 11.6579 71.3527 11.9663 70.3593 12.5513C69.3699 13.1356 68.5475 13.9673 67.972 14.9656C67.383 15.9667 67.076 17.1101 67.0837 18.2732C67.0772 19.4405 67.3841 20.5878 67.972 21.5942C68.5465 22.6006 69.3686 23.4415 70.3593 24.0364C71.3459 24.6386 72.4797 24.953 73.6338 24.9443C74.7848 24.9502 75.9155 24.6392 76.9033 24.0449L76.9094 24.0497Z" fill="white"/>
<path d="M110.527 8.30177C110.71 8.48422 110.855 8.70184 110.952 8.94165C111.05 9.18145 111.099 9.43857 111.096 9.69769V28.678H107.072V15.3358L100.827 23.682L94.5823 15.3358V28.678H90.5583V9.69769C90.5631 9.17366 90.7721 8.6724 91.1404 8.30174C91.5088 7.93107 92.007 7.72057 92.5281 7.7155C92.8159 7.71805 93.0996 7.78468 93.3588 7.9106C93.618 8.03652 93.8462 8.21862 94.0271 8.44379L100.827 17.3483L107.627 8.44379C107.808 8.21843 108.036 8.03621 108.295 7.91027C108.554 7.78433 108.838 7.7178 109.126 7.7155C109.387 7.71002 109.647 7.75932 109.888 7.86026C110.129 7.9612 110.347 8.11156 110.527 8.30177Z" fill="white"/>
<path d="M124.002 12.0692V16.3176H135.076V20.3632H124.002V24.6347H135.908V28.6815H122.06C121.786 28.6859 121.514 28.6337 121.261 28.5281C121.008 28.4224 120.779 28.2656 120.588 28.0673C120.393 27.8797 120.237 27.6535 120.132 27.4029C120.027 27.1523 119.975 26.8827 119.978 26.6107V10.0883C119.975 9.8164 120.027 9.54677 120.133 9.2962C120.238 9.04563 120.393 8.81944 120.588 8.63173C120.779 8.43368 121.008 8.277 121.261 8.17137C121.514 8.06573 121.786 8.0134 122.06 8.01756H135.908V12.0644L124.002 12.0692Z" fill="white"/>
<path d="M152.589 21.9509H148.26V28.6779H144.234V10.0883C144.232 9.81644 144.285 9.54688 144.39 9.29635C144.495 9.04582 144.65 8.81962 144.845 8.63173C145.036 8.43368 145.264 8.277 145.518 8.17137C145.771 8.06573 146.042 8.0134 146.316 8.01756H154.644C155.889 8.00907 157.112 8.34227 158.182 8.9813C159.253 9.61131 160.143 10.5107 160.763 11.591C161.398 12.6729 161.728 13.9074 161.721 15.1633C161.749 16.6253 161.281 18.0533 160.393 19.2113C159.507 20.3627 158.282 21.2027 156.893 21.6111L161.833 28.673H157.219L152.589 21.9509ZM148.26 18.1881H154.643C155.044 18.1961 155.443 18.1222 155.815 17.9709C156.187 17.8197 156.524 17.5942 156.807 17.3081C157.094 17.0333 157.321 16.7016 157.474 16.3342C157.627 15.9667 157.702 15.5713 157.695 15.173C157.702 14.7674 157.626 14.3647 157.473 13.9892C157.321 13.6137 157.094 13.2732 156.807 12.9881C156.528 12.6948 156.192 12.4627 155.82 12.3065C155.447 12.1502 155.047 12.0732 154.643 12.0802H148.26V18.1881Z" fill="white"/>
<path d="M173.363 27.5249C171.761 26.5864 170.43 25.2443 169.501 23.6309C168.564 22.0044 168.071 20.1582 168.071 18.2787C168.071 16.3991 168.564 14.5529 169.501 12.9263C170.431 11.321 171.762 9.98828 173.363 9.06036C174.966 8.12981 176.783 7.63883 178.634 7.63648C180.485 7.63414 182.304 8.12053 183.909 9.04703C185.508 9.96444 186.839 11.2874 187.771 12.8839C188.727 14.5154 189.221 16.3785 189.2 18.272C189.214 20.1536 188.725 22.0045 187.784 23.6309C186.864 25.2449 185.539 26.5876 183.94 27.5249C182.335 28.4655 180.511 28.9612 178.653 28.9612C176.796 28.9612 174.971 28.4655 173.366 27.5249H173.363ZM181.925 24.0497C182.916 23.4623 183.739 22.6257 184.312 21.6221C184.902 20.6062 185.209 19.4495 185.2 18.2732C185.208 17.1101 184.901 15.9669 184.312 14.9656C183.736 13.9675 182.914 13.1359 181.925 12.5513C180.931 11.9663 179.801 11.6579 178.65 11.6579C177.499 11.6579 176.368 11.9663 175.375 12.5513C174.386 13.1357 173.564 13.9674 172.989 14.9656C172.4 15.9667 172.093 17.1101 172.1 18.2732C172.094 19.4404 172.401 20.5878 172.989 21.5942C173.563 22.6005 174.384 23.4415 175.375 24.0364C176.362 24.6386 177.496 24.9529 178.65 24.9443C179.803 24.9513 180.936 24.6402 181.925 24.0449V24.0497Z" fill="white"/>
<path d="M200.035 27.5249C198.433 26.5864 197.102 25.2443 196.173 23.6309C195.236 22.0044 194.743 20.1582 194.743 18.2787C194.743 16.3991 195.236 14.5529 196.173 12.9263C197.103 11.3211 198.434 9.98832 200.035 9.06036C201.638 8.12981 203.455 7.63883 205.306 7.63648C207.157 7.63414 208.976 8.12053 210.581 9.04703C212.18 9.96444 213.512 11.2874 214.443 12.8839C215.399 14.5154 215.893 16.3785 215.872 18.272C215.886 20.1536 215.397 22.0045 214.457 23.6309C213.536 25.2449 212.211 26.5876 210.612 27.5249C209.008 28.4655 207.183 28.9612 205.326 28.9612C203.468 28.9612 201.644 28.4655 200.039 27.5249H200.035ZM208.597 24.0497C209.588 23.4623 210.411 22.6257 210.984 21.6221C211.574 20.6062 211.881 19.4495 211.873 18.2732C211.88 17.1101 211.573 15.9669 210.984 14.9656C210.408 13.9675 209.586 13.1359 208.597 12.5513C207.604 11.9663 206.473 11.6579 205.322 11.6579C204.171 11.6579 203.04 11.9663 202.047 12.5513C201.058 13.1357 200.236 13.9674 199.661 14.9656C199.072 15.9667 198.765 17.1101 198.772 18.2732C198.766 19.4404 199.073 20.5878 199.661 21.5942C200.235 22.6005 201.057 23.4415 202.047 24.0364C203.034 24.6386 204.168 24.9529 205.322 24.9443C206.475 24.9513 207.608 24.6402 208.597 24.0449V24.0497Z" fill="white"/>
<path d="M242.222 8.30178C242.405 8.48423 242.55 8.70185 242.647 8.94165C242.745 9.18145 242.794 9.43857 242.791 9.69769V28.678H238.767V15.3358L232.522 23.682L226.277 15.3358V28.678H222.252V9.69769C222.257 9.17356 222.466 8.6723 222.835 8.30166C223.203 7.93103 223.702 7.72056 224.223 7.7155C224.511 7.71805 224.795 7.78468 225.054 7.91061C225.313 8.03653 225.541 8.21862 225.722 8.4438L232.522 17.3483L239.322 8.4438C239.502 8.21852 239.73 8.03636 239.989 7.91042C240.248 7.78448 240.532 7.71789 240.82 7.7155C241.081 7.71 241.341 7.75929 241.582 7.86023C241.824 7.96116 242.042 8.11153 242.222 8.30178Z" fill="white"/>
</svg>
