<svg width="24" height="24" viewBox="0 0 24 24" fill="none" xmlns="http://www.w3.org/2000/svg">
<g clip-path="url(#clip0)">
<path d="M13.8522 15.6489C12.831 14.6276 11.1693 14.6276 10.148 15.6489C9.12677 16.6701 9.12677 18.3318 10.148 19.3531C10.6586 19.8637 11.3293 20.119 12.0001 20.119C12.6708 20.119 13.3416 19.8637 13.8522 19.3531C14.8735 18.3318 14.8735 16.6701 13.8522 15.6489ZM12.9973 18.4981C12.4474 19.0479 11.5528 19.0479 11.003 18.4981C10.4531 17.9483 10.4531 17.0536 11.003 16.5038C11.2779 16.2289 11.639 16.0914 12.0002 16.0914C12.3613 16.0914 12.7224 16.2289 12.9974 16.5038C13.5471 17.0536 13.5471 17.9482 12.9973 18.4981Z" fill="black"/>
<path d="M18.0527 11.7201C14.7152 8.38268 9.28479 8.38268 5.94733 11.7201C5.83397 11.8335 5.77026 11.9872 5.77026 12.1476C5.77026 12.3079 5.83397 12.4616 5.94733 12.575L7.79186 14.4195C7.90522 14.5329 8.05897 14.5966 8.21928 14.5966C8.37963 14.5966 8.53338 14.5329 8.64674 14.4195C9.54076 13.5255 10.7316 13.0331 11.9999 13.0331C13.2683 13.0331 14.4591 13.5254 15.3532 14.4195C15.4666 14.5329 15.6203 14.5966 15.7806 14.5966C15.9409 14.5966 16.0947 14.5329 16.2081 14.4195L18.0526 12.575C18.1659 12.4616 18.2297 12.3079 18.2297 12.1476C18.2297 11.9872 18.166 11.8335 18.0527 11.7201ZM15.7593 13.1586C14.7015 12.2941 13.3875 11.8241 12 11.8241C10.6125 11.8241 9.2985 12.2941 8.24069 13.1586L7.2471 12.165C9.97951 9.84588 14.0205 9.84588 16.7529 12.165L15.7593 13.1586Z" fill="black"/>
<path d="M21.8229 7.94976C19.1991 5.32598 15.7106 3.88098 12 3.88098C8.28936 3.88098 4.80085 5.32598 2.17707 7.9498C1.94098 8.18589 1.94098 8.56863 2.17707 8.80472L4.02164 10.6493C4.25773 10.8853 4.6405 10.8853 4.87656 10.6493C8.80448 6.72137 15.1956 6.72137 19.1235 10.6493C19.2415 10.7673 19.3963 10.8263 19.5509 10.8263C19.7056 10.8263 19.8603 10.7673 19.9784 10.6493L21.8229 8.80472C22.059 8.56859 22.059 8.18586 21.8229 7.94976ZM19.5397 9.37816C15.2645 5.53371 8.73565 5.53371 4.46043 9.37816L3.46941 8.38714C5.80847 6.25633 8.81456 5.09 12 5.09C15.1855 5.09 18.1915 6.25633 20.5306 8.38714L19.5397 9.37816Z" fill="black"/>
</g>
<defs>
<clipPath id="clip0">
<rect width="20" height="20" fill="white" transform="translate(2 2)"/>
</clipPath>
</defs>
</svg>
